<svg xmlns="http://www.w3.org/2000/svg" width="562.049" height="367.055"><path fill="#DBD500" d="M506.462 324.527H55.587V95.39l.451-.507c9.397-10.576 25.749-15.612 37.811-17.976 13.397-2.626 24.748-2.656 24.861-2.656 31.419 0 56.312-8.009 80.386-15.754 24.408-7.852 49.643-15.97 81.928-15.97 15.873 0 32.287 0 81.928 15.97 24.074 7.745 48.969 15.754 80.387 15.754.113 0 11.428.03 24.799 2.644 12.084 2.361 28.465 7.398 37.873 17.988l.451.507v229.137zm-447.306-3.568h443.738V96.757c-8.824-9.509-24.092-14.143-35.439-16.36-12.979-2.536-24.006-2.577-24.115-2.577-31.979 0-57.143-8.097-81.479-15.926-49.109-15.798-65.238-15.798-80.836-15.798-31.725 0-56.69 8.031-80.833 15.797-24.338 7.83-49.502 15.927-81.482 15.927-.109 0-11.185.043-24.175 2.589-11.328 2.22-26.566 6.852-35.379 16.349v224.201z"/><path fill="#DBD500" d="M135.542 160.525c0-.379-.081-.899-.244-1.563-.162-.663-.379-1.367-.65-2.112s-.596-1.504-.975-2.276c-.379-.771-.792-1.469-1.239-2.092s-.915-1.131-1.402-1.523c-.487-.393-.989-.589-1.503-.589-.433 0-.921.21-1.463.63s-1.049.907-1.523 1.463a11.064 11.064 0 0 0-1.198 1.685c-.326.57-.488 1.003-.488 1.3 0 .407.197.821.589 1.24.393.42.894.839 1.503 1.259.61.42 1.286.82 2.031 1.199a24.7 24.7 0 0 0 2.215.995 21.28 21.28 0 0 0 2.051.691c.637.176 1.145.264 1.523.264.326 0 .536-.041.63-.122.095-.082.143-.231.143-.449m3.372 4.186c0 1.109-.292 1.977-.874 2.6s-1.429.935-2.539.935c-1.138 0-2.41-.17-3.818-.509a21.632 21.632 0 0 1-4.083-1.422 16.54 16.54 0 0 1-3.576-2.233c-1.07-.88-1.822-1.85-2.255-2.905-.487.569-1.151 1.124-1.99 1.666-.84.542-1.666 1.11-2.478 1.706a13.087 13.087 0 0 0-2.113 1.909c-.596.677-.894 1.436-.894 2.274 0 1.3.27 2.777.812 4.43.542 1.651 1.131 3.459 1.768 5.423a85.787 85.787 0 0 1 1.768 6.316c.541 2.248.812 4.633.812 7.151 0 .595-.061 1.077-.183 1.442-.122.366-.319.549-.589.549-.271 0-.481-.156-.63-.468a4.814 4.814 0 0 1-.345-.995 58.073 58.073 0 0 0-2.356-7.09c-.949-2.344-1.863-4.61-2.743-6.805a85.697 85.697 0 0 1-2.255-6.276c-.623-1.99-.934-3.826-.934-5.506 0-1.569.386-3.088 1.158-4.549.772-1.463 2.214-2.885 4.326-4.267 1.896-1.219 3.474-2.336 4.734-3.353 1.259-1.015 2.267-2.158 3.026-3.432.894-1.517 1.727-2.804 2.499-3.86s1.489-1.908 2.153-2.559c.663-.651 1.3-1.124 1.91-1.422a4.163 4.163 0 0 1 1.848-.447c1.029 0 2.058.555 3.087 1.666 1.029 1.11 1.964 2.898 2.804 5.362a36.86 36.86 0 0 1 .955 3.393c.257 1.124.46 2.188.609 3.189.149 1.002.25 1.896.305 2.682.054.785.081 1.422.081 1.909v3.496z"/><path fill="#DBD500" d="M138.669 166.904c-1.732 0-2.6-.744-2.6-2.234v-3.169c0-1.544.868-2.315 2.6-2.315h18.607v7.068c0 .434-.23.65-.69.65h-17.917z"/><path fill="#DBD500" d="M185.309 179.62l-5.769 5.769-5.729-5.769 5.729-5.729 5.769 5.729zm-11.903 0l-5.728 5.769-5.729-5.769 5.729-5.729 5.728 5.729zm-16.373-12.716c-1.732 0-2.6-.744-2.6-2.234v-3.169c0-1.544.868-2.315 2.6-2.315h21.938c.623 0 .935-.259.935-.772 0-2.058-1.584-5.389-4.753-9.994l5.811-6.378c1.082 1.625 2.254 4.638 3.512 9.039 1.261 4.401 1.891 7.563 1.891 9.486v3.088c0 2.167-1.327 3.25-3.98 3.25h-25.354z"/><path fill="#DBD500" d="M214.235 160.526c0-.38-.082-.9-.244-1.564a20.577 20.577 0 0 0-.65-2.113 22.931 22.931 0 0 0-.975-2.274 14.777 14.777 0 0 0-1.239-2.093c-.446-.622-.914-1.13-1.401-1.523-.487-.392-.989-.589-1.502-.589-.435 0-.922.21-1.463.63-.543.42-1.051.908-1.524 1.463s-.874 1.117-1.198 1.686c-.325.568-.488 1.003-.488 1.3 0 .406.196.82.59 1.239.392.421.894.84 1.502 1.26.61.42 1.287.818 2.032 1.198a23.5 23.5 0 0 0 2.214.994c.731.286 1.416.517 2.051.692.638.176 1.146.263 1.524.263.325 0 .535-.041.63-.122.092-.081.141-.23.141-.447m-28.114 6.378c-1.731 0-2.601-.744-2.601-2.234v-3.169c0-1.544.869-2.315 2.601-2.315 1.058 0 2.274-.122 3.657-.366a20.396 20.396 0 0 0 4.203-1.239c1.423-.582 2.789-1.381 4.104-2.396 1.313-1.017 2.417-2.297 3.312-3.84.894-1.516 1.719-2.803 2.478-3.859s1.47-1.915 2.134-2.579c.663-.664 1.299-1.146 1.909-1.442a4.162 4.162 0 0 1 1.849-.448c1.028 0 2.058.557 3.086 1.666 1.031 1.111 1.965 2.899 2.805 5.363.379 1.137.695 2.27.954 3.393.258 1.124.461 2.188.61 3.189.147 1.002.25 1.896.303 2.681.056.785.082 1.423.082 1.91v3.494c0 1.11-.291 1.977-.873 2.6-.584.623-1.428.935-2.539.935-1.165 0-2.465-.177-3.9-.529a21.825 21.825 0 0 1-4.164-1.481 16.051 16.051 0 0 1-3.596-2.317c-1.057-.907-1.787-1.914-2.193-3.025-1.057 1.029-2.229 1.924-3.515 2.682s-2.579 1.381-3.88 1.868-2.547.854-3.737 1.098c-1.194.238-2.222.36-3.089.36"/><path fill="#DBD500" d="M265.098 158.332c0-2.004-.758-4.211-2.273-6.623-1.707-2.681-3.59-4.021-5.648-4.021-4.062 0-9.561 3.793-16.494 11.376 3.035.894 7.639 1.341 13.813 1.341 7.069-.001 10.602-.692 10.602-2.073m-47.735 8.572c-1.731 0-2.601-.744-2.601-2.234v-3.169c0-1.544.869-2.315 2.601-2.315 1.002 0 2.112-.144 3.332-.428a26.14 26.14 0 0 0 3.758-1.197 31.623 31.623 0 0 0 3.859-1.869 29.406 29.406 0 0 0 3.636-2.438c1.164-.949 2.059-1.7 2.682-2.255s1.029-.833 1.219-.833c.108 0 .168.047.183.143.015.095.021.21.021.345 0 .163-.041.454-.123.874-.08.42-.121.969-.121 1.646 0 1.95.664 3.426 1.992 4.428 2.274-3.331 4.955-6.5 8.043-9.508 1.707-1.65 3.203-3.005 4.489-4.062 1.286-1.056 2.362-1.841 3.229-2.356 1.517-.866 3.224-1.3 5.119-1.3 3.576 0 6.283 2.465 8.125 7.395 1.301 3.548 1.951 7.435 1.951 11.658v5.567c0 2.112-5.662 3.169-16.982 3.169-1.354 0-2.811-.041-4.367-.122a50.046 50.046 0 0 1-4.591-.448c-1.503-.216-2.905-.514-4.205-.893s-2.343-.854-3.128-1.422a58.867 58.867 0 0 0-1.971 2.377 60.995 60.995 0 0 1-2.742 3.188c0-.704.169-1.617.508-2.741.338-1.124 1.104-2.525 2.295-4.205-.189-.188-.461-.527-.812-1.016a5.127 5.127 0 0 1-.771-1.544 28.476 28.476 0 0 1-4.062 2.601c-1.354.705-2.674 1.279-3.961 1.727s-2.492.765-3.617.955c-1.126.188-2.121.282-2.988.282"/><path fill="#DBD500" d="M296.706 131.274l-5.77 5.77-5.727-5.77 5.727-5.728 5.77 5.728zm-11.822 0l-5.727 5.77-5.729-5.77 5.729-5.728 5.727 5.728zm-16.373 35.63c-1.731 0-2.601-.744-2.601-2.234v-3.169c0-1.544.869-2.315 2.601-2.315h21.937c.625 0 .936-.259.936-.772 0-2.058-1.584-5.389-4.752-9.994l5.809-6.378c1.084 1.625 2.256 4.638 3.514 9.039 1.26 4.401 1.891 7.563 1.891 9.486v3.088c0 2.167-1.328 3.25-3.982 3.25h-25.353z"/><path fill="#DBD500" d="M297.601 166.904c-1.732 0-2.6-.744-2.6-2.234v-3.169c0-1.544.867-2.315 2.6-2.315h11.295c1 0 1.502-.447 1.502-1.342 0-6.663-1.49-18.173-4.469-34.531l5.322-5.932c.92 4.17 1.963 11.659 3.129 22.465 1.055 10.186 1.584 16.956 1.584 20.314v4.265c0 1.653-.881 2.479-2.641 2.479h-15.722zM330.265 166.823l-5.242 3.088v-3.738c0-4.036-.447-10.062-1.34-18.079-1.002-9.181-2.221-17.415-3.656-24.701l5.402-6.012c3.222 18.931 4.836 35.413 4.836 49.442M375.196 127.05l-5.768 5.768-5.729-5.768 5.729-5.729 5.768 5.729zm-5.849 32.379c0-.46-.582-2.349-1.746-5.667-1.166-3.318-1.91-4.977-2.234-4.977-.65 0-2.113 1.313-4.389 3.94-2.355 2.736-3.533 4.713-3.533 5.931 0 1.273 1.854 1.909 5.564 1.909 4.224 0 6.338-.377 6.338-1.136m-5.973-32.379l-5.727 5.768-5.729-5.768 5.729-5.729 5.727 5.729zm11.213 38.026c0 .731-1.043 1.354-3.127 1.868-2.438.65-5.811.976-10.117.976-3.818 0-6.473-.557-7.963-1.666-1.273-.947-1.908-2.561-1.908-4.834 0-4.496 4.266-9.872 12.797-16.129l-.895-2.438 5.811-5.242c1.082 2.493 2.289 6.568 3.615 12.229 1.191 5.146 1.787 8.343 1.787 9.588v5.648zM392.505 166.904c0 1.271-.184 2.708-.549 4.307-.365 1.598-.859 3.384-1.482 5.362-.678 2.167-1.416 4.091-2.215 5.769a74 74 0 0 1-2.418 4.672c-.514.705-1.055 1.26-1.625 1.666-.568.406-1.326.664-2.275.772a36.064 36.064 0 0 1-3.492.162c-2.248 0-3.373-.147-3.373-.446 0-.218.23-.516.691-.895 4.359-4.225 8.016-9.357 10.969-15.397 1.57-3.223 2.357-5.457 2.357-6.703-.219-.867-.57-1.849-1.057-2.945a33.637 33.637 0 0 0-1.707-3.311 44.273 44.273 0 0 0-2.051-3.189 30.752 30.752 0 0 0-2.012-2.58l4.754-7.109a65.761 65.761 0 0 1 2.518 4.143c.705 1.274 1.273 2.547 1.707 3.82s.752 2.606.955 4.001c.203 1.396.305 2.96.305 4.692v3.209zM406.399 166.823l-5.242 3.088v-3.738c0-4.036-.447-10.062-1.34-18.079-1.002-9.181-2.221-17.415-3.656-24.701l5.402-6.012c3.223 18.931 4.836 35.413 4.836 49.442M423.989 135.662l-5.729 5.728-5.729-5.728 5.729-5.769 5.729 5.769zm2.073 31.242c0 1.271-.184 2.708-.549 4.307-.365 1.598-.859 3.384-1.482 5.362-.678 2.167-1.416 4.091-2.215 5.769a74 74 0 0 1-2.418 4.672c-.514.705-1.055 1.26-1.625 1.666-.568.406-1.326.664-2.275.772a36.064 36.064 0 0 1-3.492.162c-2.248 0-3.373-.147-3.373-.446 0-.218.23-.516.691-.895 4.359-4.225 8.016-9.357 10.969-15.397 1.57-3.223 2.357-5.457 2.357-6.703-.219-.867-.57-1.849-1.057-2.945a33.637 33.637 0 0 0-1.707-3.311 43.614 43.614 0 0 0-2.053-3.189 30.354 30.354 0 0 0-2.01-2.58l4.754-7.109a65.761 65.761 0 0 1 2.518 4.143c.705 1.274 1.273 2.547 1.707 3.82s.752 2.606.955 4.001c.201 1.396.305 2.96.305 4.692v3.209zM447.472 159.673c-.758-2.383-1.631-4.227-2.619-5.526-.99-1.299-2.066-1.95-3.23-1.95-.596 0-1.164.184-1.707.55a6.028 6.028 0 0 0-1.422 1.341 6.498 6.498 0 0 0-.955 1.727c-.23.623-.346 1.192-.346 1.706 0 .595.129 1.07.387 1.421.258.354.609.617 1.057.792.447.178.969.292 1.564.347s1.244.081 1.949.081c1.164 0 2.207-.04 3.127-.122.921-.083 1.654-.205 2.195-.367m5.16 5.038c0 2.354-.271 4.631-.812 6.825a32.909 32.909 0 0 1-2.275 6.337c-1.029 2.113-2.105 3.982-3.23 5.607a31.668 31.668 0 0 1-3.635 4.387 7.02 7.02 0 0 1-2.5 1.605c-.961.365-2.16.549-3.594.549-.164 0-.598-.015-1.301-.041a35.473 35.473 0 0 1-2.256-.164c-.799-.08-1.516-.182-2.152-.304s-.955-.278-.955-.467c0-.217.271-.461.812-.731 2.086-1.084 4.205-2.525 6.359-4.328 2.152-1.799 4.367-4.096 6.643-6.885 1.406-1.733 2.523-3.393 3.352-4.977.824-1.585 1.238-3.015 1.238-4.286v-.936c-.785.19-1.707.331-2.762.428-1.057.095-2.385.142-3.982.142-1.164 0-2.248-.074-3.25-.223-1.002-.149-1.875-.435-2.621-.854-.744-.421-1.326-1.029-1.746-1.829-.42-.798-.629-1.848-.629-3.147s.188-2.736.566-4.308c.379-1.569 1.043-3.25 1.992-5.037 1.137-2.139 2.402-3.805 3.799-4.997 1.395-1.191 2.713-1.787 3.959-1.787 1.111 0 2.107.332 2.988.995.879.664 1.65 1.529 2.314 2.601.664 1.07 1.232 2.295 1.707 3.677.475 1.38.854 2.796 1.137 4.245.285 1.449.494 2.857.631 4.226.134 1.366.203 2.594.203 3.677M196.096 261.905l-5.77 5.769-5.729-5.769 5.729-5.729 5.77 5.729zm-11.903 0l-5.728 5.769-5.729-5.769 5.729-5.729 5.728 5.729zm12.919-18.688h-1.098c-.135-2.031-.785-4.632-1.949-7.8-1.706-4.604-3.711-6.907-6.014-6.907-1.732 0-3.765.772-6.092 2.316-2.33 1.543-3.494 2.844-3.494 3.899 0 .65.635 1.341 1.908 2.072l4.428 2.599c2.545 1.491 3.819 2.954 3.819 4.389 0 1.002-.501 2.005-1.503 3.007-1.599 1.598-4.443 3.398-8.531 5.404-5.634 2.788-10.889 4.184-15.764 4.184-7.882 0-11.822-3.914-11.822-11.741 0-3.061 1.069-6.608 3.21-10.645 1.895-3.548 3.128-5.321 3.696-5.321.217 0 .339.121.366.365-.081-.026-.637 1.368-1.666 4.185-1.11 3.033-1.666 5.473-1.666 7.312 0 5.661 3.264 8.49 9.791 8.49 4.794 0 9.006-.567 12.636-1.704 2.896-.922 4.348-1.681 4.348-2.276 0-.055-1.539-.974-4.612-2.763-3.074-1.787-4.611-3.534-4.611-5.24 0-2.681 2.031-5.904 6.095-9.67 4.17-3.844 7.881-5.769 11.131-5.769 2.465 0 4.348 2.072 5.647 6.217 1.164 3.655 1.747 8.396 1.747 14.219v1.178z"/><path fill="#DBD500" d="M197.68 243.217c-1.732 0-2.6-.744-2.6-2.234v-3.169c0-1.544.867-2.315 2.6-2.315h18.607v7.068c0 .434-.23.65-.69.65H197.68z"/><path fill="#DBD500" d="M216.043 243.217c-1.732 0-2.6-.744-2.6-2.234v-3.169c0-1.544.867-2.315 2.6-2.315h25.555c.432 0 .649-.203.649-.609 0-.217-.853-1.273-2.56-3.169-1.922-2.14-3.846-4.049-5.769-5.729-4.063-3.548-7.272-5.932-9.628-7.15-.082.786-.34 1.179-.771 1.179-.354 0-1.166-.786-2.438-2.356-1.354-1.68-2.031-3.033-2.031-4.063 0-2.383.744-4.211 2.234-5.484 2.655-2.274 6.446-5.104 11.375-8.49 5.661-3.9 10.821-7.123 15.479-9.67l-1.666 7.76c-2.763 1.625-6.73 4.158-11.904 7.598-5.741 3.846-8.612 5.972-8.612 6.378 0 .081 1.179.922 3.535 2.519 3.168 2.113 6.229 4.768 9.181 7.963 2.059 2.222 4.165 4.903 6.316 8.045 2.154 3.142 3.231 5.118 3.231 5.93v4.389c0 1.788-.854 2.682-2.56 2.682h-29.616z"/><path fill="#DBD500" d="M276.25 255.933l-5.768 5.77-5.729-5.77 5.729-5.729 5.768 5.729zm-11.902 0l-5.729 5.77-5.729-5.77 5.729-5.729 5.729 5.729zm-16.373-12.716c-1.732 0-2.6-.744-2.6-2.234v-3.169c0-1.544.867-2.315 2.6-2.315h21.938c.625 0 .936-.258.936-.772 0-2.058-1.584-5.389-4.753-9.994l5.81-6.378c1.084 1.625 2.256 4.639 3.514 9.039 1.26 4.401 1.89 7.563 1.89 9.486v3.088c0 2.167-1.327 3.25-3.981 3.25h-25.354z"/><path fill="#DBD500" d="M301.522 230.176c-.219-1.869-.576-3.582-1.078-5.14-.5-1.557-1.076-2.904-1.727-4.042s-1.326-2.024-2.031-2.661c-.705-.636-1.381-.955-2.031-.955-.596 0-1.178.137-1.746.406a5.927 5.927 0 0 0-1.523 1.037c-.447.42-.812.887-1.098 1.401-.285.516-.426 1.016-.426 1.503 0 .623.256 1.226.771 1.808.514.583 1.172 1.138 1.971 1.666s1.666 1.029 2.6 1.503c.934.475 1.828.921 2.682 1.341s1.598.82 2.234 1.198c.637.38 1.049.731 1.238 1.057l.164-.122zm-3.779-29.576l-5.729 5.729-5.77-5.729 5.77-5.769 5.729 5.769zm-20.679 42.617c-1.731 0-2.601-.744-2.601-2.234v-3.169c0-1.544.869-2.315 2.601-2.315H298.8l.121-.244c-.244-.351-.744-.683-1.504-.995a45.579 45.579 0 0 0-2.639-.976c-1.004-.337-2.059-.724-3.17-1.157s-2.127-.948-3.047-1.544c-.922-.595-1.68-1.307-2.275-2.133s-.893-1.808-.893-2.945c0-.65.074-1.382.223-2.194s.379-1.651.691-2.519a21.24 21.24 0 0 1 1.178-2.661 19.54 19.54 0 0 1 1.645-2.62c2.547-3.359 4.875-5.038 6.988-5.038 1.652 0 3.094.792 4.326 2.377 1.232 1.584 2.322 4.042 3.271 7.374.379 1.299.684 2.62.914 3.961.229 1.341.412 2.675.549 4.001.135 1.328.223 2.628.264 3.9.041 1.273.061 2.479.061 3.616v5.12c0 1.597-1.029 2.396-3.088 2.396h-25.351zM318.991 243.136l-5.24 3.088v-3.738c0-4.035-.447-10.062-1.342-18.078-1.002-9.182-2.221-17.415-3.656-24.701l5.404-6.013c3.223 18.931 4.834 35.412 4.834 49.442M337.841 243.217c0 1.272-.182 2.708-.547 4.307a70.633 70.633 0 0 1-1.484 5.362c-.678 2.167-1.416 4.09-2.213 5.77a75.636 75.636 0 0 1-2.418 4.672c-.516.704-1.057 1.259-1.625 1.665s-1.328.664-2.275.772a36.064 36.064 0 0 1-3.494.162c-2.248 0-3.371-.147-3.371-.447 0-.217.229-.515.689-.894 4.361-4.224 8.018-9.357 10.971-15.397 1.57-3.223 2.355-5.457 2.355-6.702-.217-.867-.568-1.85-1.057-2.946a33.61 33.61 0 0 0-1.705-3.311c-.65-1.11-1.336-2.174-2.053-3.189s-1.389-1.875-2.01-2.58l4.752-7.109a66.524 66.524 0 0 1 2.52 4.144 23.6 23.6 0 0 1 1.705 3.819c.434 1.273.752 2.606.955 4.001.203 1.396.305 2.96.305 4.692v3.209z"/><path fill="#DBD500" d="M362.462 250.773l-5.729 5.769-5.729-5.769 5.729-5.729 5.729 5.729zm.121-20.678c-.516-.136-1.084-.42-1.707-.854a27.064 27.064 0 0 1-1.949-1.503 359.361 359.361 0 0 1-2.113-1.788c-.73-.622-1.463-1.198-2.193-1.727s-1.463-.961-2.193-1.3c-.732-.338-1.422-.508-2.074-.508-1.922 0-3.451.921-4.59 2.763-.623.948-1.016 1.422-1.178 1.422-.217 0-.324-.135-.324-.406 0-.623.143-1.408.426-2.356.285-.947.779-2.072 1.482-3.372.922-1.706 1.936-2.992 3.047-3.859 1.111-.865 2.262-1.3 3.455-1.3.92 0 1.854.223 2.803.67.947.447 1.908 1.036 2.885 1.768a38.596 38.596 0 0 1 2.984 2.498c1.018.935 2.066 1.869 3.15 2.804a63.375 63.375 0 0 0 3.352 2.701 23.04 23.04 0 0 0 3.594 2.234c3.252 1.625 5.309 2.438 6.176 2.438v7.23a37.06 37.06 0 0 0-3.432-.487 43.323 43.323 0 0 0-4.328-.203c-2.111 0-4.271.048-6.479.143a84.943 84.943 0 0 0-6.643.548 71.232 71.232 0 0 0-6.582 1.118 52.27 52.27 0 0 0-6.34 1.808c-2.029.731-3.525 1.354-4.488 1.869-.961.515-1.508.771-1.645.771-1.002 0-1.504-.474-1.504-1.422v-5.565a38.251 38.251 0 0 1 6.562-2.926 54.927 54.927 0 0 1 6.947-1.868c2.314-.461 4.576-.786 6.783-.976s4.246-.284 6.115-.284v-.081z"/><path fill="#DBD500" d="M377.37 243.217c-1.732 0-2.6-.744-2.6-2.234v-3.169c0-1.544.867-2.315 2.6-2.315h11.295c1.002 0 1.504-.447 1.504-1.341 0-6.663-1.49-18.174-4.469-34.532l5.322-5.932c.92 4.171 1.963 11.659 3.127 22.466 1.057 10.185 1.584 16.956 1.584 20.313v4.266c0 1.652-.879 2.479-2.641 2.479H377.37zM410.036 243.136l-5.242 3.088v-3.738c0-4.035-.447-10.062-1.34-18.078-1.002-9.182-2.221-17.415-3.656-24.701l5.402-6.013c3.223 18.931 4.836 35.412 4.836 49.442"/></svg>