<svg xmlns="http://www.w3.org/2000/svg" width="562.049" height="367.055"><path fill="#0080FF" d="M280.992 346.83l-.604-.191c-1.527-.487-153.349-48.757-206.487-54.939-42.349-4.926-43.222-37.63-43.226-37.96v-140.4c.004-.354.877-33.059 43.226-37.985 53.139-6.182 204.96-54.452 206.487-54.938l.603-.192.608.174c1.527.437 153.377 43.733 206.547 49.919 42.349 4.927 43.223 37.631 43.227 37.961v150.472c-.004.354-.878 33.06-43.227 37.985-53.17 6.187-205.02 49.483-206.547 49.92l-.607.174zm.066-322.237C270.477 27.948 126.207 73.481 74.385 79.51 35.793 84 34.879 112.173 34.858 113.37v140.345c.021 1.167.935 29.341 39.526 33.83 51.822 6.028 196.092 51.562 206.673 54.917 10.611-3.018 154.82-43.855 206.606-49.88 38.733-4.506 39.522-33.562 39.526-33.855l-.001-150.423c-.02-1.167-.934-29.34-39.525-33.83-51.785-6.026-195.994-46.863-206.605-49.881z"/><path fill="#0080FF" d="M176.018 126.834c.531-1.396.996-2.726.996-4.121v-.066h11.498v.199c-1.595.466-2.06 2.393-2.06 3.923l4.385 32.634c.399 3.123.733 4.916 3.39 6.779v.198H181.4v-.198c2.324-.733 2.724-2.727 2.724-4.986l-3.789-32.037-14.888 38.085c-3.323-2.527-4.253-4.32-5.85-8.043l-12.628-29.974-3.79 28.581c-.53 4.054-.996 6.978 2.128 8.374v.198h-10.834v-.198c2.793-2.461 3.189-5.717 3.722-9.306l3.79-27.849c.265-1.861.996-4.519-2.062-6.182v-.199h11.631v.066c0 1.064.533 2.061.933 2.991l12.494 29.311 11.037-28.18zM201.822 131.819c-2.459 0-4.32-1.926-4.32-4.387 0-2.326 2.125-3.92 4.32-3.92 2.26 0 3.986 1.926 3.986 4.12.002 2.192-1.726 4.187-3.986 4.187m-1.262 3.988c1.528 0 3.19-.065 4.321-1.062h.199v24.259c0 3.059-.399 5.517 2.525 7.179v.199h-11.102v-.199c2.926-1.661 2.527-4.12 2.527-7.179v-15.885c0-3.058.399-5.45-2.527-7.112v-.2h4.057zM214.789 135.807c1.461 0 3.056-.065 4.451-.863h.2v5.117c2.326-3.189 5.052-5.117 9.372-5.117 3.721 0 7.975 1.464 10.102 4.587 1.861 2.658 1.662 6.778 1.662 9.902v9.637c0 3.058-.399 5.451 2.524 7.113v.198h-11.099v-.198c2.925-1.662 2.525-4.121 2.525-7.113v-8.973c0-7.112-1.994-10.767-8.042-10.767-6.047 0-7.045 4.055-7.045 7.975v11.765c0 3.058-.399 5.451 2.525 7.113v.198h-11.099v-.198c2.924-1.662 2.525-4.121 2.525-7.18v-15.819c0-3.057.398-5.516-2.525-7.178v-.2l3.924.001zM251.494 131.819c-2.459 0-4.32-1.926-4.32-4.387 0-2.326 2.127-3.92 4.32-3.92 2.262 0 3.988 1.926 3.988 4.12 0 2.192-1.726 4.187-3.988 4.187m-1.263 3.988c1.528 0 3.19-.065 4.321-1.062h.199v24.259c0 3.059-.399 5.517 2.526 7.179v.199h-11.103v-.199c2.926-1.661 2.526-4.12 2.526-7.179v-15.885c0-3.058.4-5.45-2.526-7.112v-.2h4.057zM281.671 141.457c-2.46-1.329-5.251-2.126-8.177-2.126-2.192 0-6.182.532-6.182 3.19 0 5.914 18.013 3.788 18.013 14.357 0 6.182-6.313 10.368-14.889 10.368-2.991 0-5.851-.466-8.639-1.595l-2.328-6.513c3.854 2.459 7.909 3.722 12.495 3.722 2.726 0 7.312-.931 7.312-4.321 0-6.714-18.012-4.587-18.012-14.689 0-7.045 7.31-8.906 13.026-8.906 2.459 0 4.984.2 7.379.863l.002 5.65zM296.648 153.486c0 2.526-.795 9.372 6.316 9.372.931 0 1.795-.332 2.658-.666l-3.523 4.72a7.509 7.509 0 0 1-2.128.331c-10.302 0-9.371-10.634-9.371-13.225v-13.826h-4.519v-2.393c6.246-1.062 7.908-5.715 7.908-11.895h2.658v9.901h6.248c.865 0 1.861 0 2.526-.397h.2v6.047h-.2c-1.064-1.396-3.058-1.264-4.786-1.264h-3.988v13.295zM312.507 135.807c1.529 0 3.123-.065 4.054-.863h.201v5.052c1.462-2.991 4.52-5.052 7.841-5.052l2.394.2v6.115c-.731-.798-1.929-1.064-3.059-1.064-5.051 0-7.178 2.659-7.178 9.504v9.306c0 3.059-.398 5.517 2.528 7.179v.199h-11.102v-.199c2.925-1.662 2.525-4.12 2.525-7.179V143.12c0-3.058.399-5.45-2.46-7.112v-.2l4.256-.001zM353.739 143.583c.998-2.591 2.526-6.114-.662-7.576v-.2h9.303l-13.824 32.967c-3.588 8.574-8.242 11.1-14.489 11.1-2.858 0-5.318-.666-7.911-1.661l5.982-4.319c1.13.73 2.327 1.594 3.722 1.594 4.651 0 6.646-4.983 8.043-8.64l.398-1.063-.264-.333c-2.194-2.193-2.194-2.524-3.456-5.317l-8.111-17.679c-1.328-2.923-2.124-5.251-5.316-6.447v-.2h5.649c2.46 0 3.722.997 4.453 2.659l9.771 21.999 6.712-16.884zM403.453 152.158c0-6.448-3.456-12.829-10.568-12.829-6.183 0-10.168 4.851-10.168 10.834 0 6.116 3.655 12.695 10.434 12.695 6.116.001 10.302-4.719 10.302-10.7m-27.45-.798c0-9.969 8.041-16.417 17.612-16.417 4.253 0 7.91 1.129 11.101 3.921 3.389 2.991 5.449 7.377 5.449 11.897 0 9.57-7.976 16.483-17.347 16.483-9.104.001-16.815-6.445-16.815-15.884M421.192 156.744c0 3.258-.4 7.709 2.856 9.438v.199h-11.431v-.199c2.923-1.662 2.525-4.12 2.525-7.112v-18.876h-3.324l3.324-4.387v-1.595c0-3.721-.132-5.782 2.461-8.706 3.057-3.457 7.441-4.253 11.828-4.253l4.52.399-4.653 5.118c-1.128-.733-2.059-1.13-3.389-1.13-3.919 0-4.718 1.86-4.718 5.781v4.387h7.712l1.126-.398h.202v5.849h-.202c-.529-.864-1.393-1.064-2.458-1.064h-6.38v16.549zM110.795 194.16h-.198c-2.728-3.06-7.776-3.987-11.832-3.987-10.368 0-18.278 6.779-18.278 17.48 0 10.7 8.507 18.81 19.01 18.81 3.058 0 6.247-.399 9.24-1.264v-9.571c0-3.057-.067-6.312-3.059-7.51v-.198h10.169v.198c-.333.798-.333 1.86-.333 2.858v15.286c0 .996-.065 2.062.333 2.991-5.317.997-10.501 1.994-15.886 1.994-17.014 0-27.051-9.304-27.051-22.663 0-14.29 11.365-23.197 27.449-23.197 3.523 0 6.979.399 10.435 1.129l.001 7.644zM123.729 199.608c1.529 0 3.124-.063 4.054-.862h.2v5.053c1.463-2.992 4.52-5.053 7.842-5.053l2.393.201v6.113c-.729-.797-1.928-1.062-3.058-1.062-5.051 0-7.178 2.658-7.178 9.503v9.306c0 3.06-.399 5.518 2.525 7.181v.197h-11.1v-.197c2.925-1.663 2.526-4.121 2.526-7.181v-15.885c0-3.059.399-5.452-2.459-7.113v-.2h4.255zM166.152 231.049c-4.387-.267-8.774-1.596-8.774-6.913v-10.503c-1.926.998-4.186 1.53-6.381 2.062-3.188.731-6.779 1.462-6.779 5.517 0 4.121 3.723 5.449 7.244 5.449 1.596 0 3.191-.466 4.786-.93l-3.92 4.984c-1.129.199-2.326.332-3.457.332-6.712 0-11.365-4.254-11.365-9.771 0-12.362 19.873-6.646 19.873-13.89 0-3.191-3.921-4.255-6.381-4.255-3.39 0-6.046 1.264-9.039 2.657l4.454-6.646 4.319-.399c7.179 0 12.628 2.062 12.695 10.104v9.969c0 5.25.135 7.244 5.65 7.842l-2.925 4.391zM173.953 199.608c1.461 0 3.057-.133 3.986-.862h.2v4.721c2.259-3.125 7.178-4.721 10.899-4.721 9.239 0 15.221 7.112 15.221 15.818 0 9.238-6.715 16.484-16.019 16.484-1.728 0-3.389-.267-4.919-.864l-3.588-5.45c2.325 1.131 4.719 1.928 7.244 1.928 7.046 0 10.566-4.72 10.566-11.365 0-6.183-3.321-11.898-10.166-11.898-2.793 0-5.518 1.131-7.379 3.191-1.928 2.059-1.86 4.453-1.86 7.111v22.798c0 3.057-.399 5.449 2.524 7.112v.197h-11.099v-.197c2.924-1.661 2.526-4.056 2.526-7.112v-29.577c0-3.059.398-5.516-2.526-7.113v-.2h4.39zM211.178 186.451c1.528 0 3.124 0 4.053-1.064h.201v17.547c1.995-2.858 6.514-4.188 9.771-4.188 9.172 0 11.366 5.517 11.366 11.965v12.095c0 3.06-.399 5.517 2.524 7.18v.199h-11.032v-.199c2.922-1.661 2.459-4.12 2.459-7.18v-10.102c0-5.384-1.728-9.571-7.442-9.571-5.851 0-7.646 3.257-7.646 9.173v10.5c0 3.06-.398 5.517 2.525 7.18v.199h-11.1v-.199c2.926-1.661 2.526-4.12 2.526-7.18v-28.977c0-3.059.4-5.517-2.526-7.18v-.198h4.321zM247.485 195.622c-2.46 0-4.319-1.927-4.319-4.388 0-2.324 2.125-3.92 4.319-3.92 2.259 0 3.987 1.928 3.987 4.121.001 2.192-1.728 4.187-3.987 4.187m-1.262 3.986c1.527 0 3.189-.063 4.32-1.062h.199v24.259c0 3.06-.399 5.518 2.525 7.181v.197h-11.1v-.197c2.924-1.662 2.525-4.121 2.525-7.181v-15.884c0-3.059.399-5.452-2.525-7.113v-.2h4.056zM281.927 206.39h-.199c-1.927-2.194-5.118-3.258-8.109-3.258-6.448 0-11.099 4.52-11.099 10.835 0 7.645 6.447 12.693 13.824 12.693 3.39 0 7.112-1.329 9.705-3.258h.199l-3.456 6.315c-2.791 1.062-5.85 1.329-8.772 1.329-10.235 0-18.213-6.713-18.213-15.353 0-11.432 8.908-16.951 18.943-16.951 2.393 0 4.852.268 7.179.799v6.848h-.002zM308.977 224.934c1.597.331 3.191.464 4.854.464 9.899 0 18.741-5.182 18.741-16.68 0-11.634-6.512-17.483-17.613-17.483-1.993 0-3.986.266-5.981.731v32.968zm-6.781-29.378c0-3.059.467-7.91-2.924-8.906v-.198h16.284c15.154 0 24.591 8.241 24.591 21.467 0 13.093-10.036 22.266-24.925 22.266h-15.95v-.199c3.322-2.261 2.924-5.451 2.924-9.37v-25.06zM367.763 209.978c-.731-4.651-3.79-6.846-8.574-6.846-4.453 0-7.776 2.658-8.573 6.846h17.147zm-17.414 3.855c.134 8.109 5.783 12.828 13.293 12.828 3.986 0 7.841-1.13 10.899-3.522h.2l-3.323 6.248c-2.858 1.196-6.05 1.66-9.173 1.66-11.298 0-19.073-7.111-19.073-16.349s6.712-15.953 16.615-15.953c9.039 0 15.219 6.513 14.954 15.088h-24.392zM399.099 205.26c-2.46-1.328-5.25-2.127-8.178-2.127-2.192 0-6.182.533-6.182 3.19 0 5.913 18.015 3.788 18.015 14.357 0 6.181-6.313 10.368-14.89 10.368-2.992 0-5.849-.465-8.64-1.596l-2.327-6.514c3.855 2.46 7.91 3.722 12.496 3.722 2.724 0 7.311-.93 7.311-4.32 0-6.712-18.012-4.587-18.012-14.689 0-7.045 7.31-8.905 13.026-8.905 2.46 0 4.985.2 7.378.862v5.651h.003zM410.362 195.622c-2.46 0-4.322-1.927-4.322-4.388 0-2.324 2.129-3.92 4.322-3.92 2.26 0 3.986 1.928 3.986 4.121.001 2.192-1.726 4.187-3.986 4.187m-1.263 3.986c1.53 0 3.191-.063 4.321-1.062h.2v24.259c0 3.06-.4 5.518 2.525 7.181v.197h-11.101v-.197c2.924-1.662 2.524-4.121 2.524-7.181v-15.884c0-3.059.401-5.452-2.524-7.113v-.2h4.055zM435.213 216.958c3.987 0 6.913-2.594 6.913-6.447 0-4.256-3.588-7.38-8.309-7.38-3.654 0-6.777 1.994-6.777 5.851-.002 4.321 3.854 7.976 8.173 7.976m19.407-18.212l-1.529 3.456c-.53 1.196-.663 1.595-2.127 1.595-2.325 0-4.585-.532-6.845-.863 2.793 1.793 4.72 4.653 4.72 8.043 0 7.509-8.109 9.836-14.159 10.369-.929.064-2.726.663-2.726 1.793 0 1.464 3.125 1.264 3.989 1.264 11.497 0 17.612 3.123 17.612 9.704 0 7.511-8.309 11.696-18.676 11.696-9.771 0-18.411-3.788-18.411-9.438 0-3.722 2.991-5.384 6.38-5.384 1.397 0 2.526.265 3.79.863-1.662.332-2.525 1.265-2.525 2.99 0 5.584 6.646 6.58 10.966 6.58 4.387 0 11.765-1.264 11.765-6.845 0-5.848-9.505-6.182-13.558-6.182l-4.587.134c-2.923.065-4.853-2.326-4.853-4.719 0-1.928 3.854-2.857 5.25-3.524-4.785-.929-8.773-5.249-8.773-10.235 0-7.708 7.445-11.299 14.291-11.299l20.006.002zM460.826 199.608c1.46 0 3.056-.063 4.451-.862h.201v5.118c2.325-3.19 5.05-5.118 9.372-5.118 3.72 0 7.975 1.464 10.102 4.588 1.86 2.657 1.661 6.777 1.661 9.899v9.639c0 3.059-.398 5.451 2.524 7.112v.198h-11.1v-.198c2.925-1.661 2.528-4.119 2.528-7.112v-8.973c0-7.111-1.996-10.768-8.043-10.768-6.048 0-7.045 4.055-7.045 7.975v11.766c0 3.059-.399 5.451 2.524 7.112v.198h-11.099v-.198c2.924-1.661 2.526-4.119 2.526-7.179v-15.818c0-3.057.397-5.518-2.526-7.179v-.2h3.924z"/></svg>