<?xml version="1.0" encoding="utf-8"?>
<!-- Generator: Adobe Illustrator 16.0.4, SVG Export Plug-In . SVG Version: 6.00 Build 0)  -->
<!DOCTYPE svg PUBLIC "-//W3C//DTD SVG 1.1//EN" "http://www.w3.org/Graphics/SVG/1.1/DTD/svg11.dtd">
<svg version="1.1" id="Layer_1" xmlns="http://www.w3.org/2000/svg" xmlns:xlink="http://www.w3.org/1999/xlink" x="0px" y="0px"
	 width="589.8px" height="311.367px" viewBox="0 0 589.8 311.367" enable-background="new 0 0 589.8 311.367" xml:space="preserve">
<path fill="#EBF400" d="M589.326,88.766c-23.93-35.848-81.684-36.26-84.131-36.26c-40.146,0-70.713-12.562-103.074-25.861
	C370.248,13.545,337.289,0,294.901,0S219.554,13.545,187.68,26.645c-32.36,13.299-62.926,25.861-103.073,25.861
	c-0.61,0-15.154,0.052-32.813,4.46c-23.622,5.898-41.367,16.893-51.318,31.8L0,89.478V221.89l0.476,0.711
	c23.931,35.848,81.685,36.26,84.132,36.26c40.147,0,70.713,12.562,103.073,25.861c31.874,13.1,64.833,26.645,107.221,26.645
	c42.389,0,75.348-13.545,107.221-26.645c32.361-13.299,62.928-25.861,103.074-25.861c0.609,0,15.152-0.051,32.811-4.459
	c23.623-5.896,41.369-16.895,51.318-31.801l0.475-0.711V89.478L589.326,88.766z M584.148,220.164
	c-22.562,32.623-78.389,33.045-78.953,33.045c-41.262,0-73.777,13.363-105.223,26.287c-31.365,12.889-63.799,26.219-105.072,26.219
	c-41.272,0-73.706-13.33-105.071-26.219c-31.445-12.925-63.96-26.287-105.223-26.287c-0.564,0-56.367-0.379-78.955-33.045V91.203
	c22.563-32.622,78.391-33.046,78.955-33.046c41.263,0,73.777-13.362,105.223-26.285c31.365-12.891,63.799-26.22,105.071-26.22
	c41.273,0,73.707,13.329,105.072,26.22c31.445,12.923,63.961,26.285,105.223,26.285c0.564,0,56.367,0.379,78.953,33.046V220.164z"/>
<path fill="#EBF400" d="M278.958,171.355c-3.349,0-6.849,2.129-10.497,6.381c-3.319,3.893-4.978,6.985-4.978,9.277
	c0,1.78,1.025,3.304,3.077,4.57c1.811,1.146,3.649,1.719,5.521,1.719c2.987,0,5.279-0.708,6.878-2.127
	c1.146-1.325,1.916-2.247,2.308-2.761l0.271-0.407l0.542,0.315c1.115,3.198,1.991,6.187,2.624,8.961h-30.225
	c-1.449,0-2.716-0.514-3.801-1.537c-1.177-1.057-1.66-2.31-1.449-3.757c0.905-6.787,1.176-10.18,0.815-10.18
	c-0.362,0-2.217,2.201-5.565,6.604c-0.123,4.555-0.423,7.421-0.906,8.599l-0.181,0.271h-20.315l-22.444-21.312
	c12.79-3.38,19.985-5.295,21.584-5.746l1.946-8.599c-10.378,2.955-18.991,5.551-25.837,7.782c-0.996,2.324-1.833,4.736-2.512,7.24
	c-0.679,2.505-1.14,3.981-1.38,4.433l16.516,15.204c0.059,0.665-0.257,0.997-0.95,0.997h-38.372
	c-1.629,1.872-3.425,5.173-5.385,9.908c0.634,0,1.84,0.092,3.62,0.273l2.715,0.316c4.434,0,7.676,1.915,9.728,5.746l-0.588,0.092
	c-2.927,0.843-5.114,1.494-6.56,1.945c-4.164,1.115-8.117,1.536-11.856,1.267c-3.106-0.211-6.048-1.103-8.823-2.67
	c-3.379-1.931-5.068-4.435-5.068-7.512c0-2.563,1.356-5.768,4.073-9.615c2.714-3.846,4.071-5.708,4.071-5.589
	c0-0.271-0.15-0.408-0.453-0.408c-0.664,0.032-1.9,1.06-3.709,3.08c-2.233,2.413-4.208,5.233-5.927,8.461
	c-2.082,3.86-3.168,7.313-3.257,10.36c-0.092,4.103,1.612,7.227,5.111,9.368c2.897,1.81,6.501,2.715,10.814,2.715
	c6.185,0,12.956-1.645,20.318-4.933c1.599-0.936,3.575-3.499,5.928-7.691c1.176-2.082,2.156-4.027,2.94-5.838h19.502
	c2.082-2.896,3.74-5.249,4.978-7.059c3.711,3.771,6.033,6.124,6.968,7.059h20.317l3.395-6.109c1.236,4.072,3.498,6.109,6.787,6.109
	h36.381c0.33-1.145,0.769-3.498,1.311-7.059c0.483-3.258,0.725-5.173,0.725-5.748c0-3.647-0.936-8.024-2.806-13.122
	C284.584,174.449,281.945,171.355,278.958,171.355z M276.921,184.976c-1.357,0.181-2.503,0.151-3.438-0.093
	c-1.69-0.812-2.986-1.582-3.893-2.307l-0.452-0.407l0.273-0.451c1.719-1.902,3.137-2.851,4.252-2.851c1.719,0,3.695,1.6,5.927,4.796
	l0.633,0.95h-1.086C279.44,184.614,278.702,184.736,276.921,184.976z M275.157,163.753l-6.108-5.474l-5.928,5.565l6.018,5.203
	L275.157,163.753z M161.536,233.167l-5.836-3.712l-4.344,4.162l6.018,3.982l4.072-3.801l5.656,3.801l4.435-4.163l-6.019-4.071
	L161.536,233.167z M243.12,217.194c-1.085,1.175-1.734,1.764-1.946,1.764c-0.513,0-1.553-0.505-3.121-1.516
	c-1.569-1.011-2.55-1.772-2.941-2.285c-2.022,2.474-3.621,4.36-4.796,5.657c1.568,1.599,3.786,2.925,6.652,3.981
	c1.236-1.359,2.413-2.58,3.529-3.666c1.449,0.875,2.534,1.523,3.257,1.944c2.173,1.3,3.288,1.948,3.35,1.948
	c0.482,0,2.11-1.948,4.886-5.838l-6.742-4.205C245.066,215.126,244.356,215.867,243.12,217.194z M377.039,220
	c-0.242,0-1.447-0.664-3.619-1.993c-2.172-1.326-3.303-1.988-3.395-1.988c-0.301,0-1.32,0.873-3.054,2.624
	c-1.735,1.747-2.603,2.761-2.603,3.03c0,0.421,2.338,1.84,7.015,4.255c0.391,0,1.726-0.988,4.005-2.964
	C377.667,220.986,378.217,220,377.039,220z M411.701,160.225c-1.177,1.357-3.154,4.781-5.93,10.271
	c1.238,0.996,2.294,1.839,3.169,2.533c0,1.869,0.648,5.452,1.945,10.746c1.297,5.296,1.946,9.18,1.946,11.652
	c0,0.996-0.122,1.614-0.363,1.855H395.32c0.905-2.837,1.705-5.338,2.398-7.513c-3.319,0-7.948-0.797-13.893-2.396
	c-1.689-0.454-5.218-1.961-10.588-4.524c-3.168-1.54-6.064-2.307-8.688-2.307c-2.383,0-4.646,1.099-6.786,3.3
	c-1.479,1.541-2.746,3.305-3.801,5.296c-0.967,1.839-1.329,2.761-1.089,2.761c0.877,0,2.075-0.43,3.599-1.289
	c1.523-0.862,2.693-1.321,3.508-1.381c0.934-0.061,3.288,0.558,7.058,1.854c3.138,1.056,5.294,1.855,6.47,2.398
	c0,0.392-1.327,1.103-3.979,2.126c-2.838,1.119-5.145,1.675-6.925,1.675h-20.226c-2.265,0-4.495-1.537-6.696-4.617
	c-2.175-3.225-3.801-5.637-4.888-7.237c-1.991,3.348-3.606,6.092-4.843,8.234c0.875,0.997,1.991,2.458,3.349,4.391
	c1.659,2.322,2.489,3.86,2.489,4.613c0,2.748-3.137,6.517-9.413,11.314c-4.613,3.53-8.445,5.292-11.493,5.292
	c-1.206,0-2.888-0.468-5.045-1.402c-2.156-0.935-3.417-1.401-3.777-1.401c-0.363,0-0.545,0.21-0.545,0.631
	c0,1.027,2.687,2.672,8.057,4.934c5.158,2.172,8.549,3.258,10.181,3.258c3.588,0,7.269-2.623,11.041-7.872
	c3.406-4.735,5.354-9.037,5.837-12.897c1.085,1.449,2.352,2.157,3.799,2.127l3.351-0.09h17.059c1.749,0,4.668-1.207,8.757-3.62
	c4.087-2.412,7.005-3.619,8.755-3.619c5.79,0,9.382,0.089,10.768,0.27l0.997,6.97h23.257c1.901,0,2.896-0.349,2.986-1.042
	c0.545-2.351,0.937-4.102,1.177-5.249c0.663-2.863,0.921-4.931,0.77-6.197c-1.175-8.599-1.764-13.485-1.764-14.66
	c4.011-5.371,6.198-8.281,6.561-8.734v-0.093c-3.892-2.2-7.134-4.146-9.729-5.835C412.257,163.904,411.701,162.397,411.701,160.225z
	 M307.636,192.85c0-11.436-0.8-21.752-2.397-30.949c-4.194,6.483-6.29,10.165-6.29,11.037l4.074,35.93
	C306.097,204.675,307.636,199.334,307.636,192.85z M433.456,172.938l4.071,35.93c3.079-4.192,4.617-9.533,4.617-16.018
	c0-11.436-0.801-21.752-2.399-30.949C435.551,168.384,433.456,172.066,433.456,172.938z M377.821,131.238
	c0.934,0,2.698-0.451,5.294-1.356c2.594-0.905,4.238-1.645,4.933-2.218c1.085-0.964,1.991-2.398,2.716-4.298l1.628-4.887
	c0.362-1.086,0.541-2.233,0.541-3.44c0-2.563-0.89-4.69-2.668-6.378c-5.22-4.948-8.131-7.422-8.732-7.422
	c-1.991,2.173-4.18,5.205-6.562,9.096c-2.714,4.344-4.358,7.09-4.932,8.235c-1.539,3.046-2.308,5.672-2.308,7.874
	C367.73,129.642,371.093,131.238,377.821,131.238z M379.405,110.425c0.604,0,2.218,1.418,4.842,4.253
	c2.774,3.016,4.163,5.234,4.163,6.651c0.301,0-0.846,0.158-3.439,0.476c-2.595,0.316-4.541,0.475-5.838,0.475
	c-3.288,0-4.933-1.267-4.933-3.801C374.2,117.725,375.934,115.039,379.405,110.425z M447.841,97.71
	c1.206,0.935,2.125,1.644,2.761,2.126c0.692-0.543,1.613-1.462,2.758-2.759c1.299-1.54,1.948-2.565,1.948-3.079
	c0-0.392-0.83-1.199-2.49-2.42c-1.659-1.222-2.699-1.833-3.122-1.833c-0.604,0-1.53,0.778-2.784,2.332
	c-1.25,1.553-1.876,2.541-1.876,2.963C445.036,95.373,445.969,96.262,447.841,97.71z M350.275,116.714
	c0-11.433-0.8-21.75-2.397-30.951c-4.192,6.486-6.291,10.167-6.291,11.041l4.072,35.928
	C348.736,128.541,350.275,123.2,350.275,116.714z M371.893,93.729c1.688,0.844,2.955,1.371,3.801,1.583
	c1.237-1.359,2.413-2.563,3.529-3.62c4.946,2.473,7.331,3.71,7.149,3.71c0.361,0,1.252-0.816,2.669-2.443
	c1.178-1.388,1.976-2.429,2.398-3.124l-7.013-3.709c-0.363,0.121-1.125,0.754-2.285,1.9c-1.161,1.147-1.864,1.718-2.104,1.718
	c-0.513,0-1.583-0.467-3.212-1.402c-1.63-0.935-2.686-1.644-3.169-2.127c-2.08,2.293-3.771,4.059-5.067,5.294
	C368.953,92.052,370.052,92.792,371.893,93.729z M406.439,136.85c-5.098,4.435-9.109,6.651-12.035,6.651
	c-1.448,0-3.432-0.453-5.951-1.355c-2.518-0.907-4.108-1.359-4.773-1.359c-0.514,0-0.771,0.256-0.771,0.768
	c0,0.997,2.882,2.565,8.644,4.708c5.521,2.052,9.155,3.075,10.904,3.075c3.863,0,7.392-2.654,10.59-7.962
	c3.59-5.973,5.385-11.659,5.385-17.06c0-4.494-1.297-8.537-3.892-12.126c-1.871-2.563-3.879-4.418-6.019-5.565
	c-1.69,5.248-2.745,8.326-3.168,9.23c1.569,1.177,3.273,2.672,5.113,4.48c2.534,2.506,3.801,4.36,3.801,5.567
	C414.267,128.705,411.658,132.355,406.439,136.85z M435.465,116.714c0-11.433-0.799-21.75-2.398-30.951
	c-4.192,6.486-6.289,10.167-6.289,11.041l4.072,35.928C433.929,128.541,435.465,123.2,435.465,116.714z M148.44,144.995
	c1.449,0.874,2.534,1.523,3.259,1.945c2.171,1.297,3.288,1.946,3.349,1.946c0.481,0,2.11-1.946,4.886-5.838l-6.743-4.207
	c-0.18,0.15-0.89,0.89-2.125,2.218c-1.086,1.175-1.736,1.763-1.946,1.763c-0.514,0-1.555-0.504-3.122-1.515
	c-1.57-1.01-2.55-1.772-2.941-2.286c-2.021,2.473-3.62,4.36-4.797,5.658c1.569,1.596,3.786,2.924,6.653,3.981
	C146.149,147.302,147.325,146.081,148.44,144.995z M321.792,130.425c2.021,0,3.031-0.257,3.031-0.771
	c0-0.09-0.016-0.179-0.046-0.271c0-0.874,0.393-2.715,1.178-5.52c0.724-2.534,0.979-4.509,0.77-5.927
	c-1.178-8.538-1.767-13.423-1.767-14.661l-0.091-0.091l3.214-4.118c1.81-2.381,2.955-3.921,3.438-4.615
	c-3.892-2.202-7.134-4.146-9.728-5.836c-1.146-0.905-1.72-2.414-1.72-4.525c-1.298,1.538-3.288,4.961-5.974,10.272l3.168,2.352
	l0.09,0.182c0,1.87,0.65,5.452,1.948,10.747c1.295,5.293,1.943,9.179,1.943,11.651c0,0.994-0.12,1.614-0.361,1.854h-16.245
	c-1.416,0-2.683-0.497-3.801-1.494c-1.207-1.055-1.689-2.322-1.447-3.801c0.481-3.196,0.723-6.59,0.723-10.179l-5.474,6.605
	c-0.061,4.617-0.362,7.482-0.905,8.599l-0.181,0.27h-22.986l0.271-0.903c0.12-0.243,0.709-1.207,1.765-2.897
	c0.935-1.476,1.402-2.308,1.402-2.488c0-2.262-1.645-4.781-4.932-7.557c-3.228-2.685-6.002-4.026-8.325-4.026
	c-1.931,0-5.175,1.539-9.729,4.616c-4.947,3.408-8.658,5.973-11.131,7.692c-5.581,3.71-9.382,5.565-11.403,5.565h-1.448
	c-1.931,0-2.896-1.04-2.896-3.121l-0.316-5.611c-0.212-3.439-0.317-5.43-0.317-5.973c-4.013,5.188-6.078,7.934-6.199,8.235
	l1.177,6.47h-13.078c-1.779,0-4.056-3.151-6.833-9.456v-0.09c-0.181-1.81-0.301-3.168-0.361-4.073
	c-0.121-1.176-0.996-1.766-2.625-1.766c-1.961,0-4.524,0.981-7.691,2.941c-2.958,1.841-5.085,3.652-6.381,5.431
	c-0.754,1.025-1.705,2.745-2.851,5.158c-0.604,1.237-1.478,1.854-2.625,1.854h-13.62c-1.448,0-2.715-0.513-3.8-1.537
	c-1.176-1.057-1.66-2.309-1.448-3.758c0.906-6.787,1.176-10.179,0.814-10.179c-0.362,0-2.217,2.202-5.565,6.605
	c-0.121,4.555-0.422,7.421-0.905,8.599l-0.181,0.27h-18.642c-0.454,0-1.162-0.39-2.127-1.176c-2.654-2.172-4.329-5.822-5.022-10.951
	c-0.242-1.839-0.454-2.925-0.633-3.258c-2.173,0-6.004,0.8-11.494,2.399c-6.697,1.961-10.754,4.073-12.171,6.335
	c-3.62,5.763-5.431,10.15-5.431,13.167c0,0.483,0.029,0.905,0.089,1.267l4.616,28.281c0.725,0,1.615-1.855,2.669-5.565
	c0.996-3.471,1.494-6.125,1.494-7.965l-2.081-10.859c-1.387-7.089-2.082-10.724-2.082-10.905c0-1.296,3.484-2.88,10.452-4.751
	l-0.36,0.77c-0.815,1.478-1.434,2.579-1.857,3.303c-0.843,1.601-1.267,2.625-1.267,3.077c0,0.332,0.89,1.132,2.671,2.399
	c2.261,1.628,4.734,3.108,7.42,4.434c6.003,3.047,9.548,4.569,10.634,4.569c0.181,0,1.296-1.764,3.349-5.293h17.466l3.394-6.11
	c1.236,4.073,3.499,6.11,6.787,6.11h12.851c2.112,0,3.47-0.648,4.074-1.945c0.935-1.992,1.644-3.168,2.125-3.531l12.399,6.922
	c4.163,2.324,6.516,3.485,7.06,3.485c0.421,0,0.888-0.821,1.402-2.465c0.513-1.644,1.191-2.466,2.036-2.466h14.072
	c1.236-2.172,2.324-3.967,3.259-5.386l0.95,4.163c0.182,0.814,0.543,1.223,1.086,1.223h70.68l3.438-6.11
	c0.935,4.073,3.197,6.11,6.787,6.11H321.792z M118.984,122.008c-0.725-0.362-1.628-0.995-2.715-1.9
	c-1.298-1.056-1.946-1.855-1.946-2.397c0-0.513,0.996-1.161,2.986-1.946c2.383-0.905,3.802-1.358,4.255-1.358
	c0.24,0,0.36,0.121,0.36,0.363c0,0.392,0.077,0.989,0.227,1.787c0.151,0.801,0.227,1.41,0.227,1.832c0,0.605,0.293,1.578,0.881,2.92
	c0.589,1.341,0.882,2.194,0.882,2.556C124.142,124.256,122.423,123.638,118.984,122.008z M196.089,122.642
	c-0.875,0.18-2.066-0.158-3.574-1.017c-1.508-0.86-2.641-1.517-3.395-1.971c-2.444-1.387-3.981-2.307-4.616-2.758l1.268-1.042
	c1.417-1.085,3.62-1.628,6.605-1.628c1.569,0,2.776,1.041,3.621,3.122c0.604,1.6,0.904,3.304,0.904,5.114L196.089,122.642z
	 M261.021,121.148h-22.308c2.473-1.417,4.194-2.397,5.159-2.94c1.991-1.237,3.982-2.475,5.973-3.71
	c2.383-1.298,4.6-1.946,6.651-1.946c1.418,0,3.229,0.709,5.431,2.127c2.352,1.539,3.53,2.956,3.53,4.253
	C265.456,120.411,263.978,121.148,261.021,121.148z M463.497,124.315c0-4.494-1.297-8.537-3.891-12.126
	c-1.872-2.563-3.877-4.418-6.019-5.565c-1.688,5.248-2.744,8.326-3.167,9.23c1.567,1.177,3.271,2.672,5.111,4.48
	c2.534,2.506,3.801,4.36,3.801,5.567c0,2.804-2.607,6.455-7.825,10.95c-5.099,4.435-9.112,6.651-12.038,6.651
	c-1.448,0-3.431-0.453-5.948-1.355c-2.521-0.907-4.112-1.359-4.776-1.359c-0.511,0-0.769,0.256-0.769,0.768
	c0,0.997,2.881,2.565,8.644,4.708c5.521,2.052,9.155,3.075,10.905,3.075c3.86,0,7.389-2.654,10.588-7.962
	C461.702,135.402,463.497,129.716,463.497,124.315z M281.247,95.084c1.78,0.937,3.093,1.509,3.938,1.72
	c1.296-1.357,2.563-2.593,3.801-3.709c5.188,2.595,7.661,3.89,7.42,3.89c0.693,0,2.488-1.914,5.385-5.748l-7.511-3.98
	c-0.333,0.12-1.109,0.785-2.331,1.991c-1.221,1.208-1.953,1.81-2.193,1.81c-0.574,0-1.697-0.505-3.371-1.515
	c-1.676-1.011-2.754-1.772-3.237-2.285c-2.292,2.414-4.087,4.268-5.385,5.566C278.156,93.365,279.316,94.119,281.247,95.084z
	 M491.936,110.153c-1.901-4.586-4.089-6.878-6.562-6.878c-2.413,0-5.067,2.218-7.964,6.652c-2.654,4.071-3.98,7.192-3.98,9.366
	c0,3.167,0.211,5.339,0.634,6.516c0.845,2.261,2.729,3.393,5.655,3.393c2.896,0,5.083-0.769,6.562-2.307
	c1.056-1.086,2.141-3.213,3.259-6.381c0.661,2.082,0.935,3.592,0.812,4.525c-0.423,3.409-2.926,7.135-7.512,11.177
	c-3.801,3.318-7.692,5.868-11.674,7.646c-1.237,0.543-2.625,0.816-4.163,0.816c-1.086,0-2.652-0.258-4.705-0.77
	c-2.052-0.515-3.499-0.77-4.345-0.77c-0.814,0-1.221,0.332-1.221,0.996c0,0.815,2.85,1.931,8.553,3.349
	c5.398,1.357,9.095,2.037,11.085,2.037c5.25,0,9.668-3.531,13.258-10.588c3.077-6.034,4.615-12.263,4.615-18.687
	C494.243,117.317,493.474,113.953,491.936,110.153z M486.958,118.841c-2.112,0.874-3.545,1.312-4.299,1.312
	c-1.025,0-2.263-0.287-3.711-0.859c-1.538-0.602-2.307-1.252-2.307-1.946c0-0.964,0.664-1.915,1.991-2.85
	c1.326-0.935,2.487-1.402,3.484-1.402c1.356,0,2.503,0.535,3.439,1.604c0.935,1.073,1.401,2.301,1.401,3.688V118.841z"/>
</svg>
