<svg xmlns="http://www.w3.org/2000/svg" width="589.8" height="311.367"><path fill="#7DE2FF" d="M179.957 93.53c.581-1.525 1.089-2.977 1.089-4.502v-.072h12.562v.218c-1.742.508-2.25 2.614-2.25 4.285l4.791 35.654c.436 3.413.8 5.372 3.703 7.407v.217h-14.014v-.217c2.54-.801 2.977-2.979 2.977-5.448l-4.14-35.001-16.266 41.609c-3.631-2.76-4.647-4.719-6.391-8.787l-13.797-32.748-4.14 31.226c-.579 4.429-1.089 7.624 2.324 9.149v.217h-11.836v-.217c3.051-2.688 3.484-6.246 4.066-10.167l4.14-30.426c.29-2.034 1.089-4.938-2.252-6.754v-.218h12.707v.072c0 1.163.582 2.252 1.018 3.268l13.652 32.024 12.057-30.789zM206.771 103.333c1.671 0 3.486-.071 4.721-1.16h.218v26.504c0 3.342-.437 6.027 2.76 7.844v.217h-12.13v-.217c3.196-1.816 2.76-4.502 2.76-7.844v-17.354c0-3.341.437-5.955-2.76-7.771v-.219h4.431zm1.379-4.356c-2.687 0-4.719-2.104-4.719-4.793 0-2.541 2.321-4.283 4.719-4.283 2.469 0 4.356 2.104 4.356 4.502.001 2.395-1.887 4.574-4.356 4.574zM222.317 103.333c1.597 0 3.339-.071 4.864-.943h.219v5.591c2.541-3.484 5.518-5.591 10.239-5.591 4.065 0 8.713 1.599 11.037 5.012 2.033 2.903 1.815 7.405 1.815 10.818v10.529c0 3.341-.436 5.955 2.758 7.771v.217h-12.126v-.217c3.196-1.816 2.76-4.502 2.76-7.771v-9.803c0-7.77-2.179-11.764-8.787-11.764-6.606 0-7.696 4.43-7.696 8.713v12.854c0 3.341-.436 5.955 2.758 7.771v.217h-12.126v-.217c3.195-1.816 2.76-4.502 2.76-7.844v-17.283c0-3.34.436-6.027-2.76-7.842v-.219l4.285.001zM261.04 103.333c1.671 0 3.486-.071 4.722-1.16h.217v26.504c0 3.342-.437 6.027 2.76 7.844v.217H256.61v-.217c3.195-1.816 2.76-4.502 2.76-7.844v-17.354c0-3.341.436-5.955-2.76-7.771v-.219h4.43zm1.38-4.356c-2.686 0-4.721-2.104-4.721-4.793 0-2.541 2.325-4.283 4.721-4.283 2.47 0 4.357 2.104 4.357 4.502 0 2.395-1.887 4.574-4.357 4.574zM295.389 109.506c-2.688-1.452-5.737-2.323-8.933-2.323-2.396 0-6.754.581-6.754 3.486 0 6.461 19.68 4.138 19.68 15.685 0 6.754-6.898 11.327-16.267 11.327-3.268 0-6.391-.508-9.438-1.742l-2.543-7.116c4.211 2.687 8.642 4.066 13.651 4.066 2.978 0 7.989-1.016 7.989-4.72 0-7.335-19.68-5.012-19.68-16.049 0-7.697 7.987-9.73 14.233-9.73 2.687 0 5.446.219 8.061.943l.001 6.173zM311.753 122.649c0 2.76-.869 10.239 6.9 10.239 1.018 0 1.961-.362 2.904-.728l-3.85 5.158a8.218 8.218 0 0 1-2.324.361c-11.256 0-10.238-11.618-10.238-14.449v-15.105h-4.938v-2.614c6.824-1.161 8.641-6.245 8.641-12.997h2.904v10.818h6.826c.945 0 2.033 0 2.76-.434h.219v6.606h-.219c-1.162-1.525-3.34-1.38-5.229-1.38h-4.357v14.525h.001zM329.08 103.333c1.67 0 3.412-.071 4.428-.943h.221v5.52c1.598-3.268 4.938-5.52 8.566-5.52l2.615.219v6.681c-.799-.872-2.107-1.163-3.342-1.163-5.518 0-7.842 2.905-7.842 10.384v10.167c0 3.342-.436 6.027 2.762 7.844v.217h-12.129v-.217c3.195-1.816 2.76-4.502 2.76-7.844v-17.355c0-3.341.436-5.955-2.688-7.77v-.219l4.649-.001zM374.128 111.829c1.09-2.831 2.76-6.68-.725-8.277v-.219h10.164l-15.104 36.019c-3.92 9.367-9.004 12.127-15.83 12.127-3.123 0-5.811-.728-8.643-1.816l6.535-4.719c1.234.798 2.543 1.742 4.066 1.742 5.082 0 7.262-5.446 8.787-9.44l.436-1.161-.289-.364c-2.396-2.396-2.396-2.758-3.775-5.809l-8.861-19.316c-1.451-3.193-2.32-5.736-5.809-7.043v-.219h6.172c2.688 0 4.066 1.09 4.865 2.905l10.676 24.036 7.335-18.446zM398.453 120.326c0-10.892 8.785-17.937 19.242-17.937 4.646 0 8.643 1.234 12.127 4.285 3.703 3.268 5.955 8.06 5.955 12.998 0 10.456-8.715 18.008-18.953 18.008-9.948.001-18.371-7.041-18.371-17.354zm29.99.872c0-7.045-3.775-14.016-11.547-14.016-6.754 0-11.109 5.3-11.109 11.837 0 6.681 3.994 13.869 11.4 13.869 6.682.001 11.256-5.155 11.256-11.69zM447.824 126.208c0 3.559-.438 8.423 3.121 10.312v.217h-12.488v-.217c3.193-1.816 2.758-4.502 2.758-7.771v-20.623h-3.631l3.631-4.793v-1.742c0-4.066-.143-6.318 2.689-9.512 3.34-3.777 8.131-4.647 12.924-4.647l4.938.436-5.084 5.592c-1.232-.801-2.25-1.235-3.703-1.235-4.281 0-5.154 2.033-5.154 6.316v4.793h8.426l1.23-.434h.221v6.39h-.221c-.578-.944-1.521-1.163-2.686-1.163h-6.971v18.081zM108.699 167.087h-.217c-2.979-3.342-8.496-4.356-12.927-4.356-11.328 0-19.97 7.407-19.97 19.099s9.295 20.551 20.769 20.551c3.341 0 6.825-.437 10.095-1.381v-10.457c0-3.34-.073-6.896-3.341-8.205v-.217h11.11v.217c-.364.871-.364 2.033-.364 3.123v16.701c0 1.088-.071 2.252.364 3.268-5.81 1.089-11.473 2.179-17.355 2.179-18.589 0-29.555-10.165-29.555-24.761 0-15.612 12.417-25.344 29.989-25.344 3.849 0 7.626.437 11.401 1.233v8.351h.001zM122.829 173.041c1.671 0 3.413-.07 4.429-.942h.219v5.521c1.598-3.269 4.938-5.521 8.568-5.521l2.614.219v6.681c-.798-.871-2.106-1.162-3.341-1.162-5.518 0-7.842 2.904-7.842 10.383v10.168c0 3.342-.436 6.027 2.76 7.844v.217h-12.128v-.217c3.196-1.816 2.76-4.502 2.76-7.844V181.03c0-3.342.437-5.956-2.687-7.771v-.219h4.648v.001zM169.179 207.39c-4.793-.291-9.586-1.742-9.586-7.553v-11.475c-2.104 1.09-4.573 1.672-6.971 2.252-3.484.799-7.407 1.598-7.407 6.027 0 4.502 4.067 5.954 7.915 5.954 1.744 0 3.486-.509 5.229-1.017l-4.283 5.445c-1.234.219-2.542.363-3.777.363-7.333 0-12.417-4.648-12.417-10.676 0-13.506 21.712-7.262 21.712-15.176 0-3.486-4.283-4.648-6.971-4.648-3.704 0-6.606 1.381-9.876 2.904l4.866-7.262 4.719-.436c7.844 0 13.797 2.252 13.871 11.039v10.892c0 5.736.146 7.915 6.173 8.567l-3.197 4.8zM177.701 173.041c1.597 0 3.341-.146 4.356-.942h.219v5.157c2.468-3.414 7.842-5.157 11.908-5.157 10.095 0 16.63 7.771 16.63 17.282 0 10.094-7.336 18.01-17.501 18.01-1.888 0-3.703-.291-5.374-.944l-3.921-5.954c2.541 1.235 5.155 2.105 7.915 2.105 7.698 0 11.545-5.155 11.545-12.417 0-6.755-3.63-12.999-11.108-12.999-3.051 0-6.027 1.234-8.061 3.486-2.106 2.25-2.033 4.865-2.033 7.77v24.908c0 3.34-.436 5.953 2.758 7.77v.217h-12.126v-.217c3.195-1.814 2.76-4.43 2.76-7.77V181.03c0-3.342.436-6.026-2.76-7.771v-.219h4.793v.001zM218.372 158.666c1.669 0 3.413 0 4.429-1.164h.219v19.172c2.179-3.123 7.117-4.575 10.674-4.575 10.021 0 12.419 6.026 12.419 13.071v13.215c0 3.343-.437 6.027 2.758 7.845v.217h-12.053v-.217c3.193-1.815 2.686-4.502 2.686-7.845v-11.036c0-5.882-1.888-10.458-8.132-10.458-6.392 0-8.352 3.559-8.352 10.021v11.473c0 3.343-.436 6.027 2.759 7.845v.217h-12.127v-.217c3.196-1.815 2.76-4.502 2.76-7.845v-31.658c0-3.342.437-6.027-2.76-7.844v-.217h4.72zM256.66 173.041c1.67 0 3.486-.07 4.721-1.16h.217v26.504c0 3.343-.436 6.027 2.76 7.845v.217H252.23v-.217c3.195-1.815 2.76-4.502 2.76-7.845V181.03c0-3.342.436-5.956-2.76-7.771v-.219h4.43v.001zm1.38-4.356c-2.687 0-4.72-2.105-4.72-4.793 0-2.541 2.322-4.283 4.72-4.283 2.469 0 4.356 2.105 4.356 4.502 0 2.394-1.887 4.574-4.356 4.574zM295.669 180.449h-.219c-2.104-2.396-5.592-3.56-8.859-3.56-7.045 0-12.126 4.938-12.126 11.838 0 8.353 7.043 13.869 15.104 13.869 3.703 0 7.77-1.452 10.604-3.56h.217l-3.775 6.899c-3.05 1.161-6.392 1.452-9.584 1.452-11.183 0-19.898-7.334-19.898-16.774 0-12.489 9.731-18.518 20.696-18.518 2.615 0 5.301.29 7.843.872v7.48h-.003zM317.814 168.612c0-3.341.51-8.642-3.193-9.729v-.217h17.791c16.557 0 26.867 9.004 26.867 23.453 0 14.305-10.965 24.326-27.232 24.326h-17.426v-.217c3.629-2.471 3.193-5.956 3.193-10.238v-27.378zm7.408 32.096c1.744.362 3.486.508 5.303.508 10.816 0 20.477-5.662 20.477-18.225 0-12.709-7.115-19.101-19.244-19.101-2.178 0-4.355.291-6.535.799v36.019h-.001zM370.423 188.582c.146 8.859 6.318 14.016 14.523 14.016 4.355 0 8.566-1.234 11.908-3.85h.219l-3.631 6.826c-3.123 1.309-6.609 1.815-10.021 1.815-12.344 0-20.84-7.771-20.84-17.863s7.334-17.429 18.154-17.429c9.875 0 16.627 7.115 16.338 16.484h-26.65v.001zm19.026-4.213c-.799-5.082-4.141-7.479-9.367-7.479-4.865 0-8.496 2.904-9.367 7.479h18.734zM423.685 179.214c-2.688-1.451-5.736-2.324-8.934-2.324-2.395 0-6.754.582-6.754 3.486 0 6.461 19.682 4.139 19.682 15.686 0 6.754-6.898 11.328-16.268 11.328-3.27 0-6.391-.508-9.439-1.742l-2.543-7.117c4.213 2.688 8.643 4.066 13.652 4.066 2.977 0 7.988-1.016 7.988-4.721 0-7.334-19.68-5.012-19.68-16.049 0-7.697 7.986-9.729 14.232-9.729 2.688 0 5.447.219 8.061.942v6.174h.003zM434.611 173.041c1.672 0 3.486-.07 4.721-1.16h.219v26.504c0 3.343-.438 6.027 2.76 7.845v.217h-12.129v-.217c3.195-1.815 2.76-4.502 2.76-7.845V181.03c0-3.342.438-5.956-2.76-7.771v-.219h4.429v.001zm1.381-4.356c-2.688 0-4.723-2.105-4.723-4.793 0-2.541 2.326-4.283 4.723-4.283 2.469 0 4.355 2.105 4.355 4.502 0 2.394-1.887 4.574-4.355 4.574zM484.345 172.098l-1.67 3.776c-.58 1.307-.725 1.742-2.324 1.742-2.541 0-5.01-.582-7.479-.943 3.051 1.959 5.156 5.084 5.156 8.787 0 8.203-8.859 10.746-15.469 11.328-1.016.071-2.979.725-2.979 1.959 0 1.6 3.414 1.381 4.357 1.381 12.562 0 19.244 3.412 19.244 10.603 0 8.206-9.076 12.778-20.404 12.778-10.676 0-20.115-4.139-20.115-10.311 0-4.066 3.268-5.882 6.971-5.882 1.525 0 2.76.289 4.141.942-1.816.363-2.76 1.382-2.76 3.269 0 6.101 7.262 7.188 11.98 7.188 4.793 0 12.854-1.381 12.854-7.479 0-6.39-10.385-6.754-14.812-6.754l-5.012.146c-3.193.072-5.301-2.541-5.301-5.156 0-2.105 4.211-3.121 5.736-3.85-5.229-1.016-9.586-5.735-9.586-11.183 0-8.422 8.135-12.345 15.613-12.345l21.859.004zm-21.203 19.898c4.355 0 7.553-2.834 7.553-7.045 0-4.648-3.92-8.062-9.078-8.062-3.992 0-7.404 2.179-7.404 6.391-.003 4.721 4.21 8.716 8.929 8.716zM491.126 173.041c1.596 0 3.338-.07 4.863-.942h.219v5.591c2.541-3.484 5.518-5.591 10.24-5.591 4.064 0 8.713 1.599 11.037 5.012 2.031 2.903 1.814 7.405 1.814 10.817v10.529c0 3.342-.436 5.955 2.758 7.771v.217H509.93v-.217c3.195-1.816 2.762-4.502 2.762-7.771v-9.803c0-7.77-2.18-11.765-8.787-11.765s-7.697 4.431-7.697 8.714v12.854c0 3.342-.436 5.955 2.758 7.771v.217h-12.125v-.217c3.195-1.816 2.76-4.502 2.76-7.844v-17.283c0-3.339.436-6.027-2.76-7.842v-.219h4.285v.001z"/><path fill="#7DE2FF" d="M0 297.375V78.896c0-35.562 28.932-64.514 64.494-64.539l525.306-.365V232.32c0 35.645-28.998 64.664-64.643 64.689L0 297.375zM584.361 19.436l-519.863.361C31.933 19.82 5.439 46.332 5.439 78.896v213.035l519.714-.361c32.647-.023 59.207-26.602 59.207-59.25V19.436z"/></svg>