<?xml version="1.0" encoding="utf-8"?>
<!-- Generator: Adobe Illustrator 16.0.4, SVG Export Plug-In . SVG Version: 6.00 Build 0)  -->
<!DOCTYPE svg PUBLIC "-//W3C//DTD SVG 1.1//EN" "http://www.w3.org/Graphics/SVG/1.1/DTD/svg11.dtd">
<svg version="1.1" id="Layer_1" xmlns="http://www.w3.org/2000/svg" xmlns:xlink="http://www.w3.org/1999/xlink" x="0px" y="0px"
	 width="589.8px" height="311.366px" viewBox="0 0 589.8 311.366" enable-background="new 0 0 589.8 311.366" xml:space="preserve">
<g>
	<path fill="#ebf400" d="M589.326,88.766c-23.93-35.848-81.684-36.26-84.131-36.26c-40.146,0-70.713-12.562-103.074-25.861
		C370.248,13.545,337.289,0,294.901,0c-42.388,0-75.347,13.545-107.221,26.645c-32.36,13.299-62.926,25.861-103.073,25.861
		c-0.61,0-15.154,0.052-32.813,4.46c-23.622,5.898-41.367,16.893-51.318,31.8L0,89.478V221.89l0.476,0.711
		c23.931,35.848,81.685,36.26,84.132,36.26c40.147,0,70.713,12.562,103.073,25.861c31.874,13.1,64.833,26.645,107.221,26.645
		c42.388,0,75.347-13.545,107.22-26.645c32.361-13.299,62.928-25.861,103.074-25.861c0.611,0,15.154-0.051,32.812-4.459
		c23.623-5.897,41.369-16.894,51.318-31.801l0.475-0.711V89.478L589.326,88.766z M584.148,220.163
		c-22.562,32.623-78.389,33.046-78.953,33.046c-41.262,0-73.777,13.362-105.223,26.286c-31.365,12.89-63.799,26.219-105.072,26.219
		c-41.272,0-73.706-13.329-105.071-26.219c-31.445-12.924-63.96-26.286-105.223-26.286c-0.564,0-56.367-0.379-78.955-33.046V91.203
		c22.563-32.622,78.391-33.046,78.955-33.046c41.263,0,73.777-13.362,105.223-26.285c31.365-12.891,63.799-26.22,105.071-26.22
		c41.273,0,73.707,13.329,105.072,26.22c31.445,12.923,63.961,26.285,105.223,26.285c0.564,0,56.367,0.379,78.953,33.046V220.163z
		 M284.823,169.613l3.039-5.812l-6.473-3.424l-2.922,5.812L284.823,169.613z M283.501,175.164c-2.352,0-4.267,1.531-5.748,4.597
		c-1.347,2.775-2.02,5.986-2.02,9.633c0,2.088,0.702,3.686,2.108,4.795c1.218,0.98,2.793,1.468,4.729,1.468
		c1.297,0,3.431-0.473,6.398-1.418c0.556,2.057,0.836,4.261,0.836,6.61h-18.392v-2.774c0-4.651-0.362-8.007-1.085-10.069
		c-0.482-1.373-1.681-3.262-3.592-5.667l-3.095,6.46c1.958,2.142,3.198,3.781,3.728,4.916c0.739,1.639,1.109,4.016,1.109,7.135
		h-16.884c-3.812-7.414-9.913-14.309-18.307-20.691l-4.048-2.995c-1.137-0.92-1.707-1.641-1.707-2.165
		c0-1.078,3.972-2.931,11.915-5.559l8.301-2.758v-6.897l-11.179,4.36c-5.072,1.983-8.614,4.137-10.623,6.462
		c-2.245,2.591-3.367,6.144-3.367,10.661c0,0.768,0.817,1.824,2.458,3.172c1.563,1.215,3.124,2.418,4.688,3.606l1.309-1.229
		c7.359,4.36,12.693,9.037,16.001,14.032h-34.366c-3.303,0-6.434,0.914-9.393,2.741c-4.15,2.543-6.224,6.277-6.224,11.205
		c0,1.562,1.551,2.438,4.652,2.622c2.861,0.184,4.98,0.314,6.358,0.393c1.723,0.158,2.583,0.605,2.583,1.34
		c0,1.205-1.761,2.164-5.283,2.874c-2.992,0.602-6.344,0.903-10.052,0.903c-5.668,0-10.106-0.806-13.311-2.42
		c-3.39-1.688-5.086-4.161-5.086-7.41c0-1.902,0.745-4.281,2.237-7.135c1.012-1.719,2.023-3.423,3.036-5.113l-1.586-0.793
		c-2.51,3.969-4.11,6.629-4.795,7.978c-1.692,3.468-2.539,6.721-2.539,9.766c0,3.809,1.785,6.747,5.354,8.81
		c3.354,1.932,7.871,2.897,13.555,2.897c8.165,0,14.007-1.212,17.519-3.638c3.277-2.268,4.916-5.867,4.916-10.798
		c0-1.478-1.258-2.358-3.776-2.649c-3.18-0.289-5.432-0.461-6.756-0.513c-2.466-0.135-3.698-0.58-3.698-1.334
		c0-1.886,4.092-2.828,12.275-2.828h80.479v-10.305c0-5.63-0.728-10.519-2.183-14.667C289.21,177.7,286.725,175.164,283.501,175.164
		z M282.729,188.481c-2.339,0-3.507-1.057-3.507-3.17c0-0.793,0.231-1.494,0.697-2.102c0.466-0.609,1.056-0.91,1.771-0.91
		c1.01,0,2.072,0.658,3.188,1.98c0.822,1.005,1.422,1.969,1.794,2.895C285.345,188.045,284.03,188.481,282.729,188.481z
		 M252.666,221.683l6.394,3.346l2.999-5.773l-6.473-3.344L252.666,221.683z M186.827,234.998l4.574,3.07l3.591-3.669l-4.498-3.149
		L186.827,234.998z M261.663,217.996l6.396,3.424l3.078-5.731l-6.514-3.385L261.663,217.996z M362.658,218.75l6.434,3.345
		l2.961-5.732l-6.316-3.424L362.658,218.75z M406.629,169.496c0.73-1.866,1.1-4.39,1.1-7.571l-3.99-1.586
		c-1.727-0.739-2.605-1.89-2.631-3.447l-0.633-0.438c-1.324,3.167-1.943,6.421-1.863,9.77l2.061,0.984l4.795,33.642H389.85
		c-1.188-0.237-3.354-1.779-6.5-4.627c-4.334-3.873-7.309-6.392-8.92-7.551c-3.672-2.637-6.855-3.956-9.553-3.956
		c-4.648,0-7.926,2.418-9.828,7.255c1.373-0.186,2.734-0.278,4.084-0.278c3.17,0,6.379,0.821,9.631,2.458
		c2.537,1.27,5.865,3.502,9.988,6.699h-29.135v-2.762c0-5.078-2.166-9.628-6.5-13.648l-2.258,6.264
		c3.965,4.379,5.945,8.473,5.945,12.271c0,3.853-2.449,7.93-7.342,12.233c-5.105,4.46-10.213,6.689-15.318,6.689
		c-1.535,0-5.068-0.53-10.596-1.586l-0.676,1.626c2.855,1.057,5.693,2.1,8.521,3.13c3.357,1.111,6.303,1.667,8.84,1.667
		c3.277,0,7.229-2,11.852-5.992c5.016-4.385,7.525-8.716,7.531-12.995h59.814v-7.776l-4.756-31.106L406.629,169.496z
		 M195.071,234.998l4.418,3.07l3.669-3.669l-4.537-3.149L195.071,234.998z M412.205,164.937c2.51,18.761,3.768,31.697,3.768,38.807
		c0,1.004-0.105,2.561-0.316,4.675l0.711,0.397c2.459-4.385,3.688-8.112,3.688-11.178c0-7.585-1.361-21.009-4.082-40.271
		C414.477,160.22,413.221,162.745,412.205,164.937z M295.91,164.937c2.508,18.761,3.764,31.697,3.764,38.807
		c0,1.004-0.105,2.561-0.316,4.675l0.713,0.397c2.459-4.385,3.688-8.112,3.688-11.178c0-7.585-1.363-21.009-4.084-40.271
		C298.18,160.22,296.926,162.745,295.91,164.937z M273.534,93.321l-6.514-3.384l-2.958,5.692l6.394,3.424L273.534,93.321z
		 M264.456,96.887l-6.473-3.343l-2.92,5.773l6.394,3.343L264.456,96.887z M136.903,146.446l6.394,3.343l3.001-5.771l-6.475-3.345
		L136.903,146.446z M192.514,132.508c3.805,0,6.686-0.834,8.64-2.499c2.644,1.665,5.155,2.499,7.532,2.499h84.269v-7.777
		l-4.756-31.104l1.954,0.631c0.732-1.865,1.098-4.39,1.098-7.57l-3.986-1.586c-1.728-0.74-2.605-1.89-2.633-3.448l-0.633-0.436
		c-1.321,3.164-1.943,6.419-1.864,9.768l2.061,0.985l4.797,33.641H276.15v-2.775c0-4.648-0.361-8.006-1.086-10.068
		c-0.482-1.373-1.678-3.263-3.592-5.667l-3.091,6.461c1.954,2.14,3.198,3.779,3.726,4.915c0.738,1.639,1.109,4.016,1.109,7.135
		h-16.886v-3.113c0-7.49-3.551-11.236-10.656-11.236c-3.275,0-6.362,0.74-9.266,2.216c-1.718,0.868-5.019,3.041-9.903,6.522
		c-2.352,1.659-5.124,3.029-8.318,4.109c-2.984,1.001-5.586,1.502-7.803,1.502c-4.622,0-7.909-3.82-9.863-11.455l-1.665,2.377
		c0.377,1.904,0.568,3.529,0.568,4.877c0,1.796-0.766,3.012-2.3,3.646c-0.928,0.371-2.462,0.556-4.604,0.556h-4.885
		c-0.009-3.263-2.188-8.179-6.531-14.746c-1.742,0.423-3.669,1.395-5.781,2.918c-2.4,1.709-4.395,3.72-5.978,6.032
		c-2.673,3.864-6.14,5.796-10.398,5.796h-3.297v-2.775c0-4.648-0.36-8.006-1.086-10.068c-0.481-1.373-1.678-3.263-3.591-5.667
		l-3.091,6.461c1.953,2.14,3.197,3.779,3.726,4.915c0.737,1.639,1.109,4.016,1.109,7.135h-16.887
		c-4.519-6.949-8.55-10.425-12.089-10.425c-3.7,0-6.566,2.562-8.602,7.688l1.817,1.15c1.715-2.008,3.309-3.012,4.784-3.012
		c1.368,0,2.727,0.527,4.069,1.586c0.422,0.316,1.45,1.322,3.084,3.012c-6.804,0.688-11.525,1.851-14.16,3.488
		c-3.297,2.035-4.945,5.482-4.945,10.346c0,1.162,2.087,8.825,6.262,22.988c0.66-2.431,0.991-4.412,0.991-5.946
		c0-2.061-0.614-5.072-1.844-9.035c-1.229-3.964-1.842-6.962-1.842-8.997c0-1.93,2.064-3.45,6.195-4.56
		c3.44-0.925,7.293-1.387,11.554-1.387h27.953c3.037,0,5.403-0.383,7.096-1.15c1.557-0.714,3.092-1.994,4.597-3.845
		c4.016,3.33,8.27,4.995,12.765,4.995H192.514z M232.246,121.093c3.777-1.771,6.969-2.656,9.583-2.656
		c2.112,0,3.934,0.342,5.467,1.03c1.717,0.767,2.575,1.798,2.575,3.091c0,2.035-2.761,3.053-8.277,3.053h-18.259
		C226.29,124.104,229.261,122.599,232.246,121.093z M182.762,125.255c-3.663-0.429-6.648-1.867-8.958-4.323
		c1.566-2.539,3.33-4.06,5.295-4.558c2.07,2.723,3.409,5.51,4.021,8.364L182.762,125.255z M145.9,142.759l6.395,3.423l3.078-5.731
		l-6.513-3.385L145.9,142.759z M445.838,115.464c3.963,4.38,5.947,8.472,5.947,12.271c0,3.853-2.447,7.93-7.342,12.232
		c-5.107,4.46-10.211,6.69-15.32,6.69c-1.533,0-5.064-0.53-10.596-1.587l-0.674,1.627c2.854,1.057,5.695,2.1,8.523,3.132
		c3.355,1.109,6.303,1.665,8.84,1.665c3.277,0,7.227-2,11.85-5.991c5.021-4.392,7.533-8.729,7.533-13.015v-9.641
		c0-5.078-2.17-9.628-6.502-13.648L445.838,115.464z M299.18,133.181l0.713,0.397c2.457-4.386,3.688-8.113,3.688-11.179
		c0-7.584-1.363-21.008-4.082-40.272c-1.496,2.855-2.754,5.378-3.768,7.573c2.51,18.761,3.768,31.695,3.768,38.804
		C299.498,129.509,299.391,131.067,299.18,133.181z M448.652,95.58l-6.434-3.386l-2.959,5.812l6.354,3.345L448.652,95.58z
		 M342.148,98.987l-6.475-3.345l-2.924,5.775l6.396,3.341L342.148,98.987z M483.498,112.807c-2.285,0-4.172,1.341-5.66,4.021
		c-1.277,2.334-1.914,4.881-1.914,7.641c0,5.359,3.688,8.065,11.061,8.119c-3.219,4.318-5.861,7.354-7.918,9.102
		c-3.959,3.391-8.221,5.089-12.787,5.089c-1.135,0-4.145-0.57-9.027-1.706l-0.67,1.39c4.543,1.559,7.135,2.431,7.768,2.614
		c2.986,0.847,5.668,1.268,8.045,1.268c4.68,0,8.814-2.41,12.408-7.229c3.25-4.342,4.875-8.686,4.875-13.027v-4.53
		C489.678,117.057,487.617,112.807,483.498,112.807z M479.688,121.806c0-1.717,0.912-2.576,2.736-2.576
		c2.168,0,3.74,2.18,4.719,6.539C482.174,125.742,479.688,124.421,479.688,121.806z M404.338,133.181l0.715,0.397
		c2.457-4.386,3.684-8.113,3.684-11.179c0-7.584-1.359-21.008-4.082-40.272c-1.496,2.855-2.752,5.378-3.764,7.573
		c2.51,18.761,3.764,31.695,3.764,38.804C404.654,129.509,404.549,131.067,404.338,133.181z M378.732,151.495
		c3.275,0,7.227-2,11.852-5.991c5.02-4.392,7.531-8.729,7.531-13.015v-9.641c0-5.078-2.166-9.628-6.5-13.648l-2.26,6.264
		c3.963,4.38,5.945,8.472,5.945,12.271c0,3.853-2.447,7.93-7.342,12.232c-5.105,4.46-10.211,6.69-15.316,6.69
		c-1.537,0-5.068-0.53-10.596-1.587l-0.676,1.627c2.852,1.057,5.693,2.1,8.521,3.132
		C373.25,150.939,376.195,151.495,378.732,151.495z M341.449,109.162l-2.428,6.735l0.588,0.16c-0.836,2.062-1.674,4.136-2.512,6.225
		c-0.941,2.456-1.412,4.596-1.412,6.419c0,1.588,0.729,2.827,2.186,3.728c1.27,0.768,2.871,1.149,4.805,1.149
		c4.977,0,8.406-1.457,10.287-4.367c1.246-1.906,1.867-4.712,1.867-8.418c0-2.329-1.592-4.604-4.777-6.827
		C349.07,113.25,346.203,111.649,341.449,109.162z M351.344,123.866c0,0.688-0.891,1.445-2.668,2.279
		c-1.775,0.833-3.377,1.249-4.811,1.249c-2.783,0-4.176-1.428-4.176-4.281c0-1.214,1.086-2.999,3.262-5.353
		C348.545,120.431,351.344,122.466,351.344,123.866z M351.225,95.422l-6.514-3.386l-2.961,5.695l6.393,3.424L351.225,95.422z"/>
</g>
</svg>
