<svg xmlns="http://www.w3.org/2000/svg" width="562.049" height="367.055"><path fill="#226C47" d="M476.664 325.944H85.385l-.546-.47c-33.334-28.683-54.042-83.073-54.042-141.947S51.504 70.262 84.839 41.58l.546-.47h391.279l.546.47c33.335 28.684 54.042 83.074 54.042 141.947s-20.707 113.264-54.042 141.947l-.546.47zM86.831 322.06h388.388c32.184-28.09 52.148-81.079 52.148-138.532S507.403 73.085 475.219 44.995H86.831c-32.185 28.089-52.149 81.078-52.149 138.532S54.646 293.971 86.831 322.06z"/><path fill="#226C47" d="M135.541 152.943c0-.379-.081-.9-.244-1.564a20.23 20.23 0 0 0-.65-2.111 22.96 22.96 0 0 0-.975-2.276c-.379-.772-.792-1.469-1.239-2.092s-.915-1.131-1.402-1.524c-.487-.392-.989-.589-1.503-.589-.433 0-.921.21-1.463.63s-1.049.908-1.523 1.463a11.07 11.07 0 0 0-1.198 1.686c-.326.569-.488 1.003-.488 1.3 0 .407.197.821.589 1.24.393.42.894.839 1.503 1.259.61.42 1.286.82 2.031 1.199a24.7 24.7 0 0 0 2.215.995c.731.284 1.414.515 2.051.69s1.145.264 1.523.264c.326 0 .536-.041.63-.121.095-.082.143-.232.143-.449m3.372 4.185c0 1.11-.292 1.978-.874 2.601-.582.622-1.429.934-2.539.934-1.138 0-2.41-.17-3.818-.509a21.629 21.629 0 0 1-4.083-1.421 16.543 16.543 0 0 1-3.576-2.234c-1.07-.88-1.822-1.849-2.255-2.905-.487.569-1.151 1.124-1.99 1.666-.84.542-1.666 1.11-2.478 1.706a13.181 13.181 0 0 0-2.113 1.909c-.596.677-.894 1.436-.894 2.275 0 1.299.27 2.776.812 4.429.542 1.651 1.131 3.459 1.768 5.423a85.679 85.679 0 0 1 1.768 6.317c.541 2.248.812 4.632.812 7.15 0 .595-.061 1.077-.183 1.442-.122.366-.319.549-.589.549-.271 0-.481-.156-.63-.468a4.814 4.814 0 0 1-.345-.995 58.059 58.059 0 0 0-2.356-7.089c-.949-2.345-1.863-4.611-2.743-6.806a85.697 85.697 0 0 1-2.255-6.276c-.623-1.99-.934-3.826-.934-5.505 0-1.57.386-3.088 1.158-4.549.772-1.463 2.214-2.886 4.326-4.268 1.896-1.219 3.474-2.336 4.734-3.352 1.259-1.016 2.267-2.159 3.026-3.433.894-1.517 1.727-2.804 2.499-3.859.772-1.057 1.489-1.909 2.153-2.56.663-.65 1.3-1.124 1.91-1.422a4.162 4.162 0 0 1 1.848-.446c1.029 0 2.058.555 3.087 1.666 1.029 1.109 1.964 2.897 2.804 5.361.379 1.139.697 2.271.955 3.394.257 1.124.46 2.187.609 3.188.149 1.002.25 1.896.305 2.683.054.784.081 1.422.081 1.908v3.496z"/><path fill="#226C47" d="M138.669 159.321c-1.732 0-2.6-.744-2.6-2.233v-3.169c0-1.544.868-2.316 2.6-2.316h18.607v7.069c0 .433-.23.649-.69.649h-17.917z"/><path fill="#226C47" d="M185.309 172.037l-5.769 5.77-5.729-5.77 5.729-5.729 5.769 5.729zm-11.904 0l-5.728 5.77-5.729-5.77 5.729-5.729 5.728 5.729zm-16.373-12.716c-1.732 0-2.6-.744-2.6-2.233v-3.169c0-1.544.868-2.316 2.6-2.316h21.938c.623 0 .935-.258.935-.771 0-2.059-1.584-5.39-4.753-9.994l5.811-6.378c1.082 1.625 2.254 4.638 3.512 9.039 1.261 4.4 1.891 7.562 1.891 9.485v3.088c0 2.167-1.327 3.25-3.98 3.25h-25.354z"/><path fill="#226C47" d="M214.234 152.943c0-.38-.082-.899-.244-1.563-.162-.663-.38-1.368-.65-2.113s-.596-1.504-.975-2.275a14.834 14.834 0 0 0-1.239-2.093c-.446-.622-.914-1.13-1.401-1.522s-.989-.59-1.502-.59c-.435 0-.922.21-1.463.631-.543.42-1.051.907-1.524 1.463a10.898 10.898 0 0 0-1.198 1.685c-.325.569-.488 1.003-.488 1.3 0 .406.196.82.59 1.239.392.421.894.84 1.502 1.26.61.42 1.287.819 2.032 1.198.744.38 1.482.711 2.214.995.731.286 1.416.516 2.051.692.638.176 1.146.263 1.524.263.325 0 .535-.041.63-.122.093-.082.141-.231.141-.448m-28.114 6.378c-1.731 0-2.601-.744-2.601-2.233v-3.169c0-1.544.869-2.316 2.601-2.316 1.058 0 2.274-.122 3.657-.366a20.392 20.392 0 0 0 4.203-1.238c1.423-.582 2.789-1.382 4.104-2.397 1.313-1.016 2.417-2.296 3.312-3.839.894-1.517 1.719-2.803 2.478-3.86.759-1.056 1.47-1.915 2.134-2.579.663-.664 1.299-1.145 1.909-1.441a4.162 4.162 0 0 1 1.849-.448c1.028 0 2.058.556 3.086 1.666 1.031 1.111 1.965 2.899 2.805 5.363a37.06 37.06 0 0 1 .954 3.392c.258 1.124.461 2.188.61 3.19.147 1.002.25 1.895.303 2.681.056.785.082 1.422.082 1.91v3.494c0 1.109-.291 1.976-.873 2.599-.584.623-1.428.935-2.539.935-1.165 0-2.465-.177-3.9-.528a21.829 21.829 0 0 1-4.164-1.482 16.048 16.048 0 0 1-3.596-2.316c-1.057-.907-1.787-1.914-2.193-3.026a18.414 18.414 0 0 1-3.515 2.682 24.609 24.609 0 0 1-3.88 1.868 25.07 25.07 0 0 1-3.737 1.099c-1.193.237-2.222.359-3.089.359"/><path fill="#226C47" d="M265.098 150.75c0-2.005-.758-4.211-2.273-6.623-1.707-2.682-3.59-4.022-5.648-4.022-4.062 0-9.561 3.793-16.494 11.376 3.035.895 7.639 1.341 13.813 1.341 7.068-.001 10.602-.691 10.602-2.072m-47.736 8.571c-1.731 0-2.601-.744-2.601-2.233v-3.169c0-1.544.869-2.316 2.601-2.316 1.002 0 2.112-.143 3.332-.427a26.148 26.148 0 0 0 3.758-1.198 31.333 31.333 0 0 0 3.859-1.869 29.4 29.4 0 0 0 3.636-2.437 86.063 86.063 0 0 0 2.682-2.255c.623-.556 1.029-.833 1.219-.833.108 0 .168.047.183.142s.021.21.021.345c0 .163-.041.454-.123.874-.08.42-.121.97-.121 1.646 0 1.95.664 3.426 1.992 4.427 2.274-3.331 4.955-6.5 8.043-9.507 1.707-1.651 3.203-3.005 4.489-4.062 1.286-1.056 2.362-1.841 3.229-2.355 1.517-.867 3.224-1.3 5.119-1.3 3.576 0 6.283 2.465 8.125 7.394 1.301 3.548 1.951 7.435 1.951 11.659v5.566c0 2.112-5.662 3.169-16.982 3.169-1.354 0-2.811-.041-4.367-.121a50.398 50.398 0 0 1-4.591-.449 30.272 30.272 0 0 1-4.205-.893c-1.3-.379-2.343-.854-3.128-1.422a60.3 60.3 0 0 0-1.971 2.377 60.585 60.585 0 0 1-2.742 3.188c0-.703.169-1.617.508-2.741.338-1.124 1.104-2.525 2.295-4.205-.189-.188-.461-.527-.812-1.015a5.138 5.138 0 0 1-.771-1.544 28.466 28.466 0 0 1-4.062 2.6 29.833 29.833 0 0 1-3.961 1.728c-1.287.446-2.492.765-3.617.954-1.125.188-2.121.282-2.988.282"/><path fill="#226C47" d="M296.706 123.691l-5.77 5.771-5.728-5.771 5.728-5.727 5.77 5.727zm-11.822 0l-5.728 5.771-5.729-5.771 5.729-5.727 5.728 5.727zm-16.373 35.63c-1.731 0-2.601-.744-2.601-2.233v-3.169c0-1.544.869-2.316 2.601-2.316h21.938c.624 0 .936-.258.936-.771 0-2.059-1.584-5.39-4.753-9.994l5.81-6.378c1.083 1.625 2.255 4.638 3.514 9.039 1.26 4.4 1.89 7.562 1.89 9.485v3.088c0 2.167-1.327 3.25-3.981 3.25h-25.354z"/><path fill="#226C47" d="M297.6 159.321c-1.732 0-2.6-.744-2.6-2.233v-3.169c0-1.544.867-2.316 2.6-2.316h11.295c1.001 0 1.503-.447 1.503-1.341 0-6.663-1.49-18.173-4.469-34.532l5.322-5.931c.92 4.17 1.963 11.659 3.128 22.465 1.056 10.185 1.584 16.956 1.584 20.313v4.266c0 1.652-.88 2.479-2.641 2.479H297.6zM330.264 159.24l-5.241 3.088v-3.737c0-4.036-.447-10.062-1.341-18.079-1.002-9.182-2.221-17.415-3.656-24.701l5.403-6.012c3.222 18.93 4.835 35.413 4.835 49.441M375.196 119.467l-5.769 5.769-5.729-5.769 5.729-5.729 5.769 5.729zm-5.849 32.379c0-.46-.583-2.349-1.747-5.667-1.165-3.317-1.909-4.977-2.234-4.977-.65 0-2.112 1.314-4.388 3.941-2.356 2.735-3.534 4.713-3.534 5.931 0 1.273 1.854 1.909 5.565 1.909 4.224 0 6.338-.378 6.338-1.137m-5.973-32.379l-5.728 5.769-5.729-5.769 5.729-5.729 5.728 5.729zm11.213 38.026c0 .732-1.043 1.354-3.128 1.869-2.438.649-5.811.975-10.116.975-3.818 0-6.474-.556-7.963-1.666-1.273-.946-1.909-2.56-1.909-4.834 0-4.496 4.266-9.872 12.798-16.129l-.895-2.437 5.81-5.242c1.083 2.493 2.289 6.568 3.616 12.229 1.191 5.146 1.787 8.344 1.787 9.588v5.647zM392.504 159.321c0 1.271-.183 2.708-.548 4.307a70.127 70.127 0 0 1-1.483 5.362c-.678 2.167-1.416 4.091-2.214 5.769a74.846 74.846 0 0 1-2.418 4.673c-.515.704-1.056 1.259-1.625 1.665-.568.406-1.327.664-2.275.772a36.064 36.064 0 0 1-3.493.162c-2.248 0-3.372-.147-3.372-.447 0-.217.229-.515.69-.894 4.36-4.224 8.017-9.357 10.97-15.396 1.57-3.224 2.356-5.457 2.356-6.703-.218-.867-.569-1.85-1.057-2.946a33.61 33.61 0 0 0-1.706-3.31 44.304 44.304 0 0 0-2.052-3.19 30.925 30.925 0 0 0-2.011-2.58l4.753-7.108a65.707 65.707 0 0 1 2.519 4.143 23.615 23.615 0 0 1 1.706 3.82c.434 1.272.752 2.605.955 4.001.203 1.395.305 2.96.305 4.691v3.209zM406.398 159.24l-5.241 3.088v-3.737c0-4.036-.447-10.062-1.341-18.079-1.002-9.182-2.221-17.415-3.656-24.701l5.403-6.012c3.223 18.93 4.835 35.413 4.835 49.441M423.988 128.079l-5.728 5.729-5.729-5.729 5.729-5.769 5.728 5.769zm2.073 31.242c0 1.271-.183 2.708-.548 4.307a70.127 70.127 0 0 1-1.483 5.362c-.678 2.167-1.416 4.091-2.214 5.769a74.846 74.846 0 0 1-2.418 4.673c-.515.704-1.056 1.259-1.625 1.665-.568.406-1.327.664-2.275.772a36.064 36.064 0 0 1-3.493.162c-2.248 0-3.372-.147-3.372-.447 0-.217.229-.515.69-.894 4.36-4.224 8.017-9.357 10.969-15.396 1.571-3.224 2.357-5.457 2.357-6.703-.218-.867-.569-1.85-1.057-2.946a33.61 33.61 0 0 0-1.706-3.31 43.972 43.972 0 0 0-2.053-3.19 30.723 30.723 0 0 0-2.01-2.58l4.753-7.108a65.707 65.707 0 0 1 2.519 4.143 23.615 23.615 0 0 1 1.706 3.82c.434 1.272.752 2.605.955 4.001.202 1.395.305 2.96.305 4.691v3.209zM447.472 152.09c-.759-2.383-1.632-4.226-2.62-5.525-.99-1.299-2.066-1.95-3.23-1.95-.596 0-1.164.183-1.706.549a6.05 6.05 0 0 0-1.422 1.341 6.519 6.519 0 0 0-.955 1.728c-.23.623-.346 1.191-.346 1.706 0 .595.128 1.069.387 1.421a2.31 2.31 0 0 0 1.057.792c.446.177.968.292 1.563.346.596.055 1.245.081 1.95.081 1.164 0 2.207-.04 3.127-.122.921-.083 1.653-.205 2.195-.367m5.159 5.038a28.41 28.41 0 0 1-.812 6.825 32.815 32.815 0 0 1-2.274 6.337c-1.03 2.113-2.106 3.982-3.23 5.607a31.673 31.673 0 0 1-3.636 4.387 7.012 7.012 0 0 1-2.499 1.605c-.961.365-2.16.548-3.595.548-.163 0-.598-.014-1.301-.041-.704-.026-1.456-.081-2.255-.162s-1.517-.183-2.152-.305c-.637-.122-.955-.277-.955-.467 0-.217.271-.461.812-.731 2.085-1.085 4.205-2.525 6.358-4.328 2.153-1.799 4.367-4.096 6.643-6.885 1.407-1.733 2.524-3.393 3.352-4.977.825-1.585 1.239-3.014 1.239-4.286v-.935c-.786.189-1.707.331-2.763.427-1.057.095-2.384.143-3.981.143-1.165 0-2.249-.074-3.25-.224-1.003-.148-1.876-.434-2.621-.853-.745-.421-1.327-1.03-1.747-1.829-.42-.798-.629-1.849-.629-3.148s.188-2.735.567-4.307c.379-1.57 1.042-3.25 1.991-5.038 1.138-2.138 2.403-3.804 3.799-4.997 1.395-1.191 2.714-1.787 3.96-1.787 1.111 0 2.107.332 2.987.995.88.664 1.651 1.53 2.315 2.601s1.232 2.296 1.707 3.678c.474 1.38.853 2.796 1.137 4.245.285 1.448.494 2.856.63 4.225.135 1.367.203 2.594.203 3.677M196.096 254.322l-5.77 5.769-5.729-5.769 5.729-5.729 5.77 5.729zm-11.904 0l-5.728 5.769-5.729-5.769 5.729-5.729 5.728 5.729zm12.919-18.688h-1.098c-.135-2.031-.785-4.632-1.949-7.8-1.706-4.604-3.711-6.907-6.014-6.907-1.732 0-3.765.772-6.092 2.316-2.33 1.543-3.494 2.844-3.494 3.899 0 .65.635 1.341 1.908 2.072l4.428 2.599c2.545 1.491 3.819 2.954 3.819 4.389 0 1.002-.501 2.005-1.503 3.007-1.599 1.598-4.443 3.398-8.531 5.404-5.634 2.788-10.889 4.184-15.764 4.184-7.882 0-11.822-3.914-11.822-11.741 0-3.061 1.069-6.608 3.21-10.645 1.895-3.548 3.128-5.321 3.696-5.321.217 0 .339.121.366.365-.081-.026-.637 1.368-1.666 4.185-1.11 3.033-1.666 5.473-1.666 7.312 0 5.661 3.264 8.49 9.791 8.49 4.794 0 9.006-.567 12.636-1.704 2.896-.922 4.348-1.681 4.348-2.276 0-.055-1.539-.974-4.612-2.763-3.074-1.787-4.611-3.534-4.611-5.24 0-2.681 2.031-5.904 6.095-9.67 4.17-3.844 7.881-5.769 11.131-5.769 2.465 0 4.348 2.072 5.647 6.217 1.164 3.655 1.747 8.396 1.747 14.219v1.178z"/><path fill="#226C47" d="M197.68 235.634c-1.732 0-2.6-.744-2.6-2.234v-3.169c0-1.544.867-2.315 2.6-2.315h18.607v7.068c0 .434-.23.65-.69.65H197.68z"/><path fill="#226C47" d="M216.043 235.634c-1.732 0-2.6-.744-2.6-2.234v-3.169c0-1.544.867-2.315 2.6-2.315h25.555c.432 0 .649-.203.649-.609 0-.217-.853-1.273-2.56-3.169-1.922-2.14-3.846-4.049-5.769-5.729-4.063-3.548-7.272-5.932-9.628-7.15-.082.786-.34 1.179-.771 1.179-.354 0-1.166-.786-2.438-2.356-1.354-1.68-2.031-3.033-2.031-4.063 0-2.383.744-4.211 2.234-5.484 2.655-2.274 6.446-5.104 11.375-8.49 5.661-3.9 10.821-7.123 15.479-9.67l-1.666 7.76c-2.763 1.625-6.73 4.158-11.904 7.598-5.741 3.846-8.612 5.972-8.612 6.378 0 .081 1.179.922 3.535 2.519 3.168 2.113 6.229 4.768 9.181 7.963 2.059 2.222 4.165 4.903 6.316 8.045 2.154 3.142 3.231 5.118 3.231 5.93v4.389c0 1.788-.854 2.682-2.56 2.682h-29.616z"/><path fill="#226C47" d="M276.25 248.35l-5.768 5.77-5.729-5.77 5.729-5.729 5.768 5.729zm-11.902 0l-5.729 5.77-5.729-5.77 5.729-5.729 5.729 5.729zm-16.373-12.716c-1.732 0-2.6-.744-2.6-2.234v-3.169c0-1.544.867-2.315 2.6-2.315h21.938c.625 0 .936-.258.936-.772 0-2.058-1.584-5.389-4.753-9.994l5.81-6.378c1.084 1.625 2.256 4.639 3.514 9.039 1.26 4.401 1.89 7.563 1.89 9.486v3.088c0 2.167-1.327 3.25-3.981 3.25h-25.354z"/><path fill="#226C47" d="M301.521 222.593c-.218-1.869-.576-3.582-1.077-5.14-.501-1.557-1.076-2.904-1.727-4.042s-1.327-2.024-2.031-2.661c-.705-.636-1.382-.955-2.031-.955-.597 0-1.179.137-1.747.406a5.927 5.927 0 0 0-1.523 1.037c-.447.42-.812.887-1.097 1.401-.285.516-.427 1.016-.427 1.503 0 .623.257 1.226.771 1.808.515.583 1.172 1.138 1.971 1.666s1.666 1.029 2.6 1.503c.935.475 1.829.921 2.682 1.341.854.42 1.598.82 2.234 1.198.637.38 1.05.731 1.239 1.057l.163-.122zm-3.778-29.576l-5.729 5.729-5.77-5.729 5.77-5.769 5.729 5.769zm-20.68 42.617c-1.731 0-2.601-.744-2.601-2.234v-3.169c0-1.544.869-2.315 2.601-2.315h21.735l.122-.244c-.244-.351-.745-.683-1.504-.995a45.358 45.358 0 0 0-2.64-.976 70.883 70.883 0 0 1-3.169-1.157A16.884 16.884 0 0 1 288.56 223c-.922-.595-1.68-1.307-2.275-2.133s-.894-1.808-.894-2.945c0-.65.074-1.382.224-2.194a15.98 15.98 0 0 1 .69-2.519c.311-.866.704-1.753 1.178-2.661a19.65 19.65 0 0 1 1.646-2.62c2.546-3.359 4.875-5.038 6.988-5.038 1.651 0 3.094.792 4.326 2.377 1.232 1.584 2.322 4.042 3.271 7.374.379 1.299.684 2.62.914 3.961.229 1.341.413 2.675.549 4.001.135 1.328.223 2.628.264 3.9.041 1.273.061 2.479.061 3.616v5.12c0 1.597-1.029 2.396-3.087 2.396h-25.352zM318.991 235.553l-5.241 3.088v-3.738c0-4.035-.447-10.062-1.341-18.078-1.002-9.182-2.221-17.415-3.656-24.701l5.403-6.013c3.223 18.931 4.835 35.412 4.835 49.442M337.841 235.634c0 1.272-.183 2.708-.548 4.307a70.127 70.127 0 0 1-1.483 5.362c-.678 2.167-1.416 4.09-2.214 5.77a75.09 75.09 0 0 1-2.418 4.672c-.515.704-1.056 1.259-1.625 1.665-.568.406-1.327.664-2.275.772a36.117 36.117 0 0 1-3.493.162c-2.248 0-3.372-.147-3.372-.447 0-.217.229-.515.69-.894 4.36-4.224 8.017-9.357 10.97-15.397 1.57-3.223 2.356-5.457 2.356-6.702-.218-.867-.569-1.85-1.057-2.946s-1.057-2.2-1.706-3.311a44.504 44.504 0 0 0-2.052-3.189 30.76 30.76 0 0 0-2.011-2.58l4.753-7.109a65.998 65.998 0 0 1 2.519 4.144 23.606 23.606 0 0 1 1.706 3.819c.434 1.273.752 2.606.955 4.001.203 1.396.305 2.96.305 4.692v3.209z"/><path fill="#226C47" d="M362.461 243.19l-5.729 5.769-5.729-5.769 5.729-5.729 5.729 5.729zm.121-20.678c-.515-.136-1.083-.42-1.706-.854a27.293 27.293 0 0 1-1.95-1.503 360.071 360.071 0 0 1-2.112-1.788 35.567 35.567 0 0 0-2.194-1.727 13.304 13.304 0 0 0-2.193-1.3c-.731-.338-1.422-.508-2.073-.508-1.922 0-3.452.921-4.59 2.763-.623.948-1.016 1.422-1.178 1.422-.217 0-.325-.135-.325-.406 0-.623.143-1.408.426-2.356.285-.947.779-2.072 1.483-3.372.921-1.706 1.936-2.992 3.047-3.859 1.11-.865 2.262-1.3 3.454-1.3.92 0 1.854.223 2.803.67s1.909 1.036 2.885 1.768c.975.731 1.97 1.563 2.985 2.498 1.017.935 2.065 1.869 3.149 2.804a64.2 64.2 0 0 0 3.352 2.701 23.049 23.049 0 0 0 3.595 2.234c3.251 1.625 5.309 2.438 6.176 2.438v7.23a37.086 37.086 0 0 0-3.433-.487 43.309 43.309 0 0 0-4.328-.203c-2.111 0-4.271.048-6.479.143a84.983 84.983 0 0 0-6.643.548c-2.222.271-4.415.645-6.582 1.118s-4.279 1.076-6.339 1.808c-2.03.731-3.526 1.354-4.488 1.869-.961.515-1.509.771-1.645.771-1.002 0-1.504-.474-1.504-1.422v-5.565a38.251 38.251 0 0 1 6.562-2.926 55.017 55.017 0 0 1 6.947-1.868c2.315-.461 4.577-.786 6.784-.976s4.246-.284 6.114-.284v-.081z"/><path fill="#226C47" d="M377.37 235.634c-1.732 0-2.6-.744-2.6-2.234v-3.169c0-1.544.867-2.315 2.6-2.315h11.295c1.001 0 1.503-.447 1.503-1.341 0-6.663-1.49-18.174-4.469-34.532l5.322-5.932c.92 4.171 1.963 11.659 3.128 22.466 1.056 10.185 1.584 16.956 1.584 20.313v4.266c0 1.652-.88 2.479-2.641 2.479H377.37zM410.035 235.553l-5.241 3.088v-3.738c0-4.035-.447-10.062-1.341-18.078-1.002-9.182-2.221-17.415-3.656-24.701l5.403-6.013c3.223 18.931 4.835 35.412 4.835 49.442"/></svg>