<svg xmlns="http://www.w3.org/2000/svg" width="589.8" height="311.367"><g fill="#EBF400"><path d="M589.326 88.816c-23.93-35.819-81.684-36.231-84.13-36.231-40.147 0-70.713-12.553-103.074-25.841C370.251 13.654 337.291.119 294.902.119c-42.387 0-75.346 13.536-107.221 26.625-32.36 13.288-62.926 25.841-103.073 25.841-.61 0-15.154.052-32.813 4.456C28.172 62.935 10.427 73.921.477 88.816L0 89.529v132.312l.477.708c23.93 35.821 81.685 36.233 84.132 36.233 40.147 0 70.713 12.552 103.073 25.84 31.875 13.09 64.833 26.626 107.22 26.626 42.391 0 75.349-13.536 107.222-26.626 32.361-13.288 62.927-25.84 103.074-25.84.607 0 15.152-.052 32.81-4.455 23.625-5.894 41.37-16.883 51.318-31.778l.475-.708V89.529l-.475-.713zm-5.177 131.3c-22.562 32.595-78.389 33.018-78.953 33.018-41.262 0-73.778 13.354-105.223 26.267-31.364 12.879-63.799 26.199-105.072 26.199-41.271 0-73.706-13.32-105.07-26.199-31.446-12.915-63.961-26.267-105.224-26.267-.564 0-56.367-.38-78.955-33.018V91.252c22.562-32.598 78.391-33.02 78.955-33.02 41.263 0 73.776-13.353 105.224-26.265 31.364-12.882 63.799-26.2 105.07-26.2 41.273 0 73.708 13.318 105.072 26.2 31.444 12.912 63.961 26.265 105.223 26.265.564 0 56.366.377 78.953 33.02v128.864z"/><path d="M138.707 126.448c0 1.212-.319 2.158-.954 2.838-.636.68-1.562 1.02-2.774 1.02-1.244 0-2.634-.186-4.172-.554a23.83 23.83 0 0 1-4.461-1.552c-1.437-.666-2.738-1.479-3.907-2.439s-1.991-2.018-2.462-3.173c-.534.623-1.259 1.227-2.176 1.819a56.266 56.266 0 0 0-2.707 1.862 14.39 14.39 0 0 0-2.309 2.085c-.651.738-.976 1.567-.976 2.484 0 1.419.294 3.03.886 4.834.592 1.803 1.236 3.776 1.933 5.92a93.842 93.842 0 0 1 1.931 6.896c.591 2.455.887 5.057.887 7.806 0 .652-.066 1.177-.199 1.575-.134.401-.349.6-.644.6-.297 0-.526-.171-.688-.51a5.16 5.16 0 0 1-.376-1.088 63.4 63.4 0 0 0-2.575-7.739 2249.82 2249.82 0 0 1-2.997-7.43 93.251 93.251 0 0 1-2.462-6.852c-.682-2.173-1.021-4.177-1.021-6.01 0-1.714.422-3.371 1.265-4.967.844-1.597 2.42-3.15 4.727-4.658 2.072-1.331 3.796-2.55 5.172-3.659 1.375-1.11 2.477-2.357 3.306-3.749.978-1.655 1.887-3.06 2.73-4.212.844-1.154 1.627-2.084 2.352-2.795.726-.709 1.421-1.227 2.087-1.551.666-.325 1.337-.49 2.019-.49 1.125 0 2.25.608 3.373 1.819 1.125 1.213 2.147 3.166 3.064 5.855a40.15 40.15 0 0 1 1.043 3.704c.28 1.227.503 2.388.665 3.482.163 1.094.273 2.069.334 2.927.059.856.088 1.552.088 2.083v3.819zm-3.684-4.568c0-.415-.089-.983-.267-1.708a22.006 22.006 0 0 0-.71-2.306 24.768 24.768 0 0 0-1.065-2.484 16 16 0 0 0-1.354-2.285c-.488-.679-.999-1.233-1.532-1.663-.532-.427-1.08-.643-1.643-.643-.472 0-1.006.229-1.598.688-.592.458-1.146.992-1.663 1.597-.519.605-.954 1.22-1.31 1.84-.355.621-.533 1.095-.533 1.419 0 .444.216.896.643 1.353.43.459.978.917 1.643 1.375.667.458 1.405.893 2.219 1.308.815.415 1.622.776 2.42 1.085.799.311 1.545.564 2.241.756.697.19 1.251.287 1.666.287.355 0 .584-.045.687-.133.103-.087.156-.249.156-.486"/><path d="M138.44 128.843c-1.893 0-2.841-.812-2.841-2.439v-3.46c0-1.686.948-2.529 2.841-2.529h20.329v7.718c0 .474-.25.71-.753.71H138.44z"/><path d="M158.503 128.843c-1.894 0-2.84-.812-2.84-2.439v-3.46c0-1.686.947-2.529 2.84-2.529h23.968c.681 0 1.022-.28 1.022-.842 0-2.247-1.73-5.884-5.193-10.911l6.346-6.963c1.183 1.774 2.463 5.064 3.84 9.868 1.376 4.804 2.065 8.256 2.065 10.355v3.372c0 2.366-1.452 3.548-4.351 3.548h-27.697zm17.889 13.882l-6.26 6.298-6.257-6.298 6.257-6.255 6.26 6.255zm13.005 0l-6.304 6.298-6.257-6.298 6.257-6.255 6.304 6.255z"/><path d="M190.284 128.843c-1.894 0-2.841-.812-2.841-2.439v-3.46c0-1.686.947-2.527 2.841-2.527 1.153 0 2.485-.133 3.996-.4a22.384 22.384 0 0 0 4.593-1.353c1.553-.635 3.046-1.507 4.483-2.616 1.435-1.109 2.641-2.508 3.617-4.192.977-1.655 1.879-3.06 2.708-4.213.827-1.154 1.604-2.091 2.329-2.816.727-.725 1.421-1.25 2.088-1.574.666-.325 1.337-.49 2.018-.49 1.126 0 2.25.608 3.374 1.819 1.125 1.213 2.146 3.166 3.064 5.855a40.14 40.14 0 0 1 1.042 3.704 44.58 44.58 0 0 1 .665 3.482c.164 1.094.273 2.069.334 2.927.06.856.089 1.552.089 2.083v3.815c0 1.212-.319 2.158-.955 2.838-.637.68-1.562 1.02-2.774 1.02-1.273 0-2.694-.193-4.261-.578a23.67 23.67 0 0 1-4.549-1.618 17.494 17.494 0 0 1-3.929-2.529c-1.154-.991-1.952-2.09-2.397-3.304a20.09 20.09 0 0 1-3.839 2.928 27.177 27.177 0 0 1-4.239 2.04 27.23 27.23 0 0 1-4.083 1.198c-1.304.266-2.427.4-3.374.4M221 121.88c0-.415-.089-.983-.267-1.708a22.023 22.023 0 0 0-.711-2.306 24.741 24.741 0 0 0-1.063-2.484 16.188 16.188 0 0 0-1.354-2.285c-.489-.679-.999-1.233-1.532-1.663-.532-.427-1.08-.643-1.643-.643-.472 0-1.007.229-1.598.688-.592.458-1.146.992-1.664 1.597-.52.605-.955 1.22-1.309 1.84-.355.621-.535 1.095-.535 1.419 0 .444.216.896.645 1.353.429.459.978.917 1.642 1.375.667.458 1.405.893 2.219 1.308a26.097 26.097 0 0 0 4.661 1.841c.695.19 1.25.287 1.665.287.355 0 .584-.045.687-.133.104-.087.157-.249.157-.486"/><path d="M224.417 128.842c-1.894 0-2.841-.812-2.841-2.438v-3.46c0-1.686.947-2.527 2.841-2.527 1.095 0 2.309-.156 3.641-.466a28.581 28.581 0 0 0 4.106-1.308 34.25 34.25 0 0 0 4.216-2.042 32.168 32.168 0 0 0 3.973-2.66c1.271-1.035 2.248-1.855 2.928-2.461s1.126-.91 1.333-.91c.118 0 .185.052.2.156.014.103.021.229.021.375 0 .178-.043.496-.134.954-.087.458-.132 1.059-.132 1.797 0 2.129.724 3.741 2.174 4.834 2.487-3.637 5.415-7.096 8.789-10.379 1.864-1.804 3.499-3.281 4.904-4.436 1.407-1.151 2.582-2.01 3.53-2.571 1.657-.946 3.522-1.419 5.592-1.419 3.906 0 6.865 2.69 8.877 8.071 1.422 3.874 2.13 8.118 2.13 12.729v6.077c0 2.305-6.185 3.459-18.552 3.459-1.481 0-3.072-.045-4.772-.133a55.716 55.716 0 0 1-5.016-.488 33.545 33.545 0 0 1-4.594-.976c-1.42-.415-2.56-.932-3.417-1.553a66.578 66.578 0 0 0-2.155 2.595c-.784.991-1.783 2.151-2.994 3.482 0-.769.184-1.767.554-2.994.369-1.228 1.205-2.757 2.507-4.592-.208-.205-.503-.575-.889-1.107a5.653 5.653 0 0 1-.842-1.685 31.016 31.016 0 0 1-4.439 2.837 32.153 32.153 0 0 1-4.328 1.886c-1.406.487-2.722.835-3.95 1.042-1.226.208-2.313.311-3.261.311m52.155-9.358c0-2.188-.83-4.597-2.485-7.229-1.865-2.928-3.922-4.392-6.171-4.392-4.438 0-10.445 4.141-18.02 12.419 3.313.977 8.345 1.464 15.09 1.464 7.724 0 11.586-.753 11.586-2.262"/><path d="M280.3 128.843c-1.894 0-2.84-.812-2.84-2.439v-3.46c0-1.686.947-2.527 2.84-2.527h23.967c.682 0 1.022-.283 1.022-.844 0-2.246-1.73-5.883-5.193-10.911l6.346-6.963c1.185 1.774 2.465 5.063 3.841 9.868 1.377 4.805 2.064 8.257 2.064 10.356v3.371c0 2.366-1.449 3.548-4.35 3.548H280.3zm17.889-38.898l-6.261 6.299-6.258-6.299 6.258-6.254 6.261 6.254zm12.916 0l-6.306 6.299-6.257-6.299 6.257-6.254 6.306 6.254z"/><path d="M312.081 128.843c-1.894 0-2.841-.812-2.841-2.439v-3.46c0-1.686.947-2.529 2.841-2.529h12.339c1.096 0 1.645-.487 1.645-1.464 0-7.274-1.629-19.839-4.883-37.698l5.812-6.476c1.005 4.552 2.146 12.729 3.418 24.525 1.155 11.12 1.73 18.511 1.73 22.178v4.656c0 1.805-.962 2.707-2.885 2.707h-17.176zM347.767 128.754l-5.726 3.371v-4.081c0-4.406-.488-10.984-1.466-19.737-1.095-10.022-2.426-19.012-3.994-26.966l5.904-6.563c3.521 20.667 5.282 38.66 5.282 53.976M396.194 126.846c0 .799-1.14 1.479-3.418 2.042-2.664.709-6.347 1.064-11.054 1.064-4.171 0-7.072-.608-8.698-1.819-1.391-1.034-2.087-2.794-2.087-5.277 0-4.908 4.66-10.777 13.983-17.609l-.977-2.66 6.346-5.722c1.183 2.721 2.501 7.17 3.952 13.35 1.302 5.618 1.952 9.108 1.952 10.467v6.164zm-12.25-41.513l-6.259 6.297-6.259-6.297 6.259-6.255 6.259 6.255zm6.522 35.349c0-.502-.636-2.565-1.908-6.187-1.271-3.622-2.084-5.434-2.44-5.434-.71 0-2.308 1.435-4.793 4.303-2.576 2.987-3.862 5.145-3.862 6.475 0 1.391 2.027 2.085 6.079 2.085 4.618 0 6.924-.414 6.924-1.242m6.394-35.349l-6.304 6.297-6.259-6.297 6.259-6.255 6.304 6.255zM415.768 128.843c0 1.388-.2 2.957-.598 4.702a76.902 76.902 0 0 1-1.622 5.854c-.74 2.366-1.547 4.465-2.417 6.298a83.743 83.743 0 0 1-2.642 5.1c-.563.769-1.155 1.375-1.775 1.818-.621.444-1.452.725-2.486.844a38.764 38.764 0 0 1-3.817.177c-2.456 0-3.686-.162-3.686-.487 0-.238.252-.563.755-.977 4.766-4.612 8.758-10.216 11.984-16.81 1.718-3.518 2.576-5.958 2.576-7.318-.237-.947-.622-2.018-1.154-3.215s-1.155-2.402-1.864-3.614a48.94 48.94 0 0 0-2.241-3.482 34.142 34.142 0 0 0-2.196-2.817l5.191-7.761a72.705 72.705 0 0 1 2.753 4.522 25.692 25.692 0 0 1 1.863 4.171c.474 1.39.82 2.845 1.043 4.368.223 1.523.333 3.231.333 5.123v3.504zM430.949 128.754l-5.726 3.371v-4.081c0-4.406-.488-10.984-1.466-19.737-1.095-10.022-2.427-19.012-3.994-26.966l5.904-6.563c3.521 20.667 5.282 38.66 5.282 53.976M452.43 128.842c0 1.39-.198 2.958-.6 4.703-.398 1.743-.938 3.695-1.619 5.854-.741 2.366-1.547 4.465-2.418 6.299a82.647 82.647 0 0 1-2.642 5.1c-.563.769-1.154 1.374-1.775 1.818-.621.443-1.451.725-2.485.843a38.99 38.99 0 0 1-3.818.177c-2.456 0-3.683-.162-3.683-.487 0-.238.249-.564.753-.978 4.763-4.611 8.76-10.215 11.986-16.809 1.715-3.518 2.573-5.958 2.573-7.318-.238-.946-.621-2.018-1.154-3.216a35.824 35.824 0 0 0-1.866-3.613 48.35 48.35 0 0 0-2.239-3.483 33.881 33.881 0 0 0-2.196-2.817l5.191-7.76a71.094 71.094 0 0 1 2.751 4.523 25.365 25.365 0 0 1 1.865 4.17 24.364 24.364 0 0 1 1.043 4.368c.223 1.522.333 3.231.333 5.122v3.504zm-2.263-34.107l-6.259 6.254-6.257-6.254 6.257-6.298 6.259 6.298zM481.46 126.448c0 2.572-.295 5.056-.889 7.45a35.65 35.65 0 0 1-2.483 6.919c-1.127 2.306-2.303 4.347-3.53 6.121a34.47 34.47 0 0 1-3.973 4.789 7.682 7.682 0 0 1-2.729 1.754c-1.05.399-2.359.598-3.928.598-.177 0-.651-.015-1.421-.044a40.109 40.109 0 0 1-2.463-.178 27.329 27.329 0 0 1-2.352-.333c-.696-.133-1.044-.304-1.044-.51 0-.237.294-.503.888-.798 2.277-1.184 4.594-2.757 6.945-4.725 2.353-1.965 4.772-4.472 7.258-7.516 1.538-1.894 2.759-3.704 3.662-5.433.9-1.73 1.354-3.291 1.354-4.679v-1.021c-.859.208-1.866.361-3.019.467-1.154.104-2.604.155-4.352.155-1.271 0-2.456-.081-3.551-.243-1.094-.163-2.048-.473-2.861-.932-.815-.458-1.451-1.125-1.909-1.996-.46-.873-.688-2.019-.688-3.438s.206-2.986.621-4.703c.413-1.713 1.139-3.548 2.174-5.5 1.244-2.334 2.627-4.153 4.151-5.456 1.523-1.299 2.966-1.95 4.326-1.95a5.29 5.29 0 0 1 3.264 1.085c.962.725 1.803 1.671 2.528 2.84s1.349 2.505 1.865 4.014a35.023 35.023 0 0 1 1.244 4.634c.309 1.582.537 3.12.688 4.612a40.36 40.36 0 0 1 .224 4.017m-5.636-5.5c-.829-2.602-1.783-4.614-2.863-6.032-1.08-1.419-2.258-2.13-3.529-2.13-.65 0-1.272.2-1.865.6a6.632 6.632 0 0 0-1.553 1.464 7.244 7.244 0 0 0-1.044 1.885c-.249.68-.376 1.302-.376 1.863 0 .649.142 1.168.421 1.552.281.385.668.672 1.157.864.485.192 1.055.319 1.706.377.651.06 1.361.087 2.133.087 1.271 0 2.411-.042 3.415-.132 1.007-.088 1.805-.221 2.398-.398M202.292 212.154h-1.198c-.149-2.218-.859-5.056-2.13-8.515-1.864-5.027-4.054-7.542-6.569-7.542-1.894 0-4.115.845-6.659 2.529-2.546 1.685-3.818 3.104-3.818 4.256 0 .712.696 1.465 2.086 2.265l4.84 2.838c2.78 1.625 4.171 3.222 4.171 4.789 0 1.094-.547 2.189-1.642 3.283-1.746 1.742-4.854 3.711-9.321 5.898-6.155 3.045-11.896 4.569-17.221 4.569-8.612 0-12.918-4.273-12.918-12.819 0-3.341 1.169-7.213 3.507-11.62 2.072-3.873 3.417-5.809 4.039-5.809.236 0 .37.132.4.398-.088-.029-.695 1.493-1.82 4.567-1.214 3.312-1.82 5.975-1.82 7.983 0 6.182 3.565 9.271 10.697 9.271 5.238 0 9.84-.62 13.804-1.863 3.167-1.004 4.75-1.834 4.75-2.484 0-.06-1.679-1.063-5.037-3.015-3.359-1.951-5.038-3.859-5.038-5.721 0-2.928 2.219-6.448 6.657-10.557 4.556-4.198 8.61-6.299 12.161-6.299 2.694 0 4.751 2.263 6.171 6.787 1.271 3.989 1.909 9.166 1.909 15.522v1.289zm-14.115 20.404l-6.26 6.296-6.257-6.296 6.257-6.256 6.26 6.256zm13.006 0l-6.305 6.296-6.256-6.296 6.256-6.256 6.305 6.256z"/><path d="M202.913 212.154c-1.893 0-2.841-.812-2.841-2.439v-3.459c0-1.687.948-2.528 2.841-2.528h20.328v7.717c0 .473-.25.71-.753.71h-19.575z"/><path d="M222.976 212.154c-1.893 0-2.841-.812-2.841-2.439v-3.459c0-1.687.948-2.528 2.841-2.528h27.919c.472 0 .709-.222.709-.665 0-.237-.931-1.391-2.796-3.459-2.101-2.337-4.202-4.42-6.303-6.256-4.439-3.872-7.946-6.474-10.519-7.804-.09.856-.372 1.285-.844 1.285-.386 0-1.273-.857-2.663-2.573-1.48-1.832-2.22-3.31-2.22-4.436 0-2.601.813-4.597 2.44-5.987 2.901-2.481 7.043-5.571 12.428-9.269 6.186-4.258 11.823-7.776 16.914-10.558l-1.82 8.473c-3.019 1.773-7.354 4.539-13.006 8.294-6.273 4.198-9.41 6.519-9.41 6.964 0 .088 1.288 1.004 3.861 2.749 3.461 2.307 6.806 5.204 10.032 8.692 2.248 2.427 4.55 5.353 6.901 8.783 2.354 3.431 3.531 5.589 3.531 6.476v4.789c0 1.951-.934 2.928-2.798 2.928h-32.356z"/><path d="M257.863 212.154c-1.894 0-2.84-.812-2.84-2.439v-3.459c0-1.687.946-2.528 2.84-2.528h23.968c.681 0 1.022-.281 1.022-.843 0-2.247-1.73-5.885-5.193-10.91l6.346-6.964c1.184 1.773 2.464 5.063 3.84 9.868 1.376 4.804 2.064 8.256 2.064 10.355v3.371c0 2.367-1.451 3.549-4.351 3.549h-27.696zm17.888 13.883l-6.26 6.299-6.258-6.299 6.258-6.256 6.26 6.256zm13.005 0l-6.304 6.299-6.258-6.299 6.258-6.256 6.304 6.256z"/><path d="M289.644 212.154c-1.893 0-2.841-.812-2.841-2.439v-3.459c0-1.687.949-2.528 2.841-2.528h23.746l.133-.267c-.265-.384-.813-.746-1.642-1.086a48.826 48.826 0 0 0-2.885-1.065 77.27 77.27 0 0 1-3.462-1.263 18.427 18.427 0 0 1-3.328-1.687c-1.008-.65-1.838-1.427-2.486-2.328-.651-.902-.978-1.973-.978-3.216 0-.71.081-1.51.245-2.395.162-.889.415-1.804.754-2.75a23.22 23.22 0 0 1 1.287-2.904 21.577 21.577 0 0 1 1.796-2.861c2.782-3.666 5.327-5.499 7.638-5.499 1.804 0 3.378.863 4.727 2.595 1.347 1.729 2.537 4.411 3.572 8.049a39.45 39.45 0 0 1 .999 4.324 64.46 64.46 0 0 1 .599 4.369c.147 1.45.243 2.868.288 4.258.045 1.391.066 2.706.066 3.947v5.589c0 1.744-1.124 2.616-3.371 2.616h-27.698zm22.594-46.526l-6.259 6.254-6.304-6.254 6.304-6.298 6.259 6.298zm4.127 32.289c-.236-2.041-.629-3.91-1.176-5.612-.548-1.697-1.176-3.168-1.886-4.411-.711-1.241-1.452-2.209-2.22-2.904-.771-.695-1.511-1.043-2.22-1.043-.652 0-1.288.149-1.909.441a6.637 6.637 0 0 0-1.665 1.133c-.488.458-.887.97-1.197 1.53-.313.563-.467 1.109-.467 1.642 0 .681.281 1.337.843 1.973.563.636 1.28 1.243 2.153 1.819.873.577 1.82 1.123 2.841 1.64 1.021.52 1.999 1.006 2.929 1.465.934.458 1.746.896 2.441 1.307.695.416 1.146.8 1.355 1.156l.178-.136zM335.453 212.066l-5.728 3.371v-4.081c0-4.407-.489-10.985-1.464-19.738-1.095-10.021-2.426-19.011-3.995-26.967l5.903-6.562c3.521 20.668 5.284 38.662 5.284 53.977M356.046 212.154c0 1.388-.2 2.957-.6 4.701-.398 1.744-.938 3.695-1.619 5.855-.741 2.364-1.548 4.465-2.42 6.296a81.575 81.575 0 0 1-2.642 5.101c-.562.77-1.152 1.375-1.776 1.819-.62.443-1.448.725-2.485.844-.621.058-1.242.103-1.865.133a44.74 44.74 0 0 1-1.952.044c-2.457 0-3.684-.162-3.684-.488 0-.236.253-.562.756-.977 4.763-4.611 8.758-10.215 11.983-16.808 1.717-3.519 2.575-5.958 2.575-7.318-.238-.946-.622-2.02-1.153-3.218a36.63 36.63 0 0 0-1.865-3.611 47.633 47.633 0 0 0-2.243-3.484c-.782-1.106-1.515-2.047-2.195-2.814l5.194-7.762a72.564 72.564 0 0 1 2.75 4.522 25.802 25.802 0 0 1 1.865 4.171c.474 1.39.821 2.845 1.041 4.367.222 1.524.335 3.232.335 5.123v3.504z"/><path d="M383.077 197.827c-.563-.146-1.182-.458-1.863-.93-.68-.473-1.392-1.021-2.131-1.642s-1.51-1.271-2.307-1.951a39.04 39.04 0 0 0-2.399-1.887 14.444 14.444 0 0 0-2.396-1.418c-.8-.369-1.553-.555-2.264-.555-2.1 0-3.772 1.005-5.015 3.016-.681 1.036-1.11 1.554-1.287 1.554-.236 0-.355-.149-.355-.443 0-.68.155-1.537.467-2.573.31-1.034.85-2.263 1.62-3.683 1.004-1.861 2.114-3.267 3.328-4.211 1.212-.947 2.471-1.42 3.772-1.42 1.006 0 2.025.245 3.063.731 1.037.488 2.086 1.13 3.15 1.93 1.065.799 2.154 1.707 3.264 2.727s2.256 2.041 3.439 3.06a69.908 69.908 0 0 0 3.661 2.951 25.216 25.216 0 0 0 3.929 2.439c3.551 1.774 5.801 2.661 6.748 2.661v7.896c-1.037-.209-2.288-.386-3.751-.533a47.767 47.767 0 0 0-4.728-.222c-2.309 0-4.669.052-7.079.156a92.022 92.022 0 0 0-7.258.599 76.467 76.467 0 0 0-7.191 1.22 56.468 56.468 0 0 0-6.924 1.973c-2.22.799-3.854 1.478-4.904 2.04-1.052.563-1.65.843-1.797.843-1.095 0-1.644-.517-1.644-1.553v-6.074a41.808 41.808 0 0 1 7.168-3.196 60.903 60.903 0 0 1 7.591-2.039 67.74 67.74 0 0 1 7.413-1.063 78.529 78.529 0 0 1 6.679-.312v-.091zm-.132 22.576l-6.259 6.299-6.259-6.299 6.259-6.254 6.259 6.254z"/><path d="M399.235 212.154c-1.894 0-2.843-.812-2.843-2.439v-3.459c0-1.687.949-2.528 2.843-2.528h12.34c1.093 0 1.642-.488 1.642-1.465 0-7.273-1.629-19.839-4.883-37.698l5.814-6.476c1.005 4.552 2.145 12.729 3.417 24.525 1.154 11.119 1.73 18.512 1.73 22.177v4.657c0 1.804-.96 2.706-2.883 2.706h-17.177zM434.922 212.066l-5.727 3.371v-4.081c0-4.407-.488-10.985-1.466-19.738-1.095-10.021-2.426-19.011-3.994-26.967l5.905-6.562c3.522 20.668 5.282 38.662 5.282 53.977"/></g></svg>