<?xml version="1.0" encoding="utf-8"?>
<!-- Generator: Adobe Illustrator 16.0.4, SVG Export Plug-In . SVG Version: 6.00 Build 0)  -->
<!DOCTYPE svg PUBLIC "-//W3C//DTD SVG 1.1//EN" "http://www.w3.org/Graphics/SVG/1.1/DTD/svg11.dtd">
<svg version="1.1" id="Layer_1" xmlns="http://www.w3.org/2000/svg" xmlns:xlink="http://www.w3.org/1999/xlink" x="0px" y="0px"
	 width="589.8px" height="311.366px" viewBox="0 0 589.8 311.366" enable-background="new 0 0 589.8 311.366" xml:space="preserve">
<path fill="#00bbd1" d="M589.325,88.766c-23.929-35.848-81.684-36.26-84.13-36.26c-40.147,0-70.713-12.562-103.074-25.861
	C370.248,13.545,337.289,0,294.9,0c-42.388,0-75.347,13.545-107.22,26.645c-32.361,13.299-62.927,25.861-103.074,25.861
	c-0.61,0-15.154,0.052-32.813,4.46c-23.622,5.898-41.367,16.893-51.318,31.8L0,89.478V221.89l0.475,0.711
	c23.931,35.848,81.686,36.26,84.132,36.26c40.147,0,70.713,12.562,103.074,25.861c31.873,13.1,64.832,26.645,107.22,26.645
	c42.389,0,75.348-13.545,107.221-26.645c32.361-13.299,62.927-25.861,103.074-25.861c0.61,0,15.154-0.051,32.812-4.459
	c23.623-5.897,41.369-16.894,51.318-31.801l0.475-0.711V89.478L589.325,88.766z M584.148,220.163
	c-22.562,32.623-78.389,33.046-78.953,33.046c-41.263,0-73.778,13.362-105.223,26.286c-31.366,12.89-63.799,26.219-105.072,26.219
	c-41.272,0-73.705-13.329-105.071-26.219c-31.444-12.924-63.96-26.286-105.223-26.286c-0.564,0-56.367-0.379-78.955-33.046V91.203
	c22.564-32.622,78.391-33.046,78.955-33.046c41.263,0,73.778-13.362,105.223-26.285c31.366-12.891,63.799-26.22,105.071-26.22
	c41.273,0,73.706,13.329,105.072,26.22c31.444,12.923,63.96,26.285,105.223,26.285c0.564,0,56.367,0.379,78.953,33.046V220.163z"/>
<path fill="#00bbd1" d="M179.957,93.53c0.581-1.525,1.089-2.977,1.089-4.502v-0.072h12.562v0.218
	c-1.742,0.508-2.25,2.614-2.25,4.285l4.791,35.654c0.436,3.413,0.8,5.372,3.703,7.407v0.217h-14.014v-0.217
	c2.54-0.801,2.977-2.979,2.977-5.448l-4.14-35.001l-16.266,41.609c-3.631-2.76-4.647-4.719-6.391-8.787l-13.797-32.748l-4.14,31.226
	c-0.579,4.429-1.089,7.624,2.324,9.149v0.217h-11.836v-0.217c3.051-2.688,3.484-6.246,4.066-10.167l4.14-30.426
	c0.29-2.034,1.089-4.938-2.252-6.754v-0.218h12.707v0.072c0,1.163,0.582,2.252,1.018,3.268l13.652,32.024L179.957,93.53z"/>
<path fill="#00bbd1" d="M206.771,103.333c1.671,0,3.486-0.071,4.721-1.16h0.218v26.504c0,3.342-0.437,6.027,2.76,7.844v0.217H202.34
	v-0.217c3.196-1.816,2.76-4.502,2.76-7.844v-17.355c0-3.341,0.437-5.955-2.76-7.77v-0.219H206.771z M208.15,98.977
	c-2.687,0-4.719-2.104-4.719-4.793c0-2.541,2.321-4.283,4.719-4.283c2.469,0,4.356,2.104,4.356,4.502
	C212.507,96.798,210.619,98.977,208.15,98.977z"/>
<path fill="#00bbd1" d="M222.317,103.333c1.597,0,3.339-0.071,4.864-0.943h0.219v5.591c2.541-3.484,5.518-5.591,10.239-5.591
	c4.065,0,8.713,1.599,11.037,5.012c2.033,2.903,1.815,7.405,1.815,10.818v10.529c0,3.341-0.436,5.955,2.758,7.771v0.217h-12.126
	v-0.217c3.196-1.816,2.76-4.502,2.76-7.771v-9.803c0-7.77-2.179-11.764-8.787-11.764c-6.606,0-7.696,4.43-7.696,8.713v12.854
	c0,3.341-0.436,5.955,2.758,7.771v0.217h-12.126v-0.217c3.195-1.816,2.76-4.502,2.76-7.844v-17.283c0-3.34,0.436-6.027-2.76-7.842
	v-0.219H222.317z"/>
<path fill="#00bbd1" d="M261.04,103.333c1.671,0,3.486-0.071,4.722-1.16h0.217v26.504c0,3.342-0.437,6.027,2.76,7.844v0.217H256.61
	v-0.217c3.195-1.816,2.76-4.502,2.76-7.844v-17.355c0-3.341,0.436-5.955-2.76-7.77v-0.219H261.04z M262.42,98.977
	c-2.686,0-4.721-2.104-4.721-4.793c0-2.541,2.325-4.283,4.721-4.283c2.47,0,4.357,2.104,4.357,4.502
	C266.777,96.798,264.89,98.977,262.42,98.977z"/>
<path fill="#00bbd1" d="M295.389,109.506c-2.688-1.452-5.737-2.323-8.933-2.323c-2.396,0-6.754,0.581-6.754,3.486
	c0,6.461,19.681,4.138,19.681,15.685c0,6.754-6.899,11.327-16.268,11.327c-3.268,0-6.391-0.508-9.438-1.742l-2.543-7.116
	c4.211,2.687,8.642,4.066,13.651,4.066c2.978,0,7.989-1.016,7.989-4.72c0-7.335-19.68-5.012-19.68-16.049
	c0-7.697,7.987-9.73,14.233-9.73c2.687,0,5.446,0.219,8.061,0.943V109.506z"/>
<path fill="#00bbd1" d="M311.754,122.649c0,2.76-0.87,10.239,6.899,10.239c1.018,0,1.961-0.362,2.905-0.728l-3.85,5.158
	c-0.727,0.217-1.524,0.361-2.323,0.361c-11.256,0-10.239-11.618-10.239-14.449v-15.105h-4.938v-2.614
	c6.825-1.161,8.642-6.245,8.642-12.997h2.903v10.818h6.827c0.944,0,2.033,0,2.759-0.434h0.219v6.606h-0.219
	c-1.161-1.525-3.34-1.38-5.228-1.38h-4.358V122.649z"/>
<path fill="#00bbd1" d="M329.08,103.333c1.67,0,3.412-0.071,4.428-0.943h0.22v5.52c1.597-3.268,4.938-5.52,8.567-5.52l2.614,0.219
	v6.681c-0.798-0.872-2.106-1.163-3.341-1.163c-5.518,0-7.841,2.905-7.841,10.384v10.167c0,3.342-0.437,6.027,2.76,7.844v0.217
	h-12.129v-0.217c3.196-1.816,2.76-4.502,2.76-7.844v-17.355c0-3.341,0.437-5.955-2.686-7.77v-0.219H329.08z"/>
<path fill="#00bbd1" d="M374.128,111.829c1.091-2.831,2.76-6.68-0.725-8.277v-0.219h10.165l-15.104,36.019
	c-3.92,9.367-9.004,12.127-15.83,12.127c-3.122,0-5.81-0.728-8.642-1.816l6.535-4.719c1.234,0.798,2.543,1.742,4.066,1.742
	c5.083,0,7.262-5.446,8.787-9.44l0.436-1.161l-0.29-0.364c-2.396-2.396-2.396-2.758-3.775-5.809l-8.861-19.316
	c-1.451-3.193-2.321-5.736-5.808-7.043v-0.219h6.172c2.687,0,4.066,1.09,4.865,2.905l10.675,24.036L374.128,111.829z"/>
<path fill="#00bbd1" d="M398.453,120.326c0-10.892,8.785-17.937,19.242-17.937c4.647,0,8.643,1.234,12.127,4.285
	c3.703,3.268,5.955,8.06,5.955,12.998c0,10.456-8.715,18.008-18.954,18.008C406.876,137.681,398.453,130.639,398.453,120.326z
	 M428.442,121.198c0-7.045-3.775-14.016-11.545-14.016c-6.754,0-11.111,5.3-11.111,11.837c0,6.681,3.994,13.869,11.401,13.869
	C423.868,132.889,428.442,127.733,428.442,121.198z"/>
<path fill="#00bbd1" d="M447.823,126.208c0,3.559-0.437,8.423,3.122,10.312v0.217h-12.489v-0.217
	c3.194-1.816,2.759-4.502,2.759-7.771v-20.623h-3.631l3.631-4.793v-1.742c0-4.066-0.144-6.318,2.688-9.512
	c3.34-3.777,8.132-4.647,12.925-4.647l4.938,0.436l-5.084,5.592c-1.234-0.801-2.25-1.235-3.703-1.235
	c-4.283,0-5.155,2.033-5.155,6.316v4.793h8.425l1.232-0.434h0.219v6.39h-0.219c-0.579-0.944-1.523-1.163-2.687-1.163h-6.971V126.208
	z"/>
<path fill="#00bbd1" d="M108.699,167.087h-0.217c-2.979-3.341-8.496-4.356-12.927-4.356c-11.328,0-19.97,7.407-19.97,19.098
	c0,11.692,9.295,20.552,20.769,20.552c3.341,0,6.825-0.437,10.095-1.381v-10.457c0-3.34-0.073-6.897-3.341-8.206v-0.217h11.11v0.217
	c-0.364,0.872-0.364,2.033-0.364,3.124v16.7c0,1.089-0.071,2.252,0.364,3.268c-5.81,1.089-11.473,2.179-17.355,2.179
	c-18.589,0-29.555-10.165-29.555-24.761c0-15.612,12.417-25.344,29.989-25.344c3.849,0,7.626,0.437,11.401,1.234V167.087z"/>
<path fill="#00bbd1" d="M122.829,173.041c1.671,0,3.413-0.071,4.429-0.943h0.219v5.52c1.598-3.268,4.938-5.52,8.568-5.52
	l2.614,0.219v6.681c-0.798-0.872-2.106-1.163-3.341-1.163c-5.518,0-7.842,2.905-7.842,10.384v10.167c0,3.342-0.436,6.027,2.76,7.844
	v0.217h-12.128v-0.217c3.196-1.816,2.76-4.502,2.76-7.844V181.03c0-3.342,0.437-5.956-2.687-7.77v-0.22H122.829z"/>
<path fill="#00bbd1" d="M169.179,207.39c-4.793-0.291-9.586-1.742-9.586-7.553v-11.474c-2.104,1.089-4.573,1.671-6.971,2.252
	c-3.484,0.799-7.407,1.597-7.407,6.027c0,4.502,4.067,5.954,7.915,5.954c1.744,0,3.486-0.508,5.229-1.016l-4.283,5.445
	c-1.234,0.218-2.542,0.363-3.777,0.363c-7.333,0-12.417-4.648-12.417-10.676c0-13.506,21.712-7.262,21.712-15.176
	c0-3.485-4.283-4.648-6.971-4.648c-3.704,0-6.606,1.381-9.876,2.905l4.866-7.262l4.719-0.436c7.844,0,13.797,2.252,13.871,11.039
	v10.892c0,5.736,0.146,7.915,6.173,8.568L169.179,207.39z"/>
<path fill="#00bbd1" d="M177.701,173.041c1.597,0,3.341-0.146,4.356-0.943h0.219v5.157c2.468-3.413,7.842-5.157,11.908-5.157
	c10.095,0,16.63,7.77,16.63,17.283c0,10.093-7.336,18.009-17.501,18.009c-1.888,0-3.703-0.291-5.374-0.944l-3.921-5.954
	c2.541,1.235,5.155,2.105,7.915,2.105c7.698,0,11.545-5.155,11.545-12.417c0-6.755-3.63-12.999-11.108-12.999
	c-3.051,0-6.027,1.234-8.061,3.486c-2.106,2.25-2.033,4.865-2.033,7.77v24.908c0,3.34-0.436,5.954,2.758,7.77v0.217h-12.126v-0.217
	c3.195-1.815,2.76-4.43,2.76-7.77V181.03c0-3.342,0.436-6.027-2.76-7.77v-0.22H177.701z"/>
<path fill="#00bbd1" d="M218.372,158.665c1.669,0,3.413,0,4.429-1.163h0.219v19.171c2.179-3.122,7.117-4.575,10.674-4.575
	c10.021,0,12.419,6.027,12.419,13.071v13.216c0,3.342-0.437,6.027,2.758,7.844v0.217h-12.053v-0.217
	c3.193-1.816,2.686-4.502,2.686-7.844v-11.037c0-5.882-1.888-10.458-8.132-10.458c-6.392,0-8.352,3.559-8.352,10.022v11.473
	c0,3.342-0.436,6.027,2.759,7.844v0.217h-12.127v-0.217c3.196-1.816,2.76-4.502,2.76-7.844v-31.659c0-3.342,0.437-6.027-2.76-7.844
	v-0.217H218.372z"/>
<path fill="#00bbd1" d="M256.66,173.041c1.67,0,3.486-0.071,4.721-1.161h0.217v26.505c0,3.342-0.436,6.027,2.76,7.844v0.217h-12.128
	v-0.217c3.195-1.816,2.76-4.502,2.76-7.844V181.03c0-3.342,0.436-5.956-2.76-7.77v-0.22H256.66z M258.04,168.685
	c-2.687,0-4.72-2.105-4.72-4.793c0-2.541,2.322-4.283,4.72-4.283c2.469,0,4.356,2.105,4.356,4.502
	C262.396,166.506,260.509,168.685,258.04,168.685z"/>
<path fill="#00bbd1" d="M295.67,180.448h-0.219c-2.105-2.396-5.592-3.559-8.859-3.559c-7.045,0-12.126,4.938-12.126,11.838
	c0,8.352,7.043,13.869,15.104,13.869c3.703,0,7.77-1.452,10.603-3.559h0.217l-3.775,6.899c-3.05,1.161-6.392,1.452-9.585,1.452
	c-11.183,0-19.898-7.334-19.898-16.774c0-12.49,9.731-18.518,20.696-18.518c2.615,0,5.301,0.29,7.844,0.872V180.448z"/>
<path fill="#00bbd1" d="M317.814,168.612c0-3.341,0.51-8.642-3.194-9.73v-0.217h17.791c16.558,0,26.868,9.004,26.868,23.454
	c0,14.305-10.966,24.326-27.232,24.326H314.62v-0.217c3.63-2.47,3.194-5.956,3.194-10.239V168.612z M325.222,200.709
	c1.744,0.362,3.486,0.508,5.302,0.508c10.818,0,20.478-5.663,20.478-18.226c0-12.708-7.116-19.1-19.244-19.1
	c-2.179,0-4.357,0.291-6.535,0.799V200.709z"/>
<path fill="#00bbd1" d="M370.423,188.582c0.146,8.859,6.318,14.015,14.523,14.015c4.357,0,8.568-1.234,11.909-3.85h0.218
	l-3.63,6.826c-3.123,1.309-6.609,1.816-10.022,1.816c-12.343,0-20.84-7.77-20.84-17.863s7.334-17.429,18.154-17.429
	c9.876,0,16.628,7.116,16.338,16.484H370.423z M389.448,184.369c-0.798-5.082-4.14-7.479-9.366-7.479
	c-4.866,0-8.496,2.905-9.368,7.479H389.448z"/>
<path fill="#00bbd1" d="M423.685,179.214c-2.688-1.451-5.736-2.324-8.933-2.324c-2.396,0-6.754,0.582-6.754,3.487
	c0,6.461,19.681,4.138,19.681,15.685c0,6.754-6.899,11.328-16.268,11.328c-3.268,0-6.39-0.508-9.438-1.742l-2.543-7.117
	c4.212,2.687,8.642,4.066,13.651,4.066c2.978,0,7.989-1.016,7.989-4.72c0-7.335-19.68-5.012-19.68-16.049
	c0-7.698,7.987-9.73,14.233-9.73c2.687,0,5.446,0.219,8.061,0.943V179.214z"/>
<path fill="#00bbd1" d="M434.611,173.041c1.671,0,3.486-0.071,4.721-1.161h0.218v26.505c0,3.342-0.437,6.027,2.76,7.844v0.217
	h-12.129v-0.217c3.196-1.816,2.76-4.502,2.76-7.844V181.03c0-3.342,0.437-5.956-2.76-7.77v-0.22H434.611z M435.991,168.685
	c-2.687,0-4.721-2.105-4.721-4.793c0-2.541,2.325-4.283,4.721-4.283c2.469,0,4.356,2.105,4.356,4.502
	C440.348,166.506,438.46,168.685,435.991,168.685z"/>
<path fill="#00bbd1" d="M484.346,172.098l-1.67,3.776c-0.58,1.307-0.726,1.743-2.324,1.743c-2.541,0-5.01-0.582-7.479-0.944
	c3.05,1.96,5.155,5.084,5.155,8.787c0,8.204-8.859,10.747-15.468,11.328c-1.016,0.072-2.978,0.725-2.978,1.959
	c0,1.6,3.413,1.381,4.357,1.381c12.562,0,19.244,3.412,19.244,10.603c0,8.206-9.077,12.779-20.405,12.779
	c-10.675,0-20.115-4.14-20.115-10.311c0-4.067,3.268-5.882,6.972-5.882c1.524,0,2.76,0.289,4.14,0.943
	c-1.816,0.363-2.76,1.381-2.76,3.268c0,6.1,7.262,7.189,11.98,7.189c4.793,0,12.854-1.381,12.854-7.479
	c0-6.39-10.384-6.754-14.812-6.754l-5.012,0.146c-3.194,0.073-5.301-2.541-5.301-5.156c0-2.105,4.211-3.121,5.736-3.849
	c-5.229-1.016-9.585-5.736-9.585-11.183c0-8.422,8.134-12.345,15.612-12.345H484.346z M463.142,191.995
	c4.356,0,7.553-2.833,7.553-7.045c0-4.647-3.921-8.061-9.078-8.061c-3.992,0-7.405,2.179-7.405,6.391
	C454.211,188.001,458.423,191.995,463.142,191.995z"/>
<path fill="#00bbd1" d="M491.126,173.041c1.597,0,3.339-0.071,4.864-0.943h0.219v5.591c2.541-3.484,5.518-5.591,10.239-5.591
	c4.065,0,8.713,1.599,11.037,5.012c2.033,2.903,1.815,7.405,1.815,10.818v10.529c0,3.341-0.436,5.955,2.758,7.771v0.217h-12.126
	v-0.217c3.195-1.816,2.76-4.502,2.76-7.771v-9.803c0-7.77-2.179-11.765-8.787-11.765c-6.606,0-7.696,4.431-7.696,8.714v12.854
	c0,3.341-0.436,5.955,2.758,7.771v0.217h-12.126v-0.217c3.195-1.816,2.76-4.502,2.76-7.844v-17.283c0-3.339,0.436-6.027-2.76-7.841
	v-0.22H491.126z"/>
</svg>
