<svg xmlns="http://www.w3.org/2000/svg" width="562.049" height="367.055"><path fill="#3FAC49" d="M135.542 151.525c0-.379-.081-.9-.244-1.564a20.318 20.318 0 0 0-.65-2.112 23.061 23.061 0 0 0-.975-2.276c-.379-.772-.792-1.469-1.239-2.092s-.915-1.131-1.402-1.524c-.487-.392-.989-.589-1.503-.589-.433 0-.921.21-1.463.63s-1.049.908-1.523 1.463a11.064 11.064 0 0 0-1.198 1.685c-.326.57-.488 1.003-.488 1.3 0 .407.197.821.589 1.24.393.42.894.839 1.503 1.259.61.42 1.286.82 2.031 1.199a24.7 24.7 0 0 0 2.215.995 21.28 21.28 0 0 0 2.051.691c.637.176 1.145.264 1.523.264.326 0 .536-.041.63-.122.095-.08.143-.229.143-.447m3.372 4.185c0 1.11-.292 1.977-.874 2.6s-1.429.934-2.539.934c-1.138 0-2.41-.17-3.818-.508a21.632 21.632 0 0 1-4.083-1.422 16.543 16.543 0 0 1-3.576-2.234c-1.07-.88-1.822-1.849-2.255-2.905-.487.569-1.151 1.124-1.99 1.666-.84.542-1.666 1.11-2.478 1.706a13.134 13.134 0 0 0-2.113 1.909c-.596.677-.894 1.436-.894 2.275 0 1.3.27 2.777.812 4.429.542 1.652 1.131 3.459 1.768 5.423a85.817 85.817 0 0 1 1.768 6.317c.541 2.248.812 4.632.812 7.151 0 .595-.061 1.078-.183 1.443s-.319.549-.589.549c-.271 0-.481-.156-.63-.469s-.264-.643-.345-.994a58.016 58.016 0 0 0-2.356-7.09c-.949-2.344-1.863-4.611-2.743-6.805a85.715 85.715 0 0 1-2.255-6.277c-.623-1.99-.934-3.826-.934-5.505 0-1.57.386-3.088 1.158-4.549.772-1.463 2.214-2.885 4.326-4.267 1.896-1.219 3.474-2.336 4.734-3.352 1.259-1.015 2.267-2.159 3.026-3.432.894-1.517 1.727-2.804 2.499-3.86s1.489-1.909 2.153-2.559c.663-.651 1.3-1.124 1.91-1.422a4.163 4.163 0 0 1 1.848-.447c1.029 0 2.058.555 3.087 1.666 1.029 1.11 1.964 2.898 2.804 5.362a36.86 36.86 0 0 1 .955 3.393c.257 1.124.46 2.187.609 3.189.149 1.002.25 1.896.305 2.682.054.785.081 1.422.081 1.909v3.494z"/><path fill="#3FAC49" d="M138.67 157.904c-1.732 0-2.6-.744-2.6-2.234v-3.169c0-1.544.868-2.316 2.6-2.316h18.607v7.069c0 .433-.23.65-.69.65H138.67z"/><path fill="#3FAC49" d="M185.309 170.62l-5.768 5.769-5.729-5.769 5.729-5.729 5.768 5.729zm-11.903 0l-5.728 5.769-5.729-5.769 5.729-5.729 5.728 5.729zm-16.373-12.716c-1.732 0-2.6-.744-2.6-2.234v-3.169c0-1.544.868-2.316 2.6-2.316h21.938c.624 0 .935-.258.935-.772 0-2.058-1.584-5.389-4.753-9.994l5.81-6.378c1.083 1.625 2.255 4.638 3.513 9.039 1.26 4.401 1.89 7.563 1.89 9.486v3.088c0 2.167-1.327 3.25-3.981 3.25h-25.352z"/><path fill="#3FAC49" d="M214.235 151.526c0-.38-.082-.9-.244-1.564a20.577 20.577 0 0 0-.65-2.113 22.946 22.946 0 0 0-.975-2.275 14.777 14.777 0 0 0-1.239-2.093c-.446-.622-.914-1.13-1.402-1.523-.487-.392-.989-.589-1.502-.589-.434 0-.922.21-1.463.63-.542.42-1.05.908-1.524 1.463a10.946 10.946 0 0 0-1.198 1.685c-.325.569-.488 1.003-.488 1.3 0 .406.196.82.59 1.239.391.421.893.84 1.502 1.26.61.42 1.287.819 2.032 1.198.744.38 1.482.711 2.214.995a21.12 21.12 0 0 0 2.051.692c.637.176 1.145.263 1.524.263.325 0 .535-.041.63-.122.094-.081.142-.229.142-.446m-28.114 6.378c-1.732 0-2.6-.744-2.6-2.234v-3.169c0-1.544.868-2.316 2.6-2.316 1.057 0 2.275-.122 3.657-.366a20.405 20.405 0 0 0 4.204-1.239c1.422-.582 2.789-1.381 4.104-2.397 1.313-1.016 2.417-2.296 3.311-3.839.894-1.516 1.719-2.803 2.478-3.86.758-1.056 1.469-1.915 2.133-2.579.664-.664 1.3-1.145 1.91-1.442a4.165 4.165 0 0 1 1.848-.448c1.029 0 2.058.556 3.087 1.666 1.03 1.111 1.964 2.899 2.804 5.363.379 1.137.696 2.269.954 3.392.258 1.124.461 2.188.61 3.19.148 1.002.25 1.895.304 2.681.055.785.082 1.422.082 1.91v3.494c0 1.11-.292 1.976-.874 2.599-.583.623-1.428.935-2.539.935-1.165 0-2.465-.177-3.9-.529a21.736 21.736 0 0 1-4.164-1.482 16.016 16.016 0 0 1-3.596-2.317c-1.056-.907-1.787-1.914-2.193-3.026a18.414 18.414 0 0 1-3.515 2.682 24.697 24.697 0 0 1-3.88 1.868c-1.3.488-2.546.854-3.737 1.098-1.192.243-2.221.365-3.088.365"/><path fill="#3FAC49" d="M265.099 149.332c0-2.004-.758-4.211-2.274-6.623-1.707-2.681-3.59-4.022-5.648-4.022-4.062 0-9.561 3.793-16.494 11.376 3.034.894 7.638 1.341 13.813 1.341 7.069 0 10.603-.691 10.603-2.072m-47.736 8.572c-1.732 0-2.6-.744-2.6-2.234v-3.169c0-1.544.868-2.316 2.6-2.316 1.002 0 2.113-.143 3.332-.427a26.024 26.024 0 0 0 3.758-1.198 31.333 31.333 0 0 0 3.859-1.869 29.512 29.512 0 0 0 3.636-2.437 86.063 86.063 0 0 0 2.682-2.255c.623-.555 1.029-.833 1.218-.833.109 0 .169.047.183.142.014.095.02.21.02.345 0 .163-.04.454-.122.874-.081.42-.122.969-.122 1.646 0 1.95.664 3.426 1.992 4.427 2.275-3.331 4.956-6.5 8.043-9.507 1.707-1.651 3.203-3.005 4.49-4.062 1.286-1.056 2.362-1.841 3.229-2.356 1.517-.867 3.224-1.3 5.119-1.3 3.576 0 6.284 2.465 8.125 7.394 1.301 3.548 1.951 7.435 1.951 11.659v5.567c0 2.112-5.662 3.169-16.982 3.169-1.354 0-2.81-.041-4.367-.122a50.434 50.434 0 0 1-4.591-.448 30.565 30.565 0 0 1-4.205-.893c-1.3-.379-2.343-.854-3.128-1.422a59.72 59.72 0 0 0-1.971 2.377 60.995 60.995 0 0 1-2.742 3.188c0-.704.169-1.618.508-2.742.338-1.124 1.104-2.525 2.295-4.205-.189-.188-.461-.527-.813-1.015a5.162 5.162 0 0 1-.771-1.544 28.331 28.331 0 0 1-4.063 2.6 29.739 29.739 0 0 1-3.96 1.727c-1.288.447-2.493.765-3.617.955-1.124.189-2.119.284-2.986.284"/><path fill="#3FAC49" d="M296.707 122.274l-5.77 5.77-5.728-5.77 5.728-5.727 5.77 5.727zm-11.822 0l-5.728 5.77-5.729-5.77 5.729-5.727 5.728 5.727zm-16.373 35.63c-1.732 0-2.6-.744-2.6-2.234v-3.169c0-1.544.868-2.316 2.6-2.316h21.938c.624 0 .936-.258.936-.772 0-2.058-1.584-5.389-4.753-9.994l5.81-6.378c1.083 1.625 2.255 4.638 3.514 9.039 1.26 4.401 1.89 7.563 1.89 9.486v3.088c0 2.167-1.327 3.25-3.981 3.25h-25.354z"/><path fill="#3FAC49" d="M297.601 157.904c-1.732 0-2.6-.744-2.6-2.234v-3.169c0-1.544.867-2.316 2.6-2.316h11.295c1.001 0 1.503-.447 1.503-1.341 0-6.663-1.49-18.173-4.469-34.532l5.322-5.931c.92 4.17 1.963 11.659 3.128 22.465 1.056 10.185 1.584 16.956 1.584 20.314v4.265c0 1.653-.88 2.479-2.641 2.479h-15.722zM330.265 157.823l-5.241 3.088v-3.738c0-4.036-.447-10.062-1.341-18.079-1.002-9.181-2.221-17.415-3.656-24.701l5.403-6.012c3.222 18.931 4.835 35.413 4.835 49.442M375.197 118.049l-5.769 5.768-5.729-5.768 5.729-5.729 5.769 5.729zm-5.849 32.379c0-.46-.583-2.349-1.747-5.667-1.165-3.318-1.909-4.977-2.234-4.977-.65 0-2.112 1.314-4.388 3.941-2.356 2.736-3.534 4.713-3.534 5.931 0 1.273 1.854 1.909 5.565 1.909 4.224 0 6.338-.377 6.338-1.137m-5.973-32.379l-5.728 5.768-5.729-5.768 5.729-5.729 5.728 5.729zm11.213 38.027c0 .732-1.043 1.354-3.128 1.869-2.438.65-5.811.975-10.116.975-3.818 0-6.474-.556-7.963-1.666-1.273-.947-1.909-2.56-1.909-4.834 0-4.496 4.266-9.872 12.798-16.129l-.895-2.437 5.81-5.242c1.083 2.493 2.289 6.568 3.616 12.229 1.191 5.146 1.787 8.343 1.787 9.588v5.647zM392.505 157.904c0 1.272-.183 2.708-.548 4.307a70.38 70.38 0 0 1-1.483 5.362c-.678 2.167-1.416 4.09-2.214 5.769a74.81 74.81 0 0 1-2.418 4.672c-.515.704-1.056 1.259-1.625 1.665-.568.407-1.327.664-2.275.773a36.064 36.064 0 0 1-3.493.162c-2.248 0-3.372-.148-3.372-.447 0-.217.229-.515.69-.894 4.36-4.224 8.017-9.357 10.97-15.397 1.57-3.223 2.356-5.457 2.356-6.703-.218-.867-.569-1.849-1.057-2.946a33.61 33.61 0 0 0-1.706-3.31 44.526 44.526 0 0 0-2.052-3.19 30.925 30.925 0 0 0-2.011-2.58l4.753-7.109a66.284 66.284 0 0 1 2.519 4.143 23.615 23.615 0 0 1 1.706 3.82c.434 1.273.752 2.606.955 4.001s.305 2.96.305 4.692v3.21zM406.399 157.823l-5.241 3.088v-3.738c0-4.036-.447-10.062-1.341-18.079-1.002-9.181-2.221-17.415-3.656-24.701l5.403-6.012c3.223 18.931 4.835 35.413 4.835 49.442M423.989 126.662l-5.728 5.728-5.729-5.728 5.729-5.769 5.728 5.769zm2.073 31.242c0 1.272-.183 2.708-.548 4.307a70.38 70.38 0 0 1-1.483 5.362c-.678 2.167-1.416 4.09-2.214 5.769a74.81 74.81 0 0 1-2.418 4.672c-.515.704-1.056 1.259-1.625 1.665-.568.407-1.327.664-2.275.773a36.064 36.064 0 0 1-3.493.162c-2.248 0-3.372-.148-3.372-.447 0-.217.229-.515.69-.894 4.36-4.224 8.017-9.357 10.969-15.397 1.571-3.223 2.357-5.457 2.357-6.703-.218-.867-.569-1.849-1.057-2.946a33.61 33.61 0 0 0-1.706-3.31 44.19 44.19 0 0 0-2.053-3.19 30.723 30.723 0 0 0-2.01-2.58l4.753-7.109a66.284 66.284 0 0 1 2.519 4.143 23.615 23.615 0 0 1 1.706 3.82c.434 1.273.752 2.606.955 4.001.202 1.395.305 2.96.305 4.692v3.21zM447.473 150.672c-.759-2.383-1.632-4.226-2.62-5.526-.99-1.299-2.066-1.95-3.23-1.95-.596 0-1.164.183-1.706.549-.542.365-1.016.813-1.422 1.341s-.725 1.103-.955 1.727c-.23.623-.346 1.192-.346 1.706 0 .595.128 1.07.387 1.421a2.31 2.31 0 0 0 1.057.792c.446.177.968.292 1.563.346.596.055 1.245.081 1.95.081 1.164 0 2.207-.04 3.127-.122.921-.08 1.653-.203 2.195-.365m5.159 5.038a28.41 28.41 0 0 1-.812 6.825 32.815 32.815 0 0 1-2.274 6.337c-1.03 2.113-2.106 3.982-3.23 5.607s-2.336 3.087-3.636 4.387a7.028 7.028 0 0 1-2.499 1.606c-.961.365-2.16.548-3.595.548-.163 0-.598-.014-1.301-.041-.704-.027-1.456-.082-2.255-.163s-1.517-.182-2.152-.304c-.637-.122-.955-.278-.955-.467 0-.217.271-.461.812-.731 2.085-1.085 4.205-2.526 6.358-4.328 2.153-1.8 4.367-4.096 6.643-6.886 1.407-1.733 2.524-3.392 3.352-4.976.825-1.585 1.239-3.014 1.239-4.286v-.935c-.786.19-1.707.331-2.763.427-1.057.095-2.384.142-3.981.142-1.165 0-2.249-.074-3.25-.223-1.003-.149-1.876-.434-2.621-.853-.745-.421-1.327-1.03-1.747-1.829-.42-.798-.629-1.848-.629-3.148s.188-2.736.567-4.307c.379-1.57 1.042-3.25 1.991-5.038 1.138-2.138 2.403-3.804 3.799-4.997 1.395-1.191 2.714-1.787 3.96-1.787 1.111 0 2.107.332 2.987.995.88.664 1.651 1.53 2.315 2.601.664 1.07 1.232 2.295 1.707 3.677.474 1.38.853 2.796 1.137 4.245.285 1.449.494 2.857.63 4.225.135 1.367.203 2.594.203 3.677M196.096 252.904l-5.769 5.77-5.728-5.77 5.728-5.729 5.769 5.729zm-11.903 0l-5.728 5.77-5.729-5.77 5.729-5.729 5.728 5.729zm12.919-18.687h-1.097c-.135-2.031-.786-4.633-1.95-7.801-1.706-4.604-3.711-6.906-6.013-6.906-1.733 0-3.765.771-6.093 2.316-2.33 1.543-3.494 2.844-3.494 3.898 0 .65.635 1.342 1.909 2.072l4.428 2.6c2.545 1.49 3.819 2.953 3.819 4.389 0 1.002-.501 2.004-1.503 3.006-1.599 1.598-4.443 3.398-8.531 5.404-5.634 2.789-10.889 4.184-15.764 4.184-7.882 0-11.822-3.914-11.822-11.74 0-3.061 1.069-6.609 3.21-10.645 1.895-3.549 3.128-5.322 3.696-5.322.217 0 .339.121.366.365-.081-.025-.637 1.369-1.666 4.186-1.11 3.033-1.666 5.473-1.666 7.312 0 5.66 3.264 8.49 9.791 8.49 4.794 0 9.006-.568 12.636-1.705 2.897-.922 4.347-1.68 4.347-2.275 0-.055-1.538-.975-4.612-2.764-3.074-1.787-4.611-3.533-4.611-5.24 0-2.68 2.031-5.904 6.095-9.67 4.17-3.844 7.88-5.768 11.13-5.768 2.465 0 4.348 2.072 5.648 6.217 1.164 3.654 1.747 8.395 1.747 14.219v1.178z"/><path fill="#3FAC49" d="M197.681 234.217c-1.732 0-2.6-.744-2.6-2.234v-3.17c0-1.543.868-2.314 2.6-2.314h18.607v7.068c0 .434-.23.65-.69.65h-17.917z"/><path fill="#3FAC49" d="M216.044 234.217c-1.732 0-2.6-.744-2.6-2.234v-3.17c0-1.543.868-2.314 2.6-2.314h25.555c.432 0 .649-.203.649-.609 0-.217-.852-1.273-2.559-3.17-1.923-2.139-3.846-4.049-5.769-5.729-4.063-3.547-7.272-5.932-9.628-7.15-.082.787-.34 1.18-.772 1.18-.353 0-1.165-.787-2.438-2.357-1.354-1.68-2.031-3.033-2.031-4.062 0-2.383.744-4.211 2.234-5.484 2.655-2.275 6.446-5.105 11.375-8.49 5.661-3.9 10.821-7.124 15.48-9.67l-1.666 7.76c-2.763 1.625-6.731 4.158-11.904 7.598-5.742 3.846-8.613 5.971-8.613 6.377 0 .082 1.179.922 3.535 2.52 3.168 2.113 6.229 4.768 9.181 7.963 2.058 2.221 4.165 4.902 6.317 8.045 2.154 3.141 3.231 5.117 3.231 5.93v4.389c0 1.787-.854 2.682-2.56 2.682h-29.617z"/><path fill="#3FAC49" d="M276.251 246.932l-5.768 5.77-5.729-5.77 5.729-5.729 5.768 5.729zm-11.902 0l-5.728 5.77-5.729-5.77 5.729-5.729 5.728 5.729zm-16.373-12.715c-1.732 0-2.6-.744-2.6-2.234v-3.17c0-1.543.868-2.314 2.6-2.314h21.938c.624 0 .935-.258.935-.773 0-2.057-1.584-5.389-4.753-9.994l5.81-6.377c1.083 1.625 2.255 4.639 3.513 9.039 1.26 4.4 1.89 7.562 1.89 9.486v3.088c0 2.166-1.327 3.25-3.981 3.25h-25.352z"/><path fill="#3FAC49" d="M301.522 221.176c-.218-1.869-.576-3.582-1.077-5.141-.501-1.557-1.076-2.904-1.727-4.041-.65-1.139-1.327-2.025-2.031-2.662-.705-.635-1.382-.955-2.031-.955-.597 0-1.179.137-1.747.406-.568.271-1.076.617-1.523 1.037s-.812.887-1.097 1.402c-.285.516-.427 1.016-.427 1.502 0 .623.257 1.227.771 1.809s1.172 1.137 1.971 1.666a26.304 26.304 0 0 0 2.6 1.502c.935.475 1.829.922 2.682 1.342.854.42 1.598.82 2.234 1.197.637.381 1.05.732 1.239 1.057l.163-.121zm-3.778-29.576l-5.729 5.729-5.77-5.729 5.77-5.77 5.729 5.77zm-20.68 42.617c-1.732 0-2.6-.744-2.6-2.234v-3.17c0-1.543.868-2.314 2.6-2.314H298.8l.122-.244c-.244-.352-.745-.684-1.504-.996a46.156 46.156 0 0 0-2.64-.975 72.216 72.216 0 0 1-3.169-1.158 16.882 16.882 0 0 1-3.047-1.543c-.922-.596-1.68-1.307-2.275-2.133s-.894-1.809-.894-2.945c0-.65.074-1.383.224-2.195.148-.812.379-1.65.69-2.518.311-.867.704-1.754 1.178-2.662a19.703 19.703 0 0 1 1.646-2.619c2.546-3.359 4.875-5.039 6.988-5.039 1.651 0 3.094.793 4.326 2.377s2.322 4.043 3.271 7.375a35.6 35.6 0 0 1 .914 3.961c.229 1.34.413 2.674.549 4a56.64 56.64 0 0 1 .264 3.9c.041 1.273.061 2.479.061 3.617v5.119c0 1.598-1.029 2.396-3.087 2.396h-25.353zM318.992 234.135l-5.241 3.088v-3.738c0-4.035-.447-10.061-1.341-18.078-1.002-9.182-2.221-17.414-3.656-24.701l5.403-6.012c3.223 18.931 4.835 35.411 4.835 49.441M337.842 234.217c0 1.271-.183 2.707-.548 4.307a69.986 69.986 0 0 1-1.483 5.361c-.678 2.168-1.416 4.09-2.214 5.77a74.531 74.531 0 0 1-2.418 4.672c-.515.705-1.056 1.26-1.625 1.666-.568.406-1.327.664-2.275.771a34.834 34.834 0 0 1-3.493.162c-2.248 0-3.372-.146-3.372-.447 0-.217.229-.514.69-.893 4.36-4.225 8.017-9.357 10.97-15.398 1.57-3.223 2.356-5.457 2.356-6.701-.218-.867-.569-1.85-1.057-2.947a33.849 33.849 0 0 0-1.706-3.311 44.729 44.729 0 0 0-2.052-3.189 30.76 30.76 0 0 0-2.011-2.58l4.753-7.109c.975 1.49 1.814 2.871 2.519 4.145s1.273 2.545 1.706 3.818c.434 1.273.752 2.607.955 4.002s.305 2.959.305 4.691v3.21z"/><path fill="#3FAC49" d="M362.462 241.773l-5.729 5.768-5.729-5.768 5.729-5.729 5.729 5.729zm.121-20.679c-.515-.135-1.083-.42-1.706-.854a26.976 26.976 0 0 1-1.95-1.502c-.677-.57-1.381-1.164-2.112-1.789a36.348 36.348 0 0 0-2.194-1.727c-.73-.527-1.462-.961-2.193-1.299s-1.422-.508-2.073-.508c-1.922 0-3.452.92-4.59 2.762-.623.949-1.016 1.422-1.178 1.422-.217 0-.325-.135-.325-.406 0-.623.143-1.408.426-2.355.285-.947.779-2.072 1.483-3.373.921-1.705 1.936-2.992 3.047-3.859 1.11-.865 2.262-1.299 3.454-1.299.92 0 1.854.223 2.803.67s1.909 1.035 2.885 1.768c.975.73 1.97 1.562 2.985 2.498 1.017.934 2.065 1.869 3.149 2.803 1.083.934 2.2 1.836 3.352 2.701a22.9 22.9 0 0 0 3.595 2.234c3.251 1.625 5.309 2.439 6.176 2.439v7.23c-.948-.189-2.094-.352-3.433-.488a43.309 43.309 0 0 0-4.328-.203c-2.111 0-4.271.049-6.479.143a84.987 84.987 0 0 0-6.643.549 71.683 71.683 0 0 0-6.582 1.117 52.258 52.258 0 0 0-6.339 1.809c-2.03.73-3.526 1.354-4.488 1.869-.961.514-1.509.771-1.645.771-1.002 0-1.504-.475-1.504-1.422v-5.566a38.406 38.406 0 0 1 6.562-2.926 54.843 54.843 0 0 1 6.947-1.867c2.315-.461 4.577-.787 6.784-.977s4.246-.283 6.114-.283v-.082z"/><path fill="#3FAC49" d="M377.371 234.217c-1.732 0-2.6-.744-2.6-2.234v-3.17c0-1.543.867-2.314 2.6-2.314h11.295c1.001 0 1.503-.447 1.503-1.342 0-6.662-1.49-18.174-4.469-34.531l5.322-5.932c.92 4.17 1.963 11.658 3.128 22.465 1.056 10.186 1.584 16.957 1.584 20.314v4.266c0 1.652-.88 2.479-2.641 2.479h-15.722zM410.036 234.135l-5.241 3.088v-3.738c0-4.035-.447-10.061-1.341-18.078-1.002-9.182-2.221-17.414-3.656-24.701l5.403-6.012c3.223 18.931 4.835 35.411 4.835 49.441"/><path fill="#3FAC49" d="M514.684 315.242H47.243c-17.266 0-32.704-14.758-38.415-36.723l-.259-.994.629-.811c18.658-24.061 29.358-58.029 29.358-93.194 0-35.158-10.701-69.121-29.358-93.181l-.629-.811.259-.994c5.711-21.965 21.149-36.722 38.415-36.722h467.44c17.459 0 32.951 14.975 38.55 37.264l.246.978-.613.8c-18.663 24.377-28.941 57.287-28.941 92.666 0 35.388 10.278 68.302 28.941 92.679l.613.801-.246.977c-5.598 22.289-21.09 37.265-38.549 37.265zM13.131 278.449c5.415 19.553 19.028 32.617 34.112 32.617h467.44c15.266 0 28.937-13.277 34.251-33.143-18.828-25.016-29.186-58.494-29.186-94.403 0-35.902 10.357-69.375 29.186-94.391-5.314-19.865-18.985-33.142-34.251-33.142H47.243c-15.084 0-28.697 13.064-34.112 32.618 19.097 25.059 29.601 58.716 29.601 94.915 0 36.207-10.504 69.869-29.601 94.929z"/></svg>