<svg xmlns="http://www.w3.org/2000/svg" width="562.049" height="367.055"><path fill="#DBD500" d="M506.462 324.527H55.587V95.39l.451-.507c9.397-10.576 25.749-15.612 37.811-17.976 13.397-2.626 24.748-2.656 24.861-2.656 31.419 0 56.312-8.009 80.386-15.754 24.408-7.852 49.643-15.97 81.928-15.97 15.873 0 32.287 0 81.928 15.97 24.074 7.745 48.969 15.754 80.387 15.754.113 0 11.428.03 24.799 2.644 12.084 2.361 28.465 7.398 37.873 17.988l.451.507v229.137zm-447.306-3.568h443.738V96.757c-8.824-9.509-24.092-14.143-35.439-16.36-12.979-2.536-24.006-2.577-24.115-2.577-31.979 0-57.143-8.097-81.479-15.926-49.109-15.798-65.238-15.798-80.836-15.798-31.725 0-56.69 8.031-80.833 15.797-24.338 7.83-49.502 15.927-81.482 15.927-.109 0-11.185.043-24.175 2.589-11.328 2.22-26.566 6.852-35.379 16.349v224.201z"/><path fill="#DBD500" d="M176.018 135.834c.531-1.396.996-2.726.996-4.121v-.065h11.498v.198c-1.595.467-2.06 2.394-2.06 3.923l4.385 32.635c.399 3.123.733 4.916 3.39 6.778v.198h-12.826v-.198c2.324-.732 2.724-2.727 2.724-4.985l-3.789-32.037-14.888 38.085c-3.323-2.527-4.253-4.32-5.849-8.043l-12.628-29.975-3.79 28.581c-.53 4.055-.996 6.979 2.128 8.374v.198h-10.834v-.198c2.793-2.461 3.189-5.717 3.721-9.306l3.79-27.849c.265-1.861.997-4.52-2.062-6.183v-.198h11.631v.065c0 1.064.533 2.062.932 2.991l12.494 29.311 11.037-28.179zM201.823 140.819c-2.459 0-4.32-1.926-4.32-4.387 0-2.326 2.125-3.92 4.32-3.92 2.26 0 3.986 1.926 3.986 4.119.001 2.193-1.726 4.188-3.986 4.188m-1.263 3.988c1.528 0 3.19-.065 4.321-1.062h.199v24.259c0 3.06-.399 5.518 2.525 7.18v.198h-11.102v-.198c2.926-1.661 2.527-4.12 2.527-7.18v-15.885c0-3.058.399-5.45-2.527-7.112v-.199h4.057zM214.79 144.807c1.461 0 3.056-.065 4.451-.863h.2v5.117c2.326-3.189 5.052-5.117 9.372-5.117 3.721 0 7.975 1.464 10.102 4.587 1.861 2.658 1.662 6.778 1.662 9.902v9.637c0 3.058-.399 5.451 2.524 7.113v.197h-11.099v-.197c2.925-1.662 2.525-4.121 2.525-7.113v-8.973c0-7.112-1.994-10.768-8.042-10.768-6.047 0-7.045 4.055-7.045 7.976v11.765c0 3.058-.399 5.451 2.525 7.113v.197h-11.099v-.197c2.924-1.662 2.525-4.121 2.525-7.181v-15.818c0-3.058.398-5.517-2.525-7.179v-.199l3.924.001zM251.495 140.819c-2.459 0-4.32-1.926-4.32-4.387 0-2.326 2.127-3.92 4.32-3.92 2.262 0 3.988 1.926 3.988 4.119 0 2.193-1.727 4.188-3.988 4.188m-1.263 3.988c1.528 0 3.19-.065 4.321-1.062h.199v24.259c0 3.06-.399 5.518 2.526 7.18v.198h-11.103v-.198c2.926-1.661 2.526-4.12 2.526-7.18v-15.885c0-3.058.4-5.45-2.526-7.112v-.199h4.057zM281.671 150.456c-2.459-1.329-5.25-2.126-8.176-2.126-2.192 0-6.182.532-6.182 3.19 0 5.914 18.012 3.788 18.012 14.356 0 6.183-6.313 10.368-14.888 10.368-2.991 0-5.851-.466-8.639-1.595l-2.328-6.514c3.854 2.459 7.909 3.723 12.495 3.723 2.726 0 7.312-.932 7.312-4.321 0-6.714-18.012-4.587-18.012-14.689 0-7.045 7.31-8.905 13.026-8.905 2.459 0 4.984.2 7.379.862v5.651h.001zM296.649 162.485c0 2.526-.795 9.372 6.316 9.372.93 0 1.795-.332 2.658-.666l-3.523 4.721a7.516 7.516 0 0 1-2.129.331c-10.301 0-9.371-10.635-9.371-13.226v-13.826h-4.518v-2.393c6.246-1.062 7.908-5.715 7.908-11.895h2.658v9.9h6.248c.865 0 1.861 0 2.525-.396h.201v6.047h-.201c-1.064-1.396-3.057-1.265-4.785-1.265h-3.988v13.296zM312.507 144.807c1.529 0 3.123-.065 4.055-.863h.201v5.052c1.461-2.991 4.52-5.052 7.84-5.052l2.395.2v6.114c-.732-.798-1.93-1.063-3.059-1.063-5.051 0-7.178 2.659-7.178 9.504v9.306c0 3.06-.398 5.518 2.527 7.18v.198h-11.102v-.198c2.926-1.662 2.525-4.12 2.525-7.18V152.12c0-3.058.4-5.45-2.459-7.112v-.199l4.255-.002zM353.739 152.582c.998-2.591 2.527-6.113-.662-7.575v-.2h9.303l-13.824 32.967c-3.588 8.574-8.242 11.1-14.488 11.1-2.859 0-5.318-.666-7.912-1.661l5.982-4.319c1.131.73 2.328 1.594 3.723 1.594 4.65 0 6.646-4.983 8.043-8.64l.398-1.063-.264-.333c-2.195-2.192-2.195-2.523-3.457-5.316l-8.111-17.68c-1.328-2.923-2.123-5.251-5.316-6.446v-.2h5.65c2.459 0 3.721.997 4.453 2.659l9.77 21.999 6.712-16.886zM403.454 161.158c0-6.448-3.457-12.829-10.568-12.829-6.184 0-10.168 4.851-10.168 10.834 0 6.116 3.654 12.694 10.434 12.694 6.115.002 10.302-4.718 10.302-10.699m-27.451-.798c0-9.97 8.041-16.417 17.613-16.417 4.252 0 7.91 1.129 11.1 3.921 3.389 2.99 5.449 7.377 5.449 11.896 0 9.57-7.975 16.483-17.346 16.483-9.105.002-16.816-6.444-16.816-15.883M421.192 165.743c0 3.258-.4 7.709 2.857 9.438v.199h-11.432v-.199c2.924-1.662 2.525-4.12 2.525-7.112v-18.876h-3.324l3.324-4.387v-1.596c0-3.721-.131-5.781 2.461-8.705 3.057-3.457 7.441-4.254 11.828-4.254l4.52.399-4.652 5.118c-1.129-.733-2.059-1.13-3.389-1.13-3.92 0-4.719 1.859-4.719 5.78v4.388h7.713l1.125-.398h.203v5.85h-.203c-.529-.864-1.393-1.064-2.457-1.064h-6.381v16.549zM110.796 203.16h-.199c-2.727-3.06-7.776-3.987-11.832-3.987-10.368 0-18.278 6.779-18.278 17.48 0 10.7 8.507 18.81 19.01 18.81 3.057 0 6.247-.399 9.24-1.264v-9.571c0-3.057-.067-6.312-3.059-7.51v-.198h10.169v.198c-.333.798-.333 1.86-.333 2.858v15.286c0 .996-.065 2.062.333 2.991-5.317.997-10.501 1.994-15.885 1.994-17.014 0-27.051-9.304-27.051-22.663 0-14.29 11.365-23.197 27.449-23.197 3.523 0 6.979.399 10.435 1.129l.001 7.644zM123.729 208.608c1.53 0 3.124-.063 4.054-.862h.2v5.053c1.463-2.992 4.52-5.053 7.842-5.053l2.393.201v6.113c-.73-.797-1.928-1.062-3.058-1.062-5.051 0-7.178 2.658-7.178 9.503v9.306c0 3.06-.399 5.518 2.526 7.181v.197h-11.1v-.197c2.925-1.663 2.526-4.121 2.526-7.181v-15.885c0-3.059.4-5.452-2.459-7.113v-.2h4.254zM166.153 240.049c-4.387-.267-8.774-1.596-8.774-6.913v-10.503c-1.926.998-4.186 1.53-6.381 2.062-3.188.731-6.779 1.462-6.779 5.517 0 4.121 3.722 5.449 7.244 5.449 1.596 0 3.191-.466 4.786-.93l-3.92 4.984c-1.129.199-2.326.332-3.457.332-6.712 0-11.365-4.254-11.365-9.771 0-12.362 19.873-6.646 19.873-13.89 0-3.191-3.921-4.255-6.381-4.255-3.39 0-6.046 1.264-9.039 2.657l4.454-6.646 4.319-.399c7.179 0 12.628 2.062 12.695 10.104v9.969c0 5.25.135 7.244 5.65 7.842l-2.925 4.391zM173.954 208.608c1.461 0 3.057-.133 3.986-.862h.2v4.721c2.259-3.125 7.178-4.721 10.899-4.721 9.239 0 15.221 7.112 15.221 15.818 0 9.238-6.715 16.484-16.019 16.484-1.728 0-3.389-.267-4.919-.864l-3.588-5.45c2.325 1.131 4.719 1.928 7.244 1.928 7.046 0 10.566-4.72 10.566-11.365 0-6.183-3.321-11.898-10.166-11.898-2.793 0-5.518 1.131-7.379 3.191-1.928 2.059-1.86 4.453-1.86 7.111v22.798c0 3.057-.399 5.449 2.524 7.112v.197h-11.099v-.197c2.924-1.661 2.526-4.056 2.526-7.112v-29.577c0-3.059.398-5.516-2.526-7.113v-.2h4.39zM211.178 195.451c1.528 0 3.124 0 4.053-1.064h.201v17.547c1.995-2.858 6.514-4.188 9.771-4.188 9.172 0 11.366 5.517 11.366 11.965v12.095c0 3.06-.399 5.517 2.524 7.18v.199h-11.032v-.199c2.922-1.661 2.459-4.12 2.459-7.18v-10.102c0-5.384-1.728-9.571-7.442-9.571-5.851 0-7.646 3.257-7.646 9.173v10.5c0 3.06-.398 5.517 2.525 7.18v.199h-11.1v-.199c2.926-1.661 2.526-4.12 2.526-7.18v-28.977c0-3.059.4-5.517-2.526-7.18v-.198h4.321zM247.486 204.622c-2.46 0-4.319-1.927-4.319-4.388 0-2.324 2.125-3.92 4.319-3.92 2.259 0 3.987 1.928 3.987 4.121 0 2.192-1.728 4.187-3.987 4.187m-1.263 3.986c1.527 0 3.189-.063 4.32-1.062h.199v24.259c0 3.06-.399 5.518 2.525 7.181v.197h-11.1v-.197c2.924-1.662 2.525-4.121 2.525-7.181v-15.884c0-3.059.399-5.452-2.525-7.113v-.2h4.056zM281.927 215.39h-.199c-1.926-2.194-5.118-3.258-8.109-3.258-6.448 0-11.099 4.52-11.099 10.835 0 7.645 6.447 12.693 13.824 12.693 3.389 0 7.112-1.329 9.706-3.258h.199l-3.457 6.315c-2.791 1.062-5.849 1.329-8.772 1.329-10.235 0-18.213-6.713-18.213-15.353 0-11.432 8.908-16.951 18.943-16.951 2.393 0 4.852.268 7.178.799v6.848h-.001zM308.978 233.934c1.596.331 3.191.464 4.854.464 9.898 0 18.74-5.182 18.74-16.68 0-11.634-6.512-17.483-17.613-17.483-1.992 0-3.986.266-5.98.731v32.968zm-6.782-29.378c0-3.059.467-7.91-2.924-8.906v-.198h16.285c15.154 0 24.59 8.241 24.59 21.467 0 13.093-10.035 22.266-24.924 22.266h-15.951v-.199c3.322-2.261 2.924-5.451 2.924-9.37v-25.06zM367.763 218.978c-.73-4.651-3.789-6.846-8.574-6.846-4.453 0-7.775 2.658-8.572 6.846h17.146zm-17.414 3.855c.135 8.109 5.783 12.828 13.293 12.828 3.986 0 7.842-1.13 10.9-3.522h.199l-3.322 6.248c-2.859 1.196-6.051 1.66-9.174 1.66-11.297 0-19.072-7.111-19.072-16.349s6.711-15.953 16.615-15.953c9.039 0 15.219 6.513 14.953 15.088h-24.392zM399.099 214.26c-2.459-1.328-5.25-2.127-8.178-2.127-2.191 0-6.182.533-6.182 3.19 0 5.913 18.016 3.788 18.016 14.357 0 6.181-6.314 10.368-14.891 10.368-2.992 0-5.848-.465-8.639-1.596l-2.328-6.514c3.855 2.46 7.91 3.722 12.496 3.722 2.725 0 7.311-.93 7.311-4.32 0-6.712-18.012-4.587-18.012-14.689 0-7.045 7.311-8.905 13.027-8.905 2.459 0 4.984.2 7.377.862v5.651h.003zM410.362 204.622c-2.459 0-4.322-1.927-4.322-4.388 0-2.324 2.129-3.92 4.322-3.92 2.26 0 3.986 1.928 3.986 4.121.001 2.192-1.726 4.187-3.986 4.187m-1.263 3.986c1.531 0 3.191-.063 4.322-1.062h.199v24.259c0 3.06-.4 5.518 2.525 7.181v.197h-11.1v-.197c2.924-1.662 2.523-4.121 2.523-7.181v-15.884c0-3.059.402-5.452-2.523-7.113v-.2h4.054zM435.214 225.958c3.986 0 6.912-2.594 6.912-6.447 0-4.256-3.588-7.38-8.309-7.38-3.654 0-6.777 1.994-6.777 5.851-.002 4.321 3.854 7.976 8.174 7.976m19.406-18.212l-1.529 3.456c-.529 1.196-.662 1.595-2.127 1.595-2.324 0-4.584-.532-6.844-.863 2.793 1.793 4.719 4.653 4.719 8.043 0 7.509-8.109 9.836-14.158 10.369-.93.064-2.727.663-2.727 1.793 0 1.464 3.125 1.264 3.99 1.264 11.496 0 17.611 3.123 17.611 9.704 0 7.511-8.309 11.696-18.676 11.696-9.771 0-18.41-3.788-18.41-9.438 0-3.722 2.99-5.384 6.379-5.384 1.398 0 2.527.265 3.791.863-1.662.332-2.525 1.265-2.525 2.99 0 5.584 6.646 6.58 10.965 6.58 4.387 0 11.766-1.264 11.766-6.845 0-5.848-9.506-6.182-13.559-6.182l-4.586.134c-2.924.065-4.854-2.326-4.854-4.719 0-1.928 3.855-2.857 5.25-3.524-4.785-.929-8.773-5.249-8.773-10.235 0-7.708 7.445-11.299 14.291-11.299l20.006.002zM460.827 208.608c1.459 0 3.055-.063 4.451-.862h.201v5.118c2.324-3.19 5.049-5.118 9.371-5.118 3.721 0 7.975 1.464 10.102 4.588 1.861 2.657 1.662 6.777 1.662 9.899v9.639c0 3.059-.398 5.451 2.523 7.112v.198h-11.1v-.198c2.926-1.661 2.529-4.119 2.529-7.112v-8.973c0-7.111-1.996-10.768-8.043-10.768-6.049 0-7.045 4.055-7.045 7.975v11.766c0 3.059-.4 5.451 2.523 7.112v.198h-11.098v-.198c2.924-1.661 2.525-4.119 2.525-7.179v-15.818c0-3.057.398-5.518-2.525-7.179v-.2h3.924z"/></svg>