<svg xmlns="http://www.w3.org/2000/svg" width="589.8" height="311.367"><path fill="#EBF400" d="M138.707 126.448c0 1.212-.319 2.158-.954 2.838-.636.68-1.562 1.02-2.774 1.02-1.244 0-2.634-.186-4.172-.554a23.83 23.83 0 0 1-4.461-1.552 18.141 18.141 0 0 1-3.907-2.439c-1.169-.96-1.991-2.018-2.462-3.173-.534.623-1.259 1.227-2.176 1.819a56.266 56.266 0 0 0-2.707 1.862 14.39 14.39 0 0 0-2.309 2.085c-.651.738-.976 1.567-.976 2.484 0 1.419.294 3.03.886 4.834.592 1.803 1.236 3.776 1.933 5.92a93.842 93.842 0 0 1 1.931 6.896c.591 2.455.887 5.057.887 7.806 0 .651-.066 1.177-.199 1.575-.134.4-.349.6-.644.6-.297 0-.526-.171-.688-.51a5.16 5.16 0 0 1-.376-1.088 63.4 63.4 0 0 0-2.575-7.739 2249.82 2249.82 0 0 1-2.997-7.43 93.251 93.251 0 0 1-2.462-6.852c-.682-2.173-1.021-4.177-1.021-6.01 0-1.714.422-3.371 1.265-4.967.844-1.597 2.42-3.15 4.727-4.658 2.072-1.331 3.796-2.55 5.172-3.659 1.375-1.11 2.477-2.357 3.306-3.749.978-1.655 1.887-3.06 2.73-4.212.844-1.154 1.627-2.084 2.352-2.795.726-.709 1.421-1.227 2.087-1.551.666-.325 1.337-.49 2.019-.49 1.125 0 2.25.608 3.373 1.819 1.125 1.213 2.147 3.166 3.064 5.855a40.15 40.15 0 0 1 1.043 3.704c.28 1.227.503 2.388.665 3.482.163 1.094.273 2.069.334 2.927.059.856.088 1.552.088 2.083v3.819h-.002zm-3.684-4.568c0-.415-.089-.983-.267-1.708a22.006 22.006 0 0 0-.71-2.306 24.768 24.768 0 0 0-1.065-2.484 16 16 0 0 0-1.354-2.285c-.488-.679-.999-1.233-1.532-1.663-.532-.427-1.08-.643-1.643-.643-.472 0-1.006.229-1.598.688-.592.458-1.146.992-1.663 1.597-.519.605-.954 1.22-1.31 1.84-.355.621-.533 1.095-.533 1.419 0 .444.216.896.643 1.353.43.459.978.917 1.643 1.375.667.458 1.405.893 2.219 1.308.815.415 1.622.776 2.42 1.085.799.311 1.545.564 2.241.756.697.19 1.251.287 1.666.287.355 0 .584-.045.687-.133.103-.087.156-.249.156-.486"/><path fill="#EBF400" d="M138.44 128.843c-1.893 0-2.841-.812-2.841-2.439v-3.46c0-1.686.948-2.529 2.841-2.529h20.329v7.718c0 .474-.25.71-.753.71H138.44z"/><path fill="#EBF400" d="M158.503 128.843c-1.894 0-2.84-.812-2.84-2.439v-3.46c0-1.686.947-2.529 2.84-2.529h23.968c.681 0 1.022-.28 1.022-.842 0-2.247-1.73-5.884-5.193-10.911l6.346-6.963c1.183 1.774 2.463 5.064 3.84 9.868 1.376 4.804 2.065 8.256 2.065 10.355v3.372c0 2.366-1.452 3.548-4.351 3.548l-27.697.001zm17.889 13.882l-6.26 6.298-6.257-6.298 6.257-6.255 6.26 6.255zm13.005 0l-6.304 6.298-6.257-6.298 6.257-6.255 6.304 6.255z"/><path fill="#EBF400" d="M190.284 128.843c-1.894 0-2.841-.812-2.841-2.439v-3.46c0-1.686.947-2.527 2.841-2.527 1.153 0 2.485-.133 3.996-.4a22.384 22.384 0 0 0 4.593-1.353c1.553-.635 3.046-1.507 4.483-2.616 1.435-1.109 2.641-2.508 3.617-4.192.977-1.655 1.879-3.06 2.708-4.213.827-1.154 1.604-2.091 2.329-2.816.727-.725 1.421-1.25 2.088-1.574.666-.325 1.337-.49 2.018-.49 1.126 0 2.25.608 3.374 1.819 1.125 1.213 2.146 3.166 3.064 5.855a40.14 40.14 0 0 1 1.042 3.704 44.58 44.58 0 0 1 .665 3.482c.164 1.094.273 2.069.334 2.927.06.856.089 1.552.089 2.083v3.815c0 1.212-.319 2.158-.955 2.838-.637.68-1.562 1.02-2.774 1.02-1.273 0-2.694-.193-4.261-.578a23.67 23.67 0 0 1-4.549-1.618 17.494 17.494 0 0 1-3.929-2.529c-1.154-.991-1.952-2.09-2.397-3.304a20.09 20.09 0 0 1-3.839 2.928 27.177 27.177 0 0 1-4.239 2.04 27.23 27.23 0 0 1-4.083 1.198c-1.304.266-2.427.4-3.374.4M221 121.88c0-.415-.089-.983-.267-1.708a22.023 22.023 0 0 0-.711-2.306 24.741 24.741 0 0 0-1.063-2.484 16.188 16.188 0 0 0-1.354-2.285c-.489-.679-.999-1.233-1.532-1.663-.532-.427-1.08-.643-1.643-.643-.472 0-1.007.229-1.598.688-.592.458-1.146.992-1.664 1.597-.52.605-.955 1.22-1.309 1.84-.355.621-.535 1.095-.535 1.419 0 .444.216.896.645 1.353.429.459.978.917 1.642 1.375.667.458 1.405.893 2.219 1.308a26.097 26.097 0 0 0 4.661 1.841c.695.19 1.25.287 1.665.287.355 0 .584-.045.687-.133.104-.087.157-.249.157-.486"/><path fill="#EBF400" d="M224.417 128.842c-1.894 0-2.841-.812-2.841-2.438v-3.46c0-1.686.947-2.527 2.841-2.527 1.095 0 2.309-.156 3.641-.466a28.581 28.581 0 0 0 4.106-1.308 34.25 34.25 0 0 0 4.216-2.042 32.168 32.168 0 0 0 3.973-2.66 92.134 92.134 0 0 0 2.928-2.461c.68-.606 1.126-.91 1.333-.91.118 0 .185.052.2.156.014.103.021.229.021.375 0 .178-.043.496-.134.954-.087.458-.132 1.059-.132 1.797 0 2.129.724 3.741 2.174 4.834 2.487-3.637 5.415-7.096 8.789-10.379 1.864-1.804 3.499-3.281 4.904-4.436 1.407-1.151 2.582-2.01 3.53-2.571 1.657-.946 3.522-1.419 5.592-1.419 3.906 0 6.865 2.69 8.877 8.071 1.422 3.874 2.13 8.118 2.13 12.729v6.077c0 2.305-6.185 3.459-18.552 3.459-1.481 0-3.072-.045-4.772-.133a55.716 55.716 0 0 1-5.016-.488 33.545 33.545 0 0 1-4.594-.976c-1.42-.415-2.56-.932-3.417-1.553a66.578 66.578 0 0 0-2.155 2.595c-.784.991-1.783 2.151-2.994 3.482 0-.769.184-1.767.554-2.994.369-1.228 1.205-2.757 2.507-4.592-.208-.205-.503-.575-.889-1.107a5.653 5.653 0 0 1-.842-1.685 31.016 31.016 0 0 1-4.439 2.837 32.153 32.153 0 0 1-4.328 1.886c-1.406.487-2.722.835-3.95 1.042-1.226.208-2.313.311-3.261.311m52.155-9.358c0-2.188-.83-4.597-2.485-7.229-1.865-2.928-3.922-4.392-6.171-4.392-4.438 0-10.445 4.141-18.02 12.419 3.313.977 8.345 1.464 15.09 1.464 7.724 0 11.586-.753 11.586-2.262"/><path fill="#EBF400" d="M280.3 128.843c-1.894 0-2.84-.812-2.84-2.439v-3.46c0-1.686.947-2.527 2.84-2.527h23.967c.682 0 1.021-.283 1.021-.844 0-2.246-1.729-5.883-5.192-10.911l6.347-6.963c1.184 1.774 2.465 5.063 3.84 9.868 1.377 4.805 2.064 8.257 2.064 10.356v3.371c0 2.366-1.449 3.548-4.35 3.548l-27.697.001zm17.889-38.898l-6.261 6.299-6.258-6.299 6.258-6.254 6.261 6.254zm12.916 0l-6.307 6.299-6.256-6.299 6.256-6.254 6.307 6.254z"/><path fill="#EBF400" d="M312.082 128.843c-1.895 0-2.842-.812-2.842-2.439v-3.46c0-1.686.947-2.529 2.842-2.529h12.338c1.096 0 1.646-.487 1.646-1.464 0-7.274-1.631-19.839-4.885-37.698l5.812-6.476c1.006 4.552 2.146 12.729 3.418 24.525 1.156 11.12 1.73 18.511 1.73 22.178v4.656c0 1.805-.963 2.707-2.885 2.707h-17.174zM347.767 128.754l-5.727 3.371v-4.081c0-4.406-.488-10.984-1.465-19.737-1.096-10.022-2.426-19.012-3.994-26.966l5.904-6.563c3.52 20.667 5.282 38.66 5.282 53.976M396.195 126.846c0 .799-1.141 1.479-3.418 2.042-2.664.709-6.348 1.064-11.055 1.064-4.172 0-7.072-.608-8.697-1.819-1.393-1.034-2.088-2.794-2.088-5.277 0-4.908 4.66-10.777 13.982-17.609l-.977-2.66 6.346-5.722c1.184 2.721 2.502 7.17 3.953 13.35 1.301 5.618 1.951 9.108 1.951 10.467v6.164h.003zm-12.25-41.513l-6.26 6.297-6.26-6.297 6.26-6.255 6.26 6.255zm6.521 35.349c0-.502-.637-2.565-1.908-6.187s-2.084-5.434-2.439-5.434c-.711 0-2.309 1.435-4.793 4.303-2.576 2.987-3.863 5.145-3.863 6.475 0 1.391 2.027 2.085 6.08 2.085 4.617 0 6.923-.414 6.923-1.242m6.395-35.349l-6.305 6.297-6.26-6.297 6.26-6.255 6.305 6.255zM415.767 128.843c0 1.388-.199 2.957-.598 4.702-.4 1.743-.939 3.694-1.621 5.854-.74 2.366-1.547 4.465-2.418 6.298a83.752 83.752 0 0 1-2.641 5.1c-.564.769-1.156 1.375-1.775 1.818-.621.444-1.453.725-2.486.844a38.764 38.764 0 0 1-3.816.177c-2.457 0-3.688-.162-3.688-.487 0-.238.252-.563.756-.977 4.766-4.612 8.758-10.216 11.984-16.81 1.717-3.518 2.576-5.958 2.576-7.318-.238-.947-.623-2.018-1.154-3.215a36.429 36.429 0 0 0-1.863-3.614c-.711-1.213-1.459-2.373-2.242-3.482s-1.52-2.047-2.195-2.817l5.191-7.761a73.145 73.145 0 0 1 2.752 4.522 25.606 25.606 0 0 1 1.863 4.171c.475 1.39.82 2.845 1.043 4.368.223 1.523.332 3.231.332 5.123v3.504zM430.949 128.754l-5.727 3.371v-4.081c0-4.406-.486-10.984-1.465-19.737-1.096-10.022-2.428-19.012-3.994-26.966l5.904-6.563c3.52 20.667 5.282 38.66 5.282 53.976M452.429 128.842c0 1.39-.197 2.958-.6 4.703-.398 1.743-.938 3.695-1.619 5.854-.74 2.366-1.547 4.465-2.418 6.299a83.21 83.21 0 0 1-2.641 5.1c-.564.769-1.154 1.374-1.775 1.818-.621.443-1.451.725-2.486.843a38.764 38.764 0 0 1-3.816.177c-2.457 0-3.684-.162-3.684-.487 0-.238.248-.564.752-.978 4.764-4.611 8.762-10.215 11.986-16.809 1.715-3.518 2.574-5.958 2.574-7.318-.238-.946-.621-2.018-1.154-3.216a35.632 35.632 0 0 0-1.867-3.613 48.686 48.686 0 0 0-2.238-3.483 34.104 34.104 0 0 0-2.195-2.817l5.189-7.76a70.679 70.679 0 0 1 2.752 4.523 25.281 25.281 0 0 1 1.865 4.17c.475 1.389.82 2.844 1.043 4.368.223 1.522.332 3.231.332 5.122v3.504zm-2.262-34.107l-6.26 6.254-6.256-6.254 6.256-6.298 6.26 6.298zM481.46 126.448c0 2.572-.295 5.056-.889 7.45a35.654 35.654 0 0 1-2.484 6.919c-1.127 2.306-2.303 4.347-3.529 6.121a34.54 34.54 0 0 1-3.973 4.789 7.691 7.691 0 0 1-2.729 1.754c-1.051.399-2.359.598-3.93.598-.176 0-.65-.015-1.42-.044a40.109 40.109 0 0 1-2.463-.178 27.329 27.329 0 0 1-2.352-.333c-.697-.133-1.045-.304-1.045-.51 0-.237.295-.503.889-.798 2.275-1.184 4.594-2.757 6.945-4.725 2.352-1.965 4.771-4.472 7.258-7.516 1.537-1.894 2.758-3.704 3.662-5.433.898-1.73 1.354-3.291 1.354-4.679v-1.021c-.859.208-1.867.361-3.02.467-1.154.104-2.604.155-4.352.155-1.271 0-2.457-.081-3.551-.243-1.094-.163-2.049-.473-2.861-.932-.814-.458-1.451-1.125-1.91-1.996-.459-.873-.688-2.019-.688-3.438s.207-2.986.621-4.703c.414-1.713 1.139-3.548 2.174-5.5 1.244-2.334 2.627-4.153 4.152-5.456 1.521-1.299 2.965-1.95 4.326-1.95a5.29 5.29 0 0 1 3.264 1.085c.961.725 1.803 1.671 2.527 2.84s1.35 2.505 1.865 4.014a34.87 34.87 0 0 1 1.244 4.634c.309 1.582.537 3.12.688 4.612a39.84 39.84 0 0 1 .227 4.017m-5.636-5.5c-.828-2.602-1.783-4.614-2.863-6.032-1.08-1.419-2.258-2.13-3.529-2.13-.648 0-1.271.2-1.863.6a6.66 6.66 0 0 0-1.555 1.464 7.27 7.27 0 0 0-1.043 1.885c-.25.68-.377 1.302-.377 1.863 0 .649.143 1.168.422 1.552.281.385.668.672 1.156.864.486.192 1.055.319 1.707.377.65.06 1.361.087 2.133.087 1.271 0 2.41-.042 3.414-.132 1.007-.088 1.806-.221 2.398-.398M202.292 212.154h-1.198c-.149-2.219-.859-5.057-2.13-8.516-1.864-5.027-4.054-7.541-6.569-7.541-1.894 0-4.115.844-6.659 2.528-2.546 1.685-3.818 3.104-3.818 4.256 0 .712.696 1.466 2.086 2.265l4.84 2.838c2.78 1.625 4.171 3.223 4.171 4.789 0 1.095-.547 2.189-1.642 3.283-1.746 1.742-4.854 3.711-9.321 5.898-6.155 3.045-11.896 4.568-17.221 4.568-8.612 0-12.918-4.272-12.918-12.818 0-3.341 1.169-7.213 3.507-11.62 2.072-3.873 3.417-5.81 4.039-5.81.236 0 .37.133.4.398-.088-.029-.695 1.493-1.82 4.567-1.214 3.312-1.82 5.975-1.82 7.983 0 6.182 3.565 9.271 10.697 9.271 5.238 0 9.84-.62 13.804-1.863 3.167-1.004 4.75-1.834 4.75-2.483 0-.061-1.679-1.063-5.037-3.016-3.359-1.951-5.038-3.859-5.038-5.721 0-2.928 2.219-6.448 6.657-10.557 4.556-4.198 8.61-6.299 12.161-6.299 2.694 0 4.751 2.262 6.171 6.786 1.271 3.989 1.909 9.166 1.909 15.522l-.001 1.292zm-14.115 20.405l-6.26 6.295-6.257-6.295 6.257-6.257 6.26 6.257zm13.006 0l-6.305 6.295-6.256-6.295 6.256-6.257 6.305 6.257z"/><path fill="#EBF400" d="M202.913 212.154c-1.893 0-2.841-.812-2.841-2.439v-3.459c0-1.688.948-2.527 2.841-2.527h20.328v7.717c0 .473-.25.71-.753.71l-19.575-.002z"/><path fill="#EBF400" d="M222.976 212.154c-1.893 0-2.841-.812-2.841-2.439v-3.459c0-1.688.948-2.527 2.841-2.527h27.919c.472 0 .709-.223.709-.666 0-.236-.931-1.391-2.796-3.459-2.101-2.336-4.202-4.42-6.303-6.256-4.439-3.871-7.946-6.474-10.519-7.804-.09.856-.372 1.285-.844 1.285-.386 0-1.273-.856-2.663-2.573-1.48-1.832-2.22-3.31-2.22-4.436 0-2.602.813-4.598 2.44-5.987 2.901-2.481 7.043-5.571 12.428-9.269 6.186-4.258 11.823-7.776 16.914-10.559l-1.82 8.473c-3.019 1.773-7.354 4.539-13.006 8.295-6.273 4.197-9.41 6.519-9.41 6.964 0 .088 1.288 1.004 3.861 2.749 3.461 2.307 6.806 5.203 10.032 8.691 2.248 2.428 4.55 5.354 6.901 8.783 2.354 3.432 3.531 5.589 3.531 6.477v4.789c0 1.951-.934 2.928-2.798 2.928h-32.356z"/><path fill="#EBF400" d="M257.863 212.154c-1.894 0-2.84-.812-2.84-2.439v-3.459c0-1.688.946-2.527 2.84-2.527h23.968c.681 0 1.022-.281 1.022-.844 0-2.246-1.73-5.885-5.193-10.91l6.346-6.964c1.184 1.773 2.464 5.063 3.84 9.868s2.064 8.256 2.064 10.355v3.371c0 2.367-1.451 3.549-4.351 3.549h-27.696zm17.888 13.883l-6.26 6.299-6.258-6.299 6.258-6.256 6.26 6.256zm13.005 0l-6.304 6.299-6.258-6.299 6.258-6.256 6.304 6.256z"/><path fill="#EBF400" d="M289.644 212.154c-1.893 0-2.841-.812-2.841-2.439v-3.459c0-1.688.949-2.527 2.841-2.527h23.746l.133-.268c-.266-.384-.812-.746-1.643-1.086a48.612 48.612 0 0 0-2.885-1.064 76.09 76.09 0 0 1-3.461-1.264 18.236 18.236 0 0 1-3.328-1.688c-1.008-.649-1.838-1.426-2.486-2.327-.651-.902-.979-1.974-.979-3.216 0-.711.082-1.51.245-2.396.162-.889.415-1.804.755-2.75.338-.944.77-1.915 1.286-2.903a21.615 21.615 0 0 1 1.796-2.861c2.782-3.666 5.328-5.499 7.639-5.499 1.803 0 3.377.862 4.727 2.595 1.348 1.729 2.537 4.411 3.572 8.049.414 1.42.746 2.861.998 4.324a62.68 62.68 0 0 1 .887 8.627c.047 1.391.066 2.706.066 3.947v5.589c0 1.744-1.123 2.616-3.371 2.616h-27.697zm22.594-46.526l-6.259 6.254-6.304-6.254 6.304-6.298 6.259 6.298zm4.127 32.289c-.236-2.041-.629-3.91-1.176-5.612-.549-1.697-1.176-3.168-1.887-4.41s-1.451-2.209-2.219-2.904c-.771-.695-1.512-1.043-2.221-1.043-.652 0-1.287.148-1.908.441a6.642 6.642 0 0 0-1.666 1.133c-.488.457-.887.97-1.197 1.529-.312.563-.467 1.109-.467 1.643 0 .681.281 1.336.844 1.973.562.636 1.279 1.243 2.152 1.818.873.578 1.82 1.123 2.842 1.641a258.13 258.13 0 0 0 2.928 1.465c.936.458 1.746.896 2.441 1.307.695.416 1.146.801 1.355 1.156l.179-.137zM335.453 212.066l-5.729 3.371v-4.082c0-4.406-.488-10.984-1.463-19.737-1.096-10.021-2.426-19.011-3.996-26.968l5.904-6.562c3.522 20.669 5.284 38.663 5.284 53.978M356.046 212.154c0 1.388-.201 2.957-.6 4.701s-.939 3.694-1.619 5.854c-.742 2.364-1.549 4.465-2.42 6.296a81.882 81.882 0 0 1-2.643 5.102c-.562.77-1.152 1.375-1.775 1.818-.621.443-1.449.725-2.486.844a38.764 38.764 0 0 1-3.816.178c-2.457 0-3.684-.162-3.684-.488 0-.236.252-.562.756-.977 4.764-4.611 8.758-10.215 11.982-16.809 1.717-3.52 2.576-5.958 2.576-7.318-.238-.945-.623-2.02-1.154-3.217a36.305 36.305 0 0 0-1.865-3.611 47.2 47.2 0 0 0-2.242-3.484 33.174 33.174 0 0 0-2.195-2.814l5.193-7.762a72.084 72.084 0 0 1 2.75 4.522 25.543 25.543 0 0 1 1.865 4.171c.475 1.39.822 2.845 1.041 4.367.223 1.523.336 3.231.336 5.123v3.504z"/><path fill="#EBF400" d="M383.078 197.827c-.564-.146-1.184-.458-1.863-.931s-1.393-1.021-2.131-1.642c-.74-.621-1.51-1.271-2.307-1.95a39.3 39.3 0 0 0-2.4-1.888 14.437 14.437 0 0 0-2.395-1.418c-.801-.369-1.555-.556-2.266-.556-2.1 0-3.771 1.006-5.014 3.017-.682 1.036-1.111 1.554-1.287 1.554-.236 0-.355-.148-.355-.442 0-.681.154-1.537.467-2.573.311-1.034.85-2.264 1.619-3.684 1.006-1.86 2.115-3.267 3.328-4.211 1.213-.946 2.473-1.42 3.773-1.42 1.006 0 2.023.246 3.062.731 1.037.487 2.086 1.13 3.15 1.931 1.064.799 2.154 1.707 3.264 2.727s2.256 2.041 3.439 3.06a70.302 70.302 0 0 0 3.66 2.951 25.097 25.097 0 0 0 3.93 2.438c3.551 1.774 5.801 2.662 6.748 2.662v7.896c-1.037-.209-2.289-.386-3.752-.533a47.743 47.743 0 0 0-4.729-.222c-2.309 0-4.668.052-7.078.156a92.022 92.022 0 0 0-7.258.599 76.467 76.467 0 0 0-7.191 1.22 56.646 56.646 0 0 0-6.924 1.973c-2.221.8-3.854 1.479-4.904 2.041s-1.65.843-1.797.843c-1.096 0-1.645-.517-1.645-1.554v-6.074a41.917 41.917 0 0 1 7.168-3.195 60.87 60.87 0 0 1 7.592-2.039c2.529-.503 5.002-.855 7.412-1.062s4.641-.312 6.68-.312v-.091h.004zm-.133 22.575l-6.26 6.3-6.258-6.3 6.258-6.254 6.26 6.254z"/><path fill="#EBF400" d="M399.236 212.154c-1.895 0-2.844-.812-2.844-2.439v-3.459c0-1.688.949-2.527 2.844-2.527h12.34c1.092 0 1.641-.488 1.641-1.465 0-7.273-1.629-19.84-4.883-37.699l5.814-6.476c1.006 4.552 2.145 12.729 3.418 24.525 1.152 11.118 1.729 18.512 1.729 22.177v4.657c0 1.804-.959 2.706-2.883 2.706h-17.176zM434.921 212.066l-5.727 3.371v-4.082c0-4.406-.488-10.984-1.467-19.737-1.094-10.021-2.426-19.011-3.992-26.968l5.904-6.562c3.523 20.669 5.282 38.663 5.282 53.978"/><path fill="#EBF400" d="M589.925 99.564c-23.955-35.884-81.771-36.297-84.216-36.297-40.188 0-70.785-12.575-103.181-25.887-31.903-13.114-64.897-26.673-107.328-26.673S219.776 24.266 187.871 37.38c-32.394 13.312-62.992 25.887-103.18 25.887-.61 0-15.169.053-32.846 4.464C28.2 73.635 10.437 84.642.476 99.564l-.476.713v132.547l.476.709c23.956 35.887 81.769 36.299 84.218 36.299H505.71c.61 0 15.168-.051 32.844-4.463 23.648-5.904 41.412-16.912 51.372-31.836l.475-.709V100.277l-.476-.713zm-5.183 131.532c-22.585 32.654-78.469 33.078-79.032 33.078H84.692c-.564 0-56.423-.381-79.035-33.078V102.003c22.587-32.655 78.47-33.079 79.035-33.079 41.306 0 73.854-13.376 105.331-26.312 31.396-12.905 63.863-26.247 105.177-26.247s73.782 13.341 105.178 26.247c31.477 12.936 64.023 26.312 105.331 26.312.563 0 56.424.378 79.032 33.079v129.093z"/></svg>