<svg xmlns="http://www.w3.org/2000/svg" width="562.049" height="367.055"><path fill="#C6584F" d="M280.758 332.627c-53.189 0-103.417-5.326-149.291-15.831-47.963-10.983-91.537-27.726-129.51-49.76l-1.955-1.135 56.25-82.372L0 101.468l1.955-1.137C39.981 78.2 83.625 61.383 131.676 50.345c45.979-10.562 96.315-15.917 149.614-15.917 53.072 0 103.302 5.379 149.293 15.987 47.894 11.048 91.466 27.841 129.507 49.914l1.959 1.137-56.255 82.063 56.249 82.37-1.95 1.136c-74.789 43.524-168.771 65.592-279.335 65.592zM6.023 264.532c37.146 21.266 79.655 37.469 126.382 48.17 45.566 10.435 95.479 15.726 148.353 15.726 108.847 0 201.447-21.497 275.268-63.893l-55.32-81.01 55.315-80.694c-37.212-21.305-79.72-37.56-126.381-48.323-45.683-10.537-95.595-15.88-148.35-15.88-52.982 0-103.003 5.319-148.673 15.811-46.816 10.753-89.392 27.03-126.592 48.39l55.316 80.696-55.318 81.007z"/><g fill="#C6584F"><path d="M135.541 151.525c0-.379-.081-.899-.244-1.563-.162-.663-.379-1.367-.65-2.112s-.596-1.504-.975-2.276c-.379-.771-.792-1.469-1.239-2.092s-.915-1.131-1.402-1.523c-.487-.393-.989-.589-1.503-.589-.433 0-.921.21-1.463.63s-1.049.907-1.523 1.463a11.064 11.064 0 0 0-1.198 1.685c-.326.57-.488 1.003-.488 1.3 0 .407.197.821.589 1.24.393.42.894.839 1.503 1.259.61.42 1.286.82 2.031 1.199a24.7 24.7 0 0 0 2.215.995 21.28 21.28 0 0 0 2.051.691c.637.176 1.145.264 1.523.264.326 0 .536-.041.63-.122.095-.082.143-.231.143-.449m3.372 4.186c0 1.109-.292 1.977-.874 2.6s-1.429.935-2.539.935c-1.138 0-2.41-.17-3.818-.509a21.632 21.632 0 0 1-4.083-1.422 16.54 16.54 0 0 1-3.576-2.233c-1.07-.88-1.822-1.85-2.255-2.905-.487.569-1.151 1.124-1.99 1.666-.84.542-1.666 1.11-2.478 1.706a13.087 13.087 0 0 0-2.113 1.909c-.596.677-.894 1.436-.894 2.274 0 1.3.27 2.777.812 4.43.542 1.651 1.131 3.459 1.768 5.423a85.679 85.679 0 0 1 1.768 6.317c.541 2.248.812 4.632.812 7.15 0 .595-.061 1.077-.183 1.442-.122.366-.319.549-.589.549-.271 0-.481-.156-.63-.468a4.814 4.814 0 0 1-.345-.995 58.059 58.059 0 0 0-2.356-7.089c-.949-2.345-1.863-4.611-2.743-6.806a85.697 85.697 0 0 1-2.255-6.276c-.623-1.99-.934-3.826-.934-5.506 0-1.569.386-3.088 1.158-4.549.772-1.463 2.214-2.885 4.326-4.267 1.896-1.219 3.474-2.336 4.734-3.353 1.259-1.015 2.267-2.158 3.026-3.432.894-1.517 1.727-2.804 2.499-3.86s1.489-1.908 2.153-2.559c.663-.651 1.3-1.124 1.91-1.422a4.163 4.163 0 0 1 1.848-.447c1.029 0 2.058.555 3.087 1.666 1.029 1.11 1.964 2.898 2.804 5.362a36.86 36.86 0 0 1 .955 3.393c.257 1.124.46 2.188.609 3.189.149 1.002.25 1.896.305 2.682.054.785.081 1.422.081 1.909v3.496z"/><path d="M138.669 157.904c-1.732 0-2.6-.744-2.6-2.234v-3.169c0-1.544.868-2.315 2.6-2.315h18.607v7.068c0 .434-.23.65-.69.65h-17.917z"/><path d="M185.308 170.62l-5.768 5.77-5.729-5.77 5.729-5.729 5.768 5.729zm-11.903 0l-5.728 5.77-5.729-5.77 5.729-5.729 5.728 5.729zm-16.373-12.716c-1.732 0-2.6-.744-2.6-2.234v-3.169c0-1.544.868-2.315 2.6-2.315h21.938c.624 0 .935-.259.935-.772 0-2.058-1.584-5.389-4.753-9.994l5.81-6.378c1.083 1.625 2.255 4.638 3.513 9.039 1.26 4.401 1.89 7.563 1.89 9.486v3.088c0 2.167-1.327 3.25-3.981 3.25h-25.352z"/><path d="M214.234 151.526c0-.38-.082-.9-.244-1.564a20.577 20.577 0 0 0-.65-2.113 22.931 22.931 0 0 0-.975-2.274 14.777 14.777 0 0 0-1.239-2.093c-.446-.622-.914-1.13-1.402-1.523-.487-.392-.989-.589-1.502-.589-.434 0-.922.21-1.463.63-.542.42-1.05.908-1.524 1.463a10.953 10.953 0 0 0-1.198 1.686c-.325.568-.488 1.003-.488 1.3 0 .406.196.82.59 1.239.391.421.893.84 1.502 1.26.61.42 1.287.818 2.032 1.198a23.5 23.5 0 0 0 2.214.994c.731.286 1.415.517 2.051.692.637.176 1.145.263 1.524.263.325 0 .535-.041.63-.122.094-.081.142-.23.142-.447m-28.114 6.378c-1.732 0-2.6-.744-2.6-2.234v-3.169c0-1.544.868-2.315 2.6-2.315 1.057 0 2.275-.122 3.657-.366a20.405 20.405 0 0 0 4.204-1.239c1.422-.582 2.789-1.381 4.104-2.396 1.313-1.017 2.417-2.297 3.311-3.84.894-1.516 1.719-2.803 2.478-3.859.758-1.057 1.469-1.915 2.133-2.579.664-.664 1.3-1.146 1.91-1.442a4.165 4.165 0 0 1 1.848-.448c1.029 0 2.058.557 3.087 1.666 1.03 1.111 1.964 2.899 2.804 5.363.379 1.137.696 2.27.954 3.393.258 1.124.461 2.188.61 3.189.148 1.002.25 1.896.304 2.681a28.5 28.5 0 0 1 .082 1.91v3.494c0 1.11-.292 1.977-.874 2.6-.583.623-1.428.935-2.539.935-1.165 0-2.465-.177-3.9-.529a21.801 21.801 0 0 1-4.164-1.481 16.051 16.051 0 0 1-3.596-2.317c-1.056-.907-1.787-1.914-2.193-3.025-1.057 1.029-2.229 1.924-3.515 2.682s-2.579 1.381-3.88 1.868c-1.3.487-2.546.854-3.737 1.098-1.192.238-2.221.36-3.088.36"/><path d="M265.098 149.332c0-2.004-.758-4.211-2.274-6.623-1.707-2.681-3.59-4.021-5.648-4.021-4.062 0-9.561 3.793-16.494 11.376 3.034.894 7.638 1.341 13.813 1.341 7.069-.001 10.603-.692 10.603-2.073m-47.736 8.572c-1.732 0-2.6-.744-2.6-2.234v-3.169c0-1.544.868-2.315 2.6-2.315 1.002 0 2.113-.144 3.332-.428a26.14 26.14 0 0 0 3.758-1.197 31.623 31.623 0 0 0 3.859-1.869 29.406 29.406 0 0 0 3.636-2.438c1.164-.949 2.059-1.7 2.682-2.255s1.029-.833 1.218-.833c.109 0 .169.047.183.143.014.095.02.21.02.345 0 .163-.04.454-.122.874-.081.42-.122.969-.122 1.646 0 1.95.664 3.426 1.992 4.428 2.275-3.331 4.956-6.5 8.043-9.508 1.707-1.65 3.203-3.005 4.49-4.062 1.286-1.056 2.362-1.841 3.229-2.356 1.517-.866 3.224-1.3 5.119-1.3 3.576 0 6.284 2.465 8.125 7.395 1.301 3.548 1.951 7.435 1.951 11.658v5.567c0 2.112-5.662 3.169-16.982 3.169-1.354 0-2.81-.041-4.367-.122a50.08 50.08 0 0 1-4.591-.448c-1.503-.216-2.905-.514-4.205-.893s-2.343-.854-3.128-1.422a59.72 59.72 0 0 0-1.971 2.377 60.995 60.995 0 0 1-2.742 3.188c0-.704.169-1.617.508-2.741.338-1.124 1.104-2.525 2.295-4.205-.189-.188-.461-.527-.813-1.016a5.15 5.15 0 0 1-.771-1.544 28.428 28.428 0 0 1-4.063 2.601 29.87 29.87 0 0 1-3.96 1.727c-1.288.447-2.493.765-3.617.955-1.124.188-2.119.282-2.986.282"/><path d="M296.706 122.274l-5.77 5.77-5.728-5.77 5.728-5.728 5.77 5.728zm-11.822 0l-5.728 5.77-5.729-5.77 5.729-5.728 5.728 5.728zm-16.373 35.63c-1.732 0-2.6-.744-2.6-2.234v-3.169c0-1.544.868-2.315 2.6-2.315h21.938c.624 0 .936-.259.936-.772 0-2.058-1.584-5.389-4.753-9.994l5.81-6.378c1.083 1.625 2.255 4.638 3.514 9.039 1.26 4.401 1.89 7.563 1.89 9.486v3.088c0 2.167-1.327 3.25-3.981 3.25h-25.354z"/><path d="M297.6 157.904c-1.732 0-2.6-.744-2.6-2.234v-3.169c0-1.544.867-2.315 2.6-2.315h11.295c1.001 0 1.503-.447 1.503-1.342 0-6.663-1.49-18.173-4.469-34.531l5.322-5.932c.92 4.17 1.963 11.659 3.128 22.465 1.056 10.186 1.584 16.956 1.584 20.314v4.265c0 1.653-.88 2.479-2.641 2.479H297.6zM330.264 157.823l-5.241 3.088v-3.738c0-4.036-.447-10.062-1.341-18.079-1.002-9.181-2.221-17.415-3.656-24.701l5.403-6.012c3.222 18.931 4.835 35.413 4.835 49.442M375.196 118.05l-5.769 5.768-5.729-5.768 5.729-5.729 5.769 5.729zm-5.849 32.379c0-.46-.583-2.349-1.747-5.667-1.165-3.318-1.909-4.977-2.234-4.977-.65 0-2.112 1.313-4.388 3.94-2.356 2.736-3.534 4.713-3.534 5.931 0 1.273 1.854 1.909 5.565 1.909 4.224 0 6.338-.377 6.338-1.136m-5.973-32.379l-5.728 5.768-5.729-5.768 5.729-5.729 5.728 5.729zm11.213 38.026c0 .731-1.043 1.354-3.128 1.868-2.438.65-5.811.976-10.116.976-3.818 0-6.474-.557-7.963-1.666-1.273-.947-1.909-2.561-1.909-4.834 0-4.496 4.266-9.872 12.798-16.129l-.895-2.438 5.81-5.242c1.083 2.493 2.289 6.568 3.616 12.229 1.191 5.146 1.787 8.343 1.787 9.588v5.648zM392.504 157.904c0 1.271-.183 2.708-.548 4.307a70.253 70.253 0 0 1-1.483 5.362c-.678 2.167-1.416 4.09-2.214 5.769a74.846 74.846 0 0 1-2.418 4.673c-.515.704-1.056 1.259-1.625 1.665-.568.406-1.327.664-2.275.772a36.064 36.064 0 0 1-3.493.162c-2.248 0-3.372-.147-3.372-.447 0-.217.229-.515.69-.894 4.36-4.224 8.017-9.357 10.97-15.397 1.57-3.223 2.356-5.457 2.356-6.703-.218-.867-.569-1.849-1.057-2.945s-1.057-2.2-1.706-3.311a44.282 44.282 0 0 0-2.052-3.189 30.76 30.76 0 0 0-2.011-2.58l4.753-7.109a66.284 66.284 0 0 1 2.519 4.143 23.654 23.654 0 0 1 1.706 3.82c.434 1.273.752 2.606.955 4.001.203 1.396.305 2.96.305 4.692v3.209zM406.398 157.823l-5.241 3.088v-3.738c0-4.036-.447-10.062-1.341-18.079-1.002-9.181-2.221-17.415-3.656-24.701l5.403-6.012c3.223 18.931 4.835 35.413 4.835 49.442M423.988 126.662l-5.728 5.728-5.729-5.728 5.729-5.769 5.728 5.769zm2.073 31.242c0 1.271-.183 2.708-.548 4.307a70.253 70.253 0 0 1-1.483 5.362c-.678 2.167-1.416 4.09-2.214 5.769a74.846 74.846 0 0 1-2.418 4.673c-.515.704-1.056 1.259-1.625 1.665-.568.406-1.327.664-2.275.772a36.064 36.064 0 0 1-3.493.162c-2.248 0-3.372-.147-3.372-.447 0-.217.229-.515.69-.894 4.36-4.224 8.017-9.357 10.969-15.397 1.571-3.223 2.357-5.457 2.357-6.703-.218-.867-.569-1.849-1.057-2.945s-1.057-2.2-1.706-3.311a43.95 43.95 0 0 0-2.053-3.189 30.56 30.56 0 0 0-2.01-2.58l4.753-7.109a66.284 66.284 0 0 1 2.519 4.143 23.654 23.654 0 0 1 1.706 3.82c.434 1.273.752 2.606.955 4.001.202 1.396.305 2.96.305 4.692v3.209zM447.472 150.673c-.759-2.383-1.632-4.227-2.62-5.526-.99-1.299-2.066-1.95-3.23-1.95-.596 0-1.164.184-1.706.55a6.009 6.009 0 0 0-1.422 1.341 6.498 6.498 0 0 0-.955 1.727c-.23.623-.346 1.192-.346 1.706 0 .595.128 1.07.387 1.421.257.354.609.617 1.057.792.446.178.968.292 1.563.347s1.245.081 1.95.081c1.164 0 2.207-.04 3.127-.122.921-.083 1.653-.205 2.195-.367m5.159 5.038c0 2.354-.271 4.631-.812 6.825a32.839 32.839 0 0 1-2.274 6.337c-1.03 2.112-2.106 3.981-3.23 5.606s-2.336 3.088-3.636 4.388a7.012 7.012 0 0 1-2.499 1.605c-.961.365-2.16.548-3.595.548-.163 0-.598-.014-1.301-.041-.704-.026-1.456-.081-2.255-.162s-1.517-.183-2.152-.305c-.637-.122-.955-.277-.955-.467 0-.217.271-.461.812-.731 2.085-1.085 4.205-2.525 6.358-4.328 2.153-1.8 4.367-4.096 6.643-6.886 1.407-1.732 2.524-3.392 3.352-4.976.825-1.585 1.239-3.015 1.239-4.286v-.936c-.786.19-1.707.331-2.763.428-1.057.095-2.384.142-3.981.142-1.165 0-2.249-.074-3.25-.223-1.003-.149-1.876-.435-2.621-.854-.745-.421-1.327-1.029-1.747-1.829-.42-.798-.629-1.848-.629-3.147s.188-2.736.567-4.308c.379-1.569 1.042-3.25 1.991-5.037 1.138-2.139 2.403-3.805 3.799-4.997 1.395-1.191 2.714-1.787 3.96-1.787 1.111 0 2.107.332 2.987.995.88.664 1.651 1.529 2.315 2.601.664 1.07 1.232 2.295 1.707 3.677.474 1.38.853 2.796 1.137 4.245.285 1.449.494 2.857.63 4.226.135 1.366.203 2.594.203 3.677M196.095 252.905l-5.769 5.769-5.728-5.769 5.728-5.729 5.769 5.729zm-11.903 0l-5.728 5.769-5.729-5.769 5.729-5.729 5.728 5.729zm12.919-18.688h-1.097c-.135-2.031-.786-4.632-1.95-7.8-1.706-4.604-3.711-6.907-6.013-6.907-1.733 0-3.765.772-6.093 2.316-2.33 1.543-3.494 2.844-3.494 3.899 0 .65.635 1.341 1.909 2.072l4.428 2.599c2.545 1.491 3.819 2.954 3.819 4.389 0 1.002-.501 2.005-1.503 3.007-1.599 1.598-4.443 3.398-8.531 5.404-5.634 2.788-10.889 4.184-15.764 4.184-7.882 0-11.822-3.914-11.822-11.741 0-3.061 1.069-6.608 3.21-10.645 1.895-3.548 3.128-5.321 3.696-5.321.217 0 .339.121.366.365-.081-.026-.637 1.368-1.666 4.185-1.11 3.033-1.666 5.473-1.666 7.312 0 5.661 3.264 8.49 9.791 8.49 4.794 0 9.006-.567 12.636-1.704 2.897-.922 4.347-1.681 4.347-2.276 0-.055-1.538-.974-4.612-2.763-3.074-1.787-4.611-3.534-4.611-5.24 0-2.681 2.031-5.904 6.095-9.67 4.17-3.844 7.88-5.769 11.13-5.769 2.465 0 4.348 2.072 5.648 6.217 1.164 3.655 1.747 8.396 1.747 14.219v1.178z"/><path d="M197.68 234.217c-1.732 0-2.6-.744-2.6-2.234v-3.169c0-1.544.868-2.315 2.6-2.315h18.607v7.068c0 .434-.23.65-.69.65H197.68z"/><path d="M216.043 234.217c-1.732 0-2.6-.744-2.6-2.234v-3.169c0-1.544.868-2.315 2.6-2.315h25.555c.432 0 .649-.203.649-.609 0-.217-.852-1.273-2.559-3.169-1.923-2.14-3.846-4.049-5.769-5.729-4.063-3.548-7.272-5.932-9.628-7.15-.082.786-.34 1.179-.772 1.179-.353 0-1.165-.786-2.438-2.356-1.354-1.68-2.031-3.033-2.031-4.063 0-2.383.744-4.211 2.234-5.484 2.655-2.274 6.446-5.104 11.375-8.49 5.661-3.9 10.821-7.123 15.48-9.67l-1.666 7.76c-2.763 1.625-6.731 4.158-11.904 7.598-5.742 3.846-8.613 5.972-8.613 6.378 0 .081 1.179.922 3.535 2.519 3.168 2.113 6.229 4.768 9.181 7.963 2.058 2.222 4.165 4.903 6.317 8.045 2.154 3.142 3.231 5.118 3.231 5.93v4.389c0 1.788-.854 2.682-2.56 2.682h-29.617z"/><path d="M276.25 246.933l-5.768 5.77-5.729-5.77 5.729-5.729 5.768 5.729zm-11.902 0l-5.728 5.77-5.729-5.77 5.729-5.729 5.728 5.729zm-16.373-12.716c-1.732 0-2.6-.744-2.6-2.234v-3.169c0-1.544.868-2.315 2.6-2.315h21.938c.624 0 .935-.258.935-.772 0-2.058-1.584-5.389-4.753-9.994l5.81-6.378c1.083 1.625 2.255 4.639 3.513 9.039 1.26 4.401 1.89 7.563 1.89 9.486v3.088c0 2.167-1.327 3.25-3.981 3.25h-25.352z"/><path d="M301.521 221.176c-.218-1.869-.576-3.582-1.077-5.14-.501-1.557-1.076-2.904-1.727-4.042s-1.327-2.024-2.031-2.661c-.705-.636-1.382-.955-2.031-.955-.597 0-1.179.137-1.747.406a5.927 5.927 0 0 0-1.523 1.037c-.447.42-.812.887-1.097 1.401-.285.516-.427 1.016-.427 1.503 0 .623.257 1.226.771 1.808.515.583 1.172 1.138 1.971 1.666s1.666 1.029 2.6 1.503c.935.475 1.829.921 2.682 1.341.854.42 1.598.82 2.234 1.198.637.38 1.05.731 1.239 1.057l.163-.122zm-3.778-29.576l-5.729 5.729-5.77-5.729 5.77-5.769 5.729 5.769zm-20.68 42.617c-1.732 0-2.6-.744-2.6-2.234v-3.169c0-1.544.868-2.315 2.6-2.315h21.735l.122-.244c-.244-.351-.745-.683-1.504-.995a45.358 45.358 0 0 0-2.64-.976 70.883 70.883 0 0 1-3.169-1.157 16.884 16.884 0 0 1-3.047-1.544c-.922-.595-1.68-1.307-2.275-2.133s-.894-1.808-.894-2.945c0-.65.074-1.382.224-2.194a15.98 15.98 0 0 1 .69-2.519c.311-.866.704-1.753 1.178-2.661a19.65 19.65 0 0 1 1.646-2.62c2.546-3.359 4.875-5.038 6.988-5.038 1.651 0 3.094.792 4.326 2.377 1.232 1.584 2.322 4.042 3.271 7.374.379 1.299.684 2.62.914 3.961.229 1.341.413 2.675.549 4.001.135 1.328.223 2.628.264 3.9.041 1.273.061 2.479.061 3.616v5.12c0 1.597-1.029 2.396-3.087 2.396h-25.352zM318.991 234.136l-5.241 3.088v-3.738c0-4.035-.447-10.062-1.341-18.078-1.002-9.182-2.221-17.415-3.656-24.701l5.403-6.013c3.223 18.931 4.835 35.412 4.835 49.442M337.841 234.217c0 1.272-.183 2.708-.548 4.307a70.127 70.127 0 0 1-1.483 5.362c-.678 2.167-1.416 4.09-2.214 5.77a75.09 75.09 0 0 1-2.418 4.672c-.515.704-1.056 1.259-1.625 1.665-.568.406-1.327.664-2.275.772a36.117 36.117 0 0 1-3.493.162c-2.248 0-3.372-.147-3.372-.447 0-.217.229-.515.69-.894 4.36-4.224 8.017-9.357 10.97-15.397 1.57-3.223 2.356-5.457 2.356-6.702-.218-.867-.569-1.85-1.057-2.946s-1.057-2.2-1.706-3.311a44.504 44.504 0 0 0-2.052-3.189 30.76 30.76 0 0 0-2.011-2.58l4.753-7.109a65.998 65.998 0 0 1 2.519 4.144 23.606 23.606 0 0 1 1.706 3.819c.434 1.273.752 2.606.955 4.001.203 1.396.305 2.96.305 4.692v3.209z"/><path d="M362.461 241.773l-5.729 5.769-5.729-5.769 5.729-5.729 5.729 5.729zm.121-20.678c-.515-.136-1.083-.42-1.706-.854a27.293 27.293 0 0 1-1.95-1.503 360.071 360.071 0 0 1-2.112-1.788 35.567 35.567 0 0 0-2.194-1.727 13.304 13.304 0 0 0-2.193-1.3c-.731-.338-1.422-.508-2.073-.508-1.922 0-3.452.921-4.59 2.763-.623.948-1.016 1.422-1.178 1.422-.217 0-.325-.135-.325-.406 0-.623.143-1.408.426-2.356.285-.947.779-2.072 1.483-3.372.921-1.706 1.936-2.992 3.047-3.859 1.11-.865 2.262-1.3 3.454-1.3.92 0 1.854.223 2.803.67s1.909 1.036 2.885 1.768c.975.731 1.97 1.563 2.985 2.498 1.017.935 2.065 1.869 3.149 2.804a64.2 64.2 0 0 0 3.352 2.701 23.049 23.049 0 0 0 3.595 2.234c3.251 1.625 5.309 2.438 6.176 2.438v7.23a37.086 37.086 0 0 0-3.433-.487 43.309 43.309 0 0 0-4.328-.203c-2.111 0-4.271.048-6.479.143a84.983 84.983 0 0 0-6.643.548c-2.222.271-4.415.645-6.582 1.118s-4.279 1.076-6.339 1.808c-2.03.731-3.526 1.354-4.488 1.869-.961.515-1.509.771-1.645.771-1.002 0-1.504-.474-1.504-1.422v-5.565a38.251 38.251 0 0 1 6.562-2.926 55.017 55.017 0 0 1 6.947-1.868c2.315-.461 4.577-.786 6.784-.976s4.246-.284 6.114-.284v-.081z"/><path d="M377.37 234.217c-1.732 0-2.6-.744-2.6-2.234v-3.169c0-1.544.867-2.315 2.6-2.315h11.295c1.001 0 1.503-.447 1.503-1.341 0-6.663-1.49-18.174-4.469-34.532l5.322-5.932c.92 4.171 1.963 11.659 3.128 22.466 1.056 10.185 1.584 16.956 1.584 20.313v4.266c0 1.652-.88 2.479-2.641 2.479H377.37zM410.035 234.136l-5.241 3.088v-3.738c0-4.035-.447-10.062-1.341-18.078-1.002-9.182-2.221-17.415-3.656-24.701l5.403-6.013c3.223 18.931 4.835 35.412 4.835 49.442"/></g></svg>