<?xml version="1.0" encoding="utf-8"?>
<!-- Generator: Adobe Illustrator 16.0.4, SVG Export Plug-In . SVG Version: 6.00 Build 0)  -->
<!DOCTYPE svg PUBLIC "-//W3C//DTD SVG 1.1//EN" "http://www.w3.org/Graphics/SVG/1.1/DTD/svg11.dtd">
<svg version="1.1" id="Layer_1" xmlns="http://www.w3.org/2000/svg" xmlns:xlink="http://www.w3.org/1999/xlink" x="0px" y="0px"
	 width="589.8px" height="311.367px" viewBox="0 0 589.8 311.367" enable-background="new 0 0 589.8 311.367" xml:space="preserve">
<g>
	<path fill="#EBF400" d="M589.326,88.816c-23.93-35.819-81.684-36.231-84.13-36.231c-40.147,0-70.713-12.553-103.074-25.841
		c-31.871-13.09-64.831-26.625-107.22-26.625c-42.387,0-75.346,13.536-107.221,26.625c-32.36,13.288-62.926,25.841-103.073,25.841
		c-0.61,0-15.154,0.052-32.813,4.456c-23.623,5.894-41.368,16.88-51.318,31.775L0,89.529v132.312l0.477,0.708
		c23.93,35.821,81.685,36.233,84.132,36.233c40.147,0,70.713,12.552,103.073,25.84c31.875,13.09,64.833,26.626,107.22,26.626
		c42.391,0,75.349-13.536,107.222-26.626c32.361-13.288,62.927-25.84,103.074-25.84c0.607,0,15.152-0.052,32.81-4.455
		c23.625-5.894,41.37-16.883,51.318-31.778l0.475-0.708V89.529L589.326,88.816z M584.149,220.116
		c-22.562,32.595-78.389,33.018-78.953,33.018c-41.262,0-73.778,13.354-105.223,26.267c-31.364,12.879-63.799,26.199-105.072,26.199
		c-41.271,0-73.706-13.32-105.07-26.199c-31.446-12.915-63.961-26.267-105.224-26.267c-0.564,0-56.367-0.38-78.955-33.018V91.252
		c22.562-32.598,78.391-33.02,78.955-33.02c41.263,0,73.776-13.353,105.224-26.265c31.364-12.882,63.799-26.2,105.07-26.2
		c41.273,0,73.708,13.318,105.072,26.2c31.444,12.912,63.961,26.265,105.223,26.265c0.564,0,56.366,0.377,78.953,33.02V220.116z"/>
	<path fill="#EBF400" d="M138.707,126.448c0,1.212-0.319,2.158-0.954,2.838c-0.636,0.68-1.562,1.02-2.774,1.02
		c-1.244,0-2.634-0.186-4.172-0.554c-1.541-0.37-3.027-0.888-4.461-1.552c-1.437-0.666-2.738-1.479-3.907-2.439
		s-1.991-2.018-2.462-3.173c-0.534,0.623-1.259,1.227-2.176,1.819c-0.917,0.592-1.82,1.213-2.707,1.862
		c-0.889,0.652-1.66,1.347-2.309,2.085c-0.651,0.738-0.976,1.567-0.976,2.484c0,1.419,0.294,3.03,0.886,4.834
		c0.592,1.803,1.236,3.776,1.933,5.92c0.694,2.143,1.339,4.442,1.931,6.896c0.591,2.455,0.887,5.057,0.887,7.806
		c0,0.652-0.066,1.177-0.199,1.575c-0.134,0.401-0.349,0.6-0.644,0.6c-0.297,0-0.526-0.171-0.688-0.51
		c-0.163-0.341-0.289-0.704-0.376-1.088c-0.681-2.602-1.54-5.182-2.575-7.739c-1.037-2.559-2.036-5.034-2.997-7.43
		c-0.961-2.395-1.782-4.679-2.462-6.852c-0.682-2.173-1.021-4.177-1.021-6.01c0-1.714,0.422-3.371,1.265-4.967
		c0.844-1.597,2.42-3.15,4.727-4.658c2.072-1.331,3.796-2.55,5.172-3.659c1.375-1.11,2.477-2.357,3.306-3.749
		c0.978-1.655,1.887-3.06,2.73-4.212c0.844-1.154,1.627-2.084,2.352-2.795c0.726-0.709,1.421-1.227,2.087-1.551
		c0.666-0.325,1.337-0.49,2.019-0.49c1.125,0,2.25,0.608,3.373,1.819c1.125,1.213,2.147,3.166,3.064,5.855
		c0.414,1.241,0.761,2.478,1.043,3.704c0.28,1.227,0.503,2.388,0.665,3.482c0.163,1.094,0.273,2.069,0.334,2.927
		c0.059,0.856,0.088,1.552,0.088,2.083V126.448z M135.023,121.88c0-0.415-0.089-0.983-0.267-1.708
		c-0.177-0.725-0.414-1.494-0.71-2.306c-0.295-0.813-0.651-1.643-1.065-2.484c-0.414-0.844-0.865-1.603-1.354-2.285
		c-0.488-0.679-0.999-1.233-1.532-1.663c-0.532-0.427-1.08-0.643-1.643-0.643c-0.472,0-1.006,0.229-1.598,0.688
		c-0.592,0.458-1.146,0.992-1.663,1.597c-0.519,0.605-0.954,1.22-1.31,1.84c-0.355,0.621-0.533,1.095-0.533,1.419
		c0,0.444,0.216,0.896,0.643,1.353c0.43,0.459,0.978,0.917,1.643,1.375c0.667,0.458,1.405,0.893,2.219,1.308
		c0.815,0.415,1.622,0.776,2.42,1.085c0.799,0.311,1.545,0.564,2.241,0.756c0.697,0.19,1.251,0.287,1.666,0.287
		c0.355,0,0.584-0.045,0.687-0.133C134.97,122.279,135.023,122.117,135.023,121.88"/>
	<path fill="#EBF400" d="M138.44,128.843c-1.893,0-2.841-0.812-2.841-2.439v-3.46c0-1.686,0.948-2.529,2.841-2.529h20.329v7.718
		c0,0.474-0.25,0.71-0.753,0.71H138.44z"/>
	<path fill="#EBF400" d="M158.503,128.843c-1.894,0-2.84-0.812-2.84-2.439v-3.46c0-1.686,0.947-2.529,2.84-2.529h23.968
		c0.681,0,1.022-0.28,1.022-0.842c0-2.247-1.73-5.884-5.193-10.911l6.346-6.963c1.183,1.774,2.463,5.064,3.84,9.868
		c1.376,4.804,2.065,8.256,2.065,10.355v3.372c0,2.366-1.452,3.548-4.351,3.548H158.503z M176.392,142.725l-6.26,6.298l-6.257-6.298
		l6.257-6.255L176.392,142.725z M189.397,142.725l-6.304,6.298l-6.257-6.298l6.257-6.255L189.397,142.725z"/>
	<path fill="#EBF400" d="M190.284,128.843c-1.894,0-2.841-0.812-2.841-2.439v-3.46c0-1.686,0.947-2.527,2.841-2.527
		c1.153,0,2.485-0.133,3.996-0.4c1.509-0.266,3.039-0.717,4.593-1.353c1.553-0.635,3.046-1.507,4.483-2.616
		c1.435-1.109,2.641-2.508,3.617-4.192c0.977-1.655,1.879-3.06,2.708-4.213c0.827-1.154,1.604-2.091,2.329-2.816
		c0.727-0.725,1.421-1.25,2.088-1.574c0.666-0.325,1.337-0.49,2.018-0.49c1.126,0,2.25,0.608,3.374,1.819
		c1.125,1.213,2.146,3.166,3.064,5.855c0.414,1.241,0.76,2.478,1.042,3.704c0.282,1.227,0.504,2.388,0.665,3.482
		c0.164,1.094,0.273,2.069,0.334,2.927c0.06,0.856,0.089,1.552,0.089,2.083v3.815c0,1.212-0.319,2.158-0.955,2.838
		c-0.637,0.68-1.562,1.02-2.774,1.02c-1.273,0-2.694-0.193-4.261-0.578c-1.568-0.384-3.086-0.922-4.549-1.618
		c-1.465-0.696-2.776-1.537-3.929-2.529c-1.154-0.991-1.952-2.09-2.397-3.304c-1.153,1.124-2.434,2.1-3.839,2.928
		c-1.405,0.827-2.818,1.507-4.239,2.04c-1.421,0.532-2.781,0.932-4.083,1.198C192.354,128.709,191.231,128.843,190.284,128.843
		 M221,121.88c0-0.415-0.089-0.983-0.267-1.708c-0.177-0.725-0.415-1.494-0.711-2.306c-0.294-0.813-0.65-1.643-1.063-2.484
		c-0.415-0.844-0.866-1.603-1.354-2.285c-0.489-0.679-0.999-1.233-1.532-1.663c-0.532-0.427-1.08-0.643-1.643-0.643
		c-0.472,0-1.007,0.229-1.598,0.688c-0.592,0.458-1.146,0.992-1.664,1.597c-0.52,0.605-0.955,1.22-1.309,1.84
		c-0.355,0.621-0.535,1.095-0.535,1.419c0,0.444,0.216,0.896,0.645,1.353c0.429,0.459,0.978,0.917,1.642,1.375
		c0.667,0.458,1.405,0.893,2.219,1.308c0.814,0.415,1.621,0.776,2.418,1.085c0.801,0.311,1.546,0.564,2.243,0.756
		c0.695,0.19,1.25,0.287,1.665,0.287c0.355,0,0.584-0.045,0.687-0.133C220.947,122.279,221,122.117,221,121.88"/>
	<path fill="#EBF400" d="M224.417,128.842c-1.894,0-2.841-0.812-2.841-2.438v-3.46c0-1.686,0.947-2.527,2.841-2.527
		c1.095,0,2.309-0.156,3.641-0.466c1.331-0.31,2.698-0.746,4.106-1.308c1.405-0.562,2.81-1.242,4.216-2.042
		c1.405-0.797,2.73-1.686,3.973-2.66c1.271-1.035,2.248-1.855,2.928-2.461s1.126-0.91,1.333-0.91c0.118,0,0.185,0.052,0.2,0.156
		c0.014,0.103,0.021,0.229,0.021,0.375c0,0.178-0.043,0.496-0.134,0.954c-0.087,0.458-0.132,1.059-0.132,1.797
		c0,2.129,0.724,3.741,2.174,4.834c2.487-3.637,5.415-7.096,8.789-10.379c1.864-1.804,3.499-3.281,4.904-4.436
		c1.407-1.151,2.582-2.01,3.53-2.571c1.657-0.946,3.522-1.419,5.592-1.419c3.906,0,6.865,2.69,8.877,8.071
		c1.422,3.874,2.13,8.118,2.13,12.729v6.077c0,2.305-6.185,3.459-18.552,3.459c-1.481,0-3.072-0.045-4.772-0.133
		c-1.701-0.088-3.374-0.253-5.016-0.488c-1.642-0.237-3.174-0.562-4.594-0.976c-1.42-0.415-2.56-0.932-3.417-1.553
		c-0.653,0.741-1.369,1.605-2.155,2.595c-0.784,0.991-1.783,2.151-2.994,3.482c0-0.769,0.184-1.767,0.554-2.994
		c0.369-1.228,1.205-2.757,2.507-4.592c-0.208-0.205-0.503-0.575-0.889-1.107c-0.383-0.533-0.665-1.093-0.842-1.685
		c-1.481,1.124-2.959,2.068-4.439,2.837c-1.479,0.771-2.922,1.399-4.328,1.886c-1.406,0.487-2.722,0.835-3.95,1.042
		C226.452,128.739,225.365,128.842,224.417,128.842 M276.572,119.484c0-2.188-0.83-4.597-2.485-7.229
		c-1.865-2.928-3.922-4.392-6.171-4.392c-4.438,0-10.445,4.141-18.02,12.419c3.313,0.977,8.345,1.464,15.09,1.464
		C272.71,121.746,276.572,120.993,276.572,119.484"/>
	<path fill="#EBF400" d="M280.3,128.843c-1.894,0-2.84-0.812-2.84-2.439v-3.46c0-1.686,0.947-2.527,2.84-2.527h23.967
		c0.682,0,1.022-0.283,1.022-0.844c0-2.246-1.73-5.883-5.193-10.911l6.346-6.963c1.185,1.774,2.465,5.063,3.841,9.868
		c1.377,4.805,2.064,8.257,2.064,10.356v3.371c0,2.366-1.449,3.548-4.35,3.548H280.3z M298.189,89.945l-6.261,6.299l-6.258-6.299
		l6.258-6.254L298.189,89.945z M311.105,89.945l-6.306,6.299l-6.257-6.299l6.257-6.254L311.105,89.945z"/>
	<path fill="#EBF400" d="M312.081,128.843c-1.894,0-2.841-0.812-2.841-2.439v-3.46c0-1.686,0.947-2.529,2.841-2.529h12.339
		c1.096,0,1.645-0.487,1.645-1.464c0-7.274-1.629-19.839-4.883-37.698l5.812-6.476c1.005,4.552,2.146,12.729,3.418,24.525
		c1.155,11.12,1.73,18.511,1.73,22.178v4.656c0,1.805-0.962,2.707-2.885,2.707H312.081z"/>
	<path fill="#EBF400" d="M347.767,128.754l-5.726,3.371v-4.081c0-4.406-0.488-10.984-1.466-19.737
		c-1.095-10.022-2.426-19.012-3.994-26.966l5.904-6.563C346.006,95.445,347.767,113.438,347.767,128.754"/>
	<path fill="#EBF400" d="M396.194,126.846c0,0.799-1.14,1.479-3.418,2.042c-2.664,0.709-6.347,1.064-11.054,1.064
		c-4.171,0-7.072-0.608-8.698-1.819c-1.391-1.034-2.087-2.794-2.087-5.277c0-4.908,4.66-10.777,13.983-17.609l-0.977-2.66
		l6.346-5.722c1.183,2.721,2.501,7.17,3.952,13.35c1.302,5.618,1.952,9.108,1.952,10.467V126.846z M383.944,85.333l-6.259,6.297
		l-6.259-6.297l6.259-6.255L383.944,85.333z M390.466,120.682c0-0.502-0.636-2.565-1.908-6.187c-1.271-3.622-2.084-5.434-2.44-5.434
		c-0.71,0-2.308,1.435-4.793,4.303c-2.576,2.987-3.862,5.145-3.862,6.475c0,1.391,2.027,2.085,6.079,2.085
		C388.16,121.924,390.466,121.51,390.466,120.682 M396.86,85.333l-6.304,6.297l-6.259-6.297l6.259-6.255L396.86,85.333z"/>
	<path fill="#EBF400" d="M415.768,128.843c0,1.388-0.2,2.957-0.598,4.702c-0.401,1.743-0.94,3.694-1.622,5.854
		c-0.74,2.366-1.547,4.465-2.417,6.298c-0.876,1.833-1.756,3.533-2.642,5.1c-0.563,0.769-1.155,1.375-1.775,1.818
		c-0.621,0.444-1.452,0.725-2.486,0.844c-0.621,0.059-1.242,0.104-1.865,0.133c-0.62,0.028-1.271,0.044-1.952,0.044
		c-2.456,0-3.686-0.162-3.686-0.487c0-0.238,0.252-0.563,0.755-0.977c4.766-4.612,8.758-10.216,11.984-16.81
		c1.718-3.518,2.576-5.958,2.576-7.318c-0.237-0.947-0.622-2.018-1.154-3.215s-1.155-2.402-1.864-3.614
		c-0.71-1.213-1.459-2.373-2.241-3.482c-0.784-1.109-1.519-2.047-2.196-2.817l5.191-7.761c1.065,1.626,1.983,3.134,2.753,4.522
		c0.769,1.391,1.391,2.78,1.863,4.171c0.474,1.39,0.82,2.845,1.043,4.368c0.223,1.523,0.333,3.231,0.333,5.123V128.843z"/>
	<path fill="#EBF400" d="M430.949,128.754l-5.726,3.371v-4.081c0-4.406-0.488-10.984-1.466-19.737
		c-1.095-10.022-2.427-19.012-3.994-26.966l5.904-6.563C429.188,95.445,430.949,113.438,430.949,128.754"/>
	<path fill="#EBF400" d="M452.43,128.842c0,1.39-0.198,2.958-0.6,4.703c-0.398,1.743-0.938,3.695-1.619,5.854
		c-0.741,2.366-1.547,4.465-2.418,6.299c-0.875,1.832-1.754,3.532-2.642,5.1c-0.563,0.769-1.154,1.374-1.775,1.818
		c-0.621,0.443-1.451,0.725-2.485,0.843c-0.624,0.059-1.242,0.104-1.866,0.133c-0.62,0.028-1.271,0.044-1.952,0.044
		c-2.456,0-3.683-0.162-3.683-0.487c0-0.238,0.249-0.564,0.753-0.978c4.763-4.611,8.76-10.215,11.986-16.809
		c1.715-3.518,2.573-5.958,2.573-7.318c-0.238-0.946-0.621-2.018-1.154-3.216c-0.531-1.196-1.154-2.402-1.866-3.613
		c-0.707-1.212-1.457-2.373-2.239-3.483c-0.783-1.108-1.518-2.047-2.196-2.817l5.191-7.76c1.065,1.625,1.983,3.134,2.751,4.523
		c0.771,1.39,1.394,2.778,1.865,4.17c0.474,1.389,0.821,2.844,1.043,4.368c0.223,1.522,0.333,3.231,0.333,5.122V128.842z
		 M450.167,94.735l-6.259,6.254l-6.257-6.254l6.257-6.298L450.167,94.735z"/>
	<path fill="#EBF400" d="M481.46,126.448c0,2.572-0.295,5.056-0.889,7.45c-0.59,2.396-1.419,4.702-2.483,6.919
		c-1.127,2.306-2.303,4.347-3.53,6.121c-1.229,1.774-2.552,3.371-3.973,4.789c-0.77,0.769-1.679,1.354-2.729,1.754
		c-1.05,0.399-2.359,0.598-3.928,0.598c-0.177,0-0.651-0.015-1.421-0.044c-0.771-0.031-1.592-0.089-2.463-0.178
		c-0.873-0.09-1.658-0.199-2.352-0.333c-0.696-0.133-1.044-0.304-1.044-0.51c0-0.237,0.294-0.503,0.888-0.798
		c2.277-1.184,4.594-2.757,6.945-4.725c2.353-1.965,4.772-4.472,7.258-7.516c1.538-1.894,2.759-3.704,3.662-5.433
		c0.9-1.73,1.354-3.291,1.354-4.679v-1.021c-0.859,0.208-1.866,0.361-3.019,0.467c-1.154,0.104-2.604,0.155-4.352,0.155
		c-1.271,0-2.456-0.081-3.551-0.243c-1.094-0.163-2.048-0.473-2.861-0.932c-0.815-0.458-1.451-1.125-1.909-1.996
		c-0.46-0.873-0.688-2.019-0.688-3.438s0.206-2.986,0.621-4.703c0.413-1.713,1.139-3.548,2.174-5.5
		c1.244-2.334,2.627-4.153,4.151-5.456c1.523-1.299,2.966-1.95,4.326-1.95c1.215,0,2.303,0.362,3.264,1.085
		c0.962,0.725,1.803,1.671,2.528,2.84s1.349,2.505,1.865,4.014c0.518,1.506,0.933,3.053,1.244,4.634
		c0.309,1.582,0.537,3.12,0.688,4.612C481.387,123.927,481.46,125.266,481.46,126.448 M475.824,120.948
		c-0.829-2.602-1.783-4.614-2.863-6.032c-1.08-1.419-2.258-2.13-3.529-2.13c-0.65,0-1.272,0.2-1.865,0.6
		c-0.591,0.397-1.107,0.887-1.553,1.464c-0.442,0.576-0.79,1.205-1.044,1.885c-0.249,0.68-0.376,1.302-0.376,1.863
		c0,0.649,0.142,1.168,0.421,1.552c0.281,0.385,0.668,0.672,1.157,0.864c0.485,0.192,1.055,0.319,1.706,0.377
		c0.651,0.06,1.361,0.087,2.133,0.087c1.271,0,2.411-0.042,3.415-0.132C474.433,121.258,475.231,121.125,475.824,120.948"/>
	<path fill="#EBF400" d="M202.292,212.154h-1.198c-0.149-2.218-0.859-5.056-2.13-8.515c-1.864-5.027-4.054-7.542-6.569-7.542
		c-1.894,0-4.115,0.845-6.659,2.529c-2.546,1.685-3.818,3.104-3.818,4.256c0,0.712,0.696,1.465,2.086,2.265l4.84,2.838
		c2.78,1.625,4.171,3.222,4.171,4.789c0,1.094-0.547,2.189-1.642,3.283c-1.746,1.742-4.854,3.711-9.321,5.898
		c-6.155,3.045-11.896,4.569-17.221,4.569c-8.612,0-12.918-4.273-12.918-12.819c0-3.341,1.169-7.213,3.507-11.62
		c2.072-3.873,3.417-5.809,4.039-5.809c0.236,0,0.37,0.132,0.4,0.398c-0.088-0.029-0.695,1.493-1.82,4.567
		c-1.214,3.312-1.82,5.975-1.82,7.983c0,6.182,3.565,9.271,10.697,9.271c5.238,0,9.84-0.62,13.804-1.863
		c3.167-1.004,4.75-1.834,4.75-2.484c0-0.06-1.679-1.063-5.037-3.015c-3.359-1.951-5.038-3.859-5.038-5.721
		c0-2.928,2.219-6.448,6.657-10.557c4.556-4.198,8.61-6.299,12.161-6.299c2.694,0,4.751,2.263,6.171,6.787
		c1.271,3.989,1.909,9.166,1.909,15.522V212.154z M188.177,232.558l-6.26,6.296l-6.257-6.296l6.257-6.256L188.177,232.558z
		 M201.183,232.558l-6.305,6.296l-6.256-6.296l6.256-6.256L201.183,232.558z"/>
	<path fill="#EBF400" d="M202.913,212.154c-1.893,0-2.841-0.812-2.841-2.439v-3.459c0-1.687,0.948-2.528,2.841-2.528h20.328v7.717
		c0,0.473-0.25,0.71-0.753,0.71H202.913z"/>
	<path fill="#EBF400" d="M222.976,212.154c-1.893,0-2.841-0.812-2.841-2.439v-3.459c0-1.687,0.948-2.528,2.841-2.528h27.919
		c0.472,0,0.709-0.222,0.709-0.665c0-0.237-0.931-1.391-2.796-3.459c-2.101-2.337-4.202-4.42-6.303-6.256
		c-4.439-3.872-7.946-6.474-10.519-7.804c-0.09,0.856-0.372,1.285-0.844,1.285c-0.386,0-1.273-0.857-2.663-2.573
		c-1.48-1.832-2.22-3.31-2.22-4.436c0-2.601,0.813-4.597,2.44-5.987c2.901-2.481,7.043-5.571,12.428-9.269
		c6.186-4.258,11.823-7.776,16.914-10.558l-1.82,8.473c-3.019,1.773-7.354,4.539-13.006,8.294c-6.273,4.198-9.41,6.519-9.41,6.964
		c0,0.088,1.288,1.004,3.861,2.749c3.461,2.307,6.806,5.204,10.032,8.692c2.248,2.427,4.55,5.353,6.901,8.783
		c2.354,3.431,3.531,5.589,3.531,6.476v4.789c0,1.951-0.934,2.928-2.798,2.928H222.976z"/>
	<path fill="#EBF400" d="M257.863,212.154c-1.894,0-2.84-0.812-2.84-2.439v-3.459c0-1.687,0.946-2.528,2.84-2.528h23.968
		c0.681,0,1.022-0.281,1.022-0.843c0-2.247-1.73-5.885-5.193-10.91l6.346-6.964c1.184,1.773,2.464,5.063,3.84,9.868
		c1.376,4.804,2.064,8.256,2.064,10.355v3.371c0,2.367-1.451,3.549-4.351,3.549H257.863z M275.751,226.037l-6.26,6.299l-6.258-6.299
		l6.258-6.256L275.751,226.037z M288.756,226.037l-6.304,6.299l-6.258-6.299l6.258-6.256L288.756,226.037z"/>
	<path fill="#EBF400" d="M289.644,212.154c-1.893,0-2.841-0.812-2.841-2.439v-3.459c0-1.687,0.949-2.528,2.841-2.528h23.746
		l0.133-0.267c-0.265-0.384-0.813-0.746-1.642-1.086c-0.828-0.341-1.79-0.694-2.885-1.065c-1.095-0.369-2.25-0.789-3.462-1.263
		c-1.214-0.474-2.323-1.036-3.328-1.687c-1.008-0.65-1.838-1.427-2.486-2.328c-0.651-0.902-0.978-1.973-0.978-3.216
		c0-0.71,0.081-1.51,0.245-2.395c0.162-0.889,0.415-1.804,0.754-2.75c0.339-0.945,0.77-1.915,1.287-2.904
		c0.518-0.991,1.116-1.944,1.796-2.861c2.782-3.666,5.327-5.499,7.638-5.499c1.804,0,3.378,0.863,4.727,2.595
		c1.347,1.729,2.537,4.411,3.572,8.049c0.414,1.42,0.746,2.861,0.999,4.324c0.251,1.465,0.452,2.922,0.599,4.369
		c0.147,1.45,0.243,2.868,0.288,4.258c0.045,1.391,0.066,2.706,0.066,3.947v5.589c0,1.744-1.124,2.616-3.371,2.616H289.644z
		 M312.238,165.628l-6.259,6.254l-6.304-6.254l6.304-6.298L312.238,165.628z M316.365,197.917c-0.236-2.041-0.629-3.91-1.176-5.612
		c-0.548-1.697-1.176-3.168-1.886-4.411c-0.711-1.241-1.452-2.209-2.22-2.904c-0.771-0.695-1.511-1.043-2.22-1.043
		c-0.652,0-1.288,0.149-1.909,0.441c-0.621,0.299-1.176,0.676-1.665,1.133c-0.488,0.458-0.887,0.97-1.197,1.53
		c-0.313,0.563-0.467,1.109-0.467,1.642c0,0.681,0.281,1.337,0.843,1.973c0.563,0.636,1.28,1.243,2.153,1.819
		c0.873,0.577,1.82,1.123,2.841,1.64c1.021,0.52,1.999,1.006,2.929,1.465c0.934,0.458,1.746,0.896,2.441,1.307
		c0.695,0.416,1.146,0.8,1.355,1.156L316.365,197.917z"/>
	<path fill="#EBF400" d="M335.453,212.066l-5.728,3.371v-4.081c0-4.407-0.489-10.985-1.464-19.738
		c-1.095-10.021-2.426-19.011-3.995-26.967l5.903-6.562C333.69,178.757,335.453,196.751,335.453,212.066"/>
	<path fill="#EBF400" d="M356.046,212.154c0,1.388-0.2,2.957-0.6,4.701c-0.398,1.744-0.938,3.695-1.619,5.855
		c-0.741,2.364-1.548,4.465-2.42,6.296c-0.873,1.834-1.755,3.533-2.642,5.101c-0.562,0.77-1.152,1.375-1.776,1.819
		c-0.62,0.443-1.448,0.725-2.485,0.844c-0.621,0.058-1.242,0.103-1.865,0.133c-0.619,0.027-1.271,0.044-1.952,0.044
		c-2.457,0-3.684-0.162-3.684-0.488c0-0.236,0.253-0.562,0.756-0.977c4.763-4.611,8.758-10.215,11.983-16.808
		c1.717-3.519,2.575-5.958,2.575-7.318c-0.238-0.946-0.622-2.02-1.153-3.218c-0.534-1.196-1.154-2.4-1.865-3.611
		c-0.71-1.214-1.457-2.374-2.243-3.484c-0.782-1.106-1.515-2.047-2.195-2.814l5.194-7.762c1.064,1.625,1.981,3.135,2.75,4.522
		c0.768,1.391,1.392,2.778,1.865,4.171c0.474,1.39,0.821,2.845,1.041,4.367c0.222,1.524,0.335,3.232,0.335,5.123V212.154z"/>
	<path fill="#EBF400" d="M383.077,197.827c-0.563-0.146-1.182-0.458-1.863-0.93c-0.68-0.473-1.392-1.021-2.131-1.642
		s-1.51-1.271-2.307-1.951c-0.801-0.68-1.599-1.309-2.399-1.887c-0.798-0.576-1.596-1.049-2.396-1.418
		c-0.8-0.369-1.553-0.555-2.264-0.555c-2.1,0-3.772,1.005-5.015,3.016c-0.681,1.036-1.11,1.554-1.287,1.554
		c-0.236,0-0.355-0.149-0.355-0.443c0-0.68,0.155-1.537,0.467-2.573c0.31-1.034,0.85-2.263,1.62-3.683
		c1.004-1.861,2.114-3.267,3.328-4.211c1.212-0.947,2.471-1.42,3.772-1.42c1.006,0,2.025,0.245,3.063,0.731
		c1.037,0.488,2.086,1.13,3.15,1.93c1.065,0.799,2.154,1.707,3.264,2.727s2.256,2.041,3.439,3.06
		c1.184,1.021,2.402,2.005,3.661,2.951c1.257,0.947,2.565,1.759,3.929,2.439c3.551,1.774,5.801,2.661,6.748,2.661v7.896
		c-1.037-0.209-2.288-0.386-3.751-0.533c-1.464-0.146-3.042-0.222-4.728-0.222c-2.309,0-4.669,0.052-7.079,0.156
		c-2.412,0.102-4.832,0.303-7.258,0.599c-2.427,0.294-4.825,0.701-7.191,1.22c-2.369,0.516-4.676,1.173-6.924,1.973
		c-2.22,0.799-3.854,1.478-4.904,2.04c-1.052,0.563-1.65,0.843-1.797,0.843c-1.095,0-1.644-0.517-1.644-1.553v-6.074
		c2.248-1.273,4.64-2.337,7.168-3.196c2.531-0.855,5.062-1.535,7.591-2.039c2.53-0.503,5.002-0.856,7.413-1.063
		c2.41-0.207,4.639-0.312,6.679-0.312V197.827z M382.945,220.403l-6.259,6.299l-6.259-6.299l6.259-6.254L382.945,220.403z"/>
	<path fill="#EBF400" d="M399.235,212.154c-1.894,0-2.843-0.812-2.843-2.439v-3.459c0-1.687,0.949-2.528,2.843-2.528h12.34
		c1.093,0,1.642-0.488,1.642-1.465c0-7.273-1.629-19.839-4.883-37.698l5.814-6.476c1.005,4.552,2.145,12.729,3.417,24.525
		c1.154,11.119,1.73,18.512,1.73,22.177v4.657c0,1.804-0.96,2.706-2.883,2.706H399.235z"/>
	<path fill="#EBF400" d="M434.922,212.066l-5.727,3.371v-4.081c0-4.407-0.488-10.985-1.466-19.738
		c-1.095-10.021-2.426-19.011-3.994-26.967l5.905-6.562C433.162,178.757,434.922,196.751,434.922,212.066"/>
</g>
</svg>
