<svg xmlns="http://www.w3.org/2000/svg" width="345.762" height="345.763"><path fill="#E9A522" d="M172.881 0l22.578 30.326 30.845-21.865 12.102 35.819 36.092-11.262.441 37.805 37.806.441-11.263 36.092 35.818 12.102-21.864 30.845 30.326 22.578-30.326 22.577 21.864 30.846-35.818 12.103 11.263 36.092-37.806.441-.441 37.806-36.092-11.264-12.102 35.819-30.845-21.865-22.578 30.327-22.579-30.327-30.844 21.865-12.102-35.819-36.092 11.264-.442-37.806-37.805-.441 11.263-36.092-35.819-12.103 21.865-30.846L0 172.881l30.326-22.578-21.865-30.845 35.819-12.102-11.263-36.092 37.805-.441.442-37.805 36.092 11.262 12.102-35.819 30.844 21.865z"/><path d="M85.513 203.765l1.721 6.787c.587 2.314.537 3.224-.357 3.45-1.21.307-1.797-1.785-3.023-6.625l-.187-.736c-.308-1.21-.573-2.038-1.18-2.444-.621-.46-1.949-.178-4.158.383l-2.999.76-1.631.414 6.896 27.199 4.787-1.214c1.211-.307 1.869-.138 2.069.652.267 1.051-.509 1.304-2.245 1.744l-10.68 2.708c-1.736.44-2.539.587-2.806-.465-.2-.789.298-1.251 1.509-1.558l4.787-1.215-6.896-27.199-1.684.427-3.473.88c-3.525.895-3.918 1.329-3.104 4.539l.213.842c1.147 4.524 1.602 6.537.392 6.844-.894.227-1.37-.549-1.957-2.863l-1.721-6.787c-.787-3.104-.235-3.355 3.657-4.343l16.783-4.255c3.894-.987 4.5-1.029 5.287 2.075zM98.74 207.803c-1.21.307-1.842.242-2.042-.546-.24-.948.587-1.438 2.218-1.852l7.629-1.934c.842-.214.988.142 1.241 1.142l.094.367 5.016 19.783 6.839-1.734c1.21-.307 1.895-.257 2.135.689.267 1.053-.68 1.293-2.469 1.746l-14.258 3.615c-1.735.44-2.539.587-2.806-.464-.2-.79.299-1.252 1.51-1.559l6.523-1.654-4.896-19.308-6.734 1.709zm2.182-8.617c-.48-1.895.527-3.66 2.422-4.141 1.946-.494 3.608.541 4.103 2.486.479 1.895-.541 3.609-2.436 4.09-1.841.467-3.622-.593-4.089-2.435zM138.081 194.917c4.472-1.133 8.652 1.223 9.64 5.116.56 2.209-.237 3.923-1.974 4.362-1.367.348-2.727-.372-3.047-1.634-.56-2.21 1.611-2.481 1.265-3.849-.307-1.21-2.627-2.414-5.626-1.653-4.998 1.267-7.719 6.437-6.226 12.329 1.454 5.734 6.073 9.155 11.229 7.848 2.524-.641 4.401-2.291 5.236-4.52.744-1.924.754-3.214 1.753-3.467.526-.134 1.119.219 1.279.851.614 2.419-2.04 8.076-7.669 9.503-6.313 1.602-12.553-2.248-14.407-9.562-1.84-7.259 1.601-13.563 8.547-15.324zM173.126 188.944c-1.21.307-1.948.269-2.188-.678-.268-1.053.681-1.293 2.469-1.746l5.156-1.308c1.735-.44 2.539-.587 2.806.465.2.79-.299 1.252-1.509 1.559l-2.263.574-4.789 8.716 10.105 10.485 2.314-.587c1.21-.307 1.895-.257 2.135.689.267 1.053-.68 1.293-2.469 1.747l-5.104 1.294c-1.735.439-2.538.586-2.805-.465-.2-.789.299-1.252 1.508-1.559l1.631-.413-8.52-8.87-3.925 7.266 1.134 4.473 2.156-.547c1.211-.307 1.948-.271 2.188.676.267 1.053-.681 1.293-2.469 1.746l-5.156 1.308c-1.736.44-2.539.587-2.806-.464-.2-.79.299-1.252 1.509-1.559l2.052-.521-6.896-27.199-2.052.52c-1.21.307-1.854.19-2.055-.599-.24-.947.587-1.437 2.218-1.851l2.946-.747c.842-.213.988.142 1.241 1.142.026.105.066.263.094.368l5.135 20.256 7.469-14.492-1.26.321zM206.429 201.497c5.42-1.373 6.642-5.826 8.431-6.279.474-.121.948.207 1.068.68.374 1.475-3.138 6.395-8.926 7.862-6.943 1.761-13.196-2.142-15.023-9.35-1.854-7.312 2.021-13.67 8.86-15.404 6.628-1.681 12.485 1.762 13.966 7.603.427 1.683-.31 2.093-2.834 2.733l-17.361 4.401c1.691 6.234 6.191 9.181 11.819 7.754zm5.757-14.618c-1.727-4.602-5.933-6.838-10.879-5.584-4.472 1.134-7.446 5.08-7.114 10.146l17.993-4.562zM224.207 175.993c-1.211.307-1.843.243-2.042-.546-.374-1.474 2.18-1.337 3.238-4.013 1.279-3.124-.418-6.726 1.213-7.139.736-.187 1.251.298 1.545 1.456.613 2.42.398 4.883-.621 7.044l9.47-2.401c1.631-.414 2.592-.377 2.832.571.2.789-.325 1.146-1.535 1.453l-8.523 2.161 3.148 12.416c1.214 4.787 2.972 6.861 6.286 6.021 2.472-.627 4.149-2.845 4.717-6.572.113-1.764-.261-3.014.95-3.32.578-.146 1.198.312 1.412 1.154.2.79.207 3.027-.509 5.28-.951 3.097-3.063 5.144-5.904 5.864-4.84 1.228-7.771-1.276-9.358-7.537l-3.214-12.679-3.105.787zM262.076 187.781c.026.106.054.211.066.263.253 1 .097 1.487-.587 1.661-.842.214-1.384-.377-1.771-1.902l-1.294-5.103c-.453-1.789-.417-2.75.53-2.991.842-.213 1.082.733 2.047 1.889 2.802 3.322 6.018 4.521 9.595 3.614 3.999-1.014 5.939-3.521 5.259-6.204-.907-3.577-4.329-3.382-10.478-3.335-5.08.056-8.608.055-9.609-3.891-.946-3.735 1.715-7.154 6.607-8.395 3.524-.893 6.384-.442 8.442 1.276l-.491-1.276-.08-.315c-.187-.736.022-1.237.706-1.411.895-.227 1.357.497 1.717 1.917l.894 3.525c.4 1.578.455 2.235-.281 2.422-.999.254-1.291-.679-2.23-1.953-1.691-2.259-4.327-2.934-7.853-2.041-3.683.934-5.413 2.94-4.8 5.361.747 2.946 3.838 2.331 9.209 2.312 6.648-.062 9.967.664 11.074 5.03.987 3.894-1.725 7.772-7.354 9.2-3.945 1-7.793-.041-10.104-2.533l.786 2.88z"/><g><path d="M90.74 185.787l-.263-1.035c5.451-1.382 8.738-3.952 10.601-6.626 2.823-4.061 2.867-8.899 2.061-12.082-.757-2.983-2.568-5.785-5.131-10.047l1.218-2.045c2.264 3.915 6.191 11.727 10.768 10.566l2.506-.635.706 2.785-1.711.434c-2.228.565-4.289.452-7.204-2.027 1.968 5.091 1.283 11.574-1.045 15.086-1.654 2.494-4.804 4.436-8.424 5.354-.718.181-2.598.615-4.082.272z"/><path d="M131.041 129.794l-14.423 15.429c7.089.405 14.446 3.536 16.499 7.122 1.543 2.743 1.812 8.815-4.992 10.54l-14.92 3.783-.706-2.785 5.968-1.513c5.292-1.342 11.947-2.648 14.071-4.626 1.609-7.014-14.012-10.337-15.104-9.806-1.154.292-2.092-.232-1.396-3.669 3.086-6.033 10.547-13.684 14.856-17.232l.147 2.757zM144.987 126.343l1.767-4.386 8.195 30.316.516 5.375-.796.201-9.682-31.506zM171.931 149.11c-.222-.875-.095-1.542.741-1.754 1.074-.272 2.332.679 4.6.104l2.068-.524c3.303-.837 5.003-1.311 4.085-4.932-.483-1.91-1.849-5.291-4.603-10.308l.804-3.676c3.505 6.479 5.895 12.394 6.726 13.835 1.352 2.325 4.288 2.216 6.357 1.691l3.342-.847.706 2.785-3.342.847c-1.512.383-6.645 1.685-8.772-3.704-.231 5.436-2.646 6.769-8.018 7.961-2.088.446-4.098.87-4.694-1.478zm.827-29.469l1.633-3.082 2.864 1.942-1.583 3.111-2.914-1.971zM224.609 138.423c-5.771 1.462-8.649.795-11.522-4.023-.331 5.038-1.847 7.413-6.82 8.674l-9.509 2.411-.706-2.785 9.15-2.32c4.576-1.16 7.814-3.421 6.957-6.803-.303-1.194-.826-2.585-1.468-4.116l1.908-3.999c.404 1.93 1.877 7.739 2.27 8.952.674 1.989 4.656 2.334 9.034 1.225l.706 2.784zm-28.326-19.199l1.512-3.051 2.873 1.812-1.453 3.121-2.932-1.882zm6.494-1.773l1.552-3.062 2.884 1.852-1.503 3.091-2.933-1.881z"/><path d="M223.903 135.638l11.617-2.946c3.74-.948 4.272-2.692 3.192-6.949-1.221-4.814-4.781-15.683-7.399-21.837l1.67-3.6 3.279 4.081-.428 2.988c.585 2.308 1.299 4.625 2.832 10.673l2.038 8.038c1.402 5.53 1.012 8-5.233 9.583l-10.862 2.754-.706-2.785zM256.39 98.099l1.768-4.386 8.194 30.315.515 5.375-.796.202-9.681-31.506z"/></g></svg>